<svg width="163" height="45" viewBox="0 0 163 45" fill="none" xmlns="http://www.w3.org/2000/svg">
<g style="mix-blend-mode:luminosity" opacity="0.8" clip-path="url(#clip0_290_1702)">
<path fill-rule="evenodd" clip-rule="evenodd" d="M48.3774 33.0366V13.1027H50.9403L63.122 29.1447V13.1027H65.5583V33.0366H62.9954L50.8138 16.8363V33.0366H48.3774ZM85.397 32.2456C83.7833 32.8468 82.0431 33.1632 80.2079 33.1632C72.9938 33.1632 69.3868 29.7143 69.3868 22.7849C69.3868 16.2351 72.8673 12.9445 79.8282 12.9445C81.8216 12.9445 83.6884 13.2292 85.397 13.7671V15.982C83.6884 15.3175 81.9165 15.0011 80.113 15.0011C74.6708 15.0011 71.9497 17.5957 71.9497 22.7216C71.9497 28.2588 74.6392 31.0116 79.9864 31.0116C80.8407 31.0116 81.7899 30.885 82.8341 30.6635V23.9872H85.397V32.2456ZM89.5103 25.3478V13.1027H92.0731V25.3478C92.0731 29.1764 93.9716 31.1065 97.8001 31.1065C101.597 31.1065 103.527 29.1764 103.527 25.3478V13.1027H106.09V25.3478C106.09 30.5686 103.337 33.1948 97.8001 33.1948C92.263 33.1948 89.5103 30.5686 89.5103 25.3478ZM113.241 13.1027V30.9483H123.682V33.0366H110.678V13.1027H113.241ZM127.384 33.0366H124.695L134.598 10.4764L144.502 33.0366H141.654L139.091 26.7717H132.51L133.206 24.6833H138.237L134.503 15.6656L127.384 33.0366ZM147.254 33.0366V13.1027H155.766C159.563 13.1027 161.461 14.6847 161.461 17.8805C161.461 20.4751 159.594 22.4052 155.892 23.6392L162.727 33.0366H159.341L153.013 24.0822V22.4052C156.81 21.804 158.74 20.3485 158.74 18.007C158.74 16.1719 157.696 15.2543 155.576 15.2543H149.881V33.0366H147.254Z" fill="#B52E31"/>
<path fill-rule="evenodd" clip-rule="evenodd" d="M0.726562 7.787L21.1348 0.509521L42.0809 7.66043L38.6953 34.6504L21.1348 44.3642L3.85898 34.7769L0.726562 7.787Z" fill="#E23237"/>
<path fill-rule="evenodd" clip-rule="evenodd" d="M42.0809 7.66043L21.1348 0.509521V44.3642L38.6953 34.6504L42.0809 7.66043Z" fill="#B52E31"/>
<path fill-rule="evenodd" clip-rule="evenodd" d="M21.1663 5.63538L8.44678 33.9226L13.1929 33.8277L15.7558 27.4362H27.1147L29.8991 33.891L34.4237 33.9859L21.1663 5.63538ZM21.1979 14.7164L25.5011 23.7025H17.4327L21.1979 14.7164Z" fill="white"/>
</g>
<defs>
<clipPath id="clip0_290_1702">
<rect width="162" height="44" fill="white" transform="translate(0.726562 0.500122)"/>
</clipPath>
</defs>
</svg>
