<svg width="67" height="67" viewBox="0 0 67 67" fill="none" xmlns="http://www.w3.org/2000/svg">
<g style="mix-blend-mode:luminosity" opacity="0.8" clip-path="url(#clip0_290_1726)">
<path fill-rule="evenodd" clip-rule="evenodd" d="M32.1284 1.0487C33.1798 0.458539 34.4743 0.458539 35.5244 1.0487C40.7197 3.96552 56.3538 12.7455 61.5509 15.6623C62.6023 16.2509 63.2496 17.3413 63.2496 18.5218C63.2496 24.3554 63.2496 41.9138 63.2496 47.7474C63.2496 48.9278 62.6023 50.0182 61.5509 50.6085C56.3554 53.5253 40.7212 62.3053 35.5244 65.2221C34.4728 65.8123 33.1782 65.8123 32.1284 65.2221C26.9329 62.3053 11.2987 53.5253 6.10186 50.6085C5.05199 50.0182 4.40454 48.9293 4.40454 47.749C4.40454 41.9152 4.40454 24.357 4.40454 18.5234C4.40454 17.3429 5.05199 16.2524 6.10341 15.6623C11.2972 12.7455 26.9344 3.96552 32.1284 1.0487Z" fill="#283593"/>
<path fill-rule="evenodd" clip-rule="evenodd" d="M4.87546 49.2516C4.46356 48.7001 4.40454 48.1766 4.40454 47.4718C4.40454 41.6722 4.40454 24.2146 4.40454 18.4134C4.40454 17.2393 5.05044 16.1549 6.09875 15.5694C11.2756 12.6697 26.8571 3.94082 32.0338 1.03954C33.0823 0.452484 34.5023 0.464736 35.5506 1.05196C40.7275 3.9517 56.2563 12.6062 61.4332 15.5059C61.8513 15.7415 62.1702 16.0248 62.4551 16.3982L4.87546 49.2516Z" fill="#5C6BC0"/>
<path fill-rule="evenodd" clip-rule="evenodd" d="M33.8274 11.4491C45.793 11.4491 55.5072 21.1662 55.5072 33.1357C55.5072 45.1049 45.793 54.822 33.8274 54.822C21.8617 54.822 12.1477 45.1049 12.1477 33.1357C12.1477 21.1662 21.8617 11.4491 33.8274 11.4491ZM33.8274 22.2924C39.8094 22.2924 44.6672 27.1502 44.6672 33.1357C44.6672 39.1196 39.8094 43.9788 33.8274 43.9788C27.8453 43.9788 22.9875 39.1196 22.9875 33.1357C22.9875 27.1502 27.8438 22.2924 33.8274 22.2924Z" fill="white"/>
<path fill-rule="evenodd" clip-rule="evenodd" d="M62.4517 16.4131C63.2508 17.1613 63.2353 18.289 63.2353 19.1767C63.2353 25.0552 63.1857 41.7756 63.2492 47.6541C63.2555 48.2675 63.0525 48.9134 62.749 49.3999L33.1965 33.135L62.4517 16.4131Z" fill="#3949AB"/>
<path fill-rule="evenodd" clip-rule="evenodd" d="M44.6667 28.4882H47.7639V37.7823H44.6667V28.4882ZM55.5067 28.4882H58.6037V37.7823H55.5067V28.4882Z" fill="white"/>
<path fill-rule="evenodd" clip-rule="evenodd" d="M41.5698 31.5863H50.8611V34.6843H41.5698V31.5863ZM52.4097 31.5863H61.7009V34.6843H52.4097V31.5863Z" fill="white"/>
</g>
<defs>
<clipPath id="clip0_290_1726">
<rect width="66.2638" height="66.2638" fill="white" transform="translate(-0.000244141 0.00012207)"/>
</clipPath>
</defs>
</svg>
