<svg width="152" height="39" viewBox="0 0 152 39" fill="none" xmlns="http://www.w3.org/2000/svg">
<g style="mix-blend-mode:luminosity" opacity="0.8">
<path d="M71.7222 11.3701C70.9169 11.3449 70.2626 11.9751 70.2374 12.7567C70.2374 12.7819 70.2374 12.8323 70.2374 12.8575V20.0172C66.7897 17.2441 61.7314 17.7987 58.9632 21.2525C57.8307 22.6895 57.2016 24.4542 57.2016 26.2946C57.1261 30.7316 60.6493 34.3871 65.0785 34.4627C69.5076 34.5383 73.1566 31.0089 73.2321 26.5719C73.2321 26.471 73.2321 26.3954 73.2321 26.2946V12.8575C73.2321 12.4541 73.0811 12.076 72.8043 11.7987C72.5023 11.5214 72.1249 11.3701 71.7222 11.3701ZM69.8348 28.2358C69.3315 29.4459 68.3752 30.4039 67.1672 30.9333C65.9089 31.4627 64.4996 31.4627 63.2414 30.9333C62.0334 30.4291 61.1023 29.4459 60.599 28.261C60.0705 27.0257 60.0705 25.6139 60.599 24.3534C61.1023 23.1433 62.0586 22.1853 63.2414 21.6811C64.4996 21.1517 65.9089 21.1517 67.1672 21.6811C68.3752 22.2105 69.3315 23.1685 69.8348 24.3786C70.3633 25.5887 70.3633 27.0005 69.8348 28.2358Z" fill="#2496ED"/>
<path d="M88.4574 20.6221C85.3368 17.4961 80.2534 17.4961 77.1328 20.6221C75.6229 22.1347 74.7924 24.1768 74.7924 26.2944C74.7169 30.7314 78.2401 34.3869 82.6693 34.4626C87.0984 34.5382 90.7474 31.0088 90.8229 26.5717C90.8229 26.4709 90.8229 26.3953 90.8229 26.2944C90.8229 25.2356 90.6216 24.202 90.219 23.2188C89.8163 22.2356 89.2123 21.3532 88.4574 20.6221ZM87.4256 28.2104C87.1739 28.8155 86.7964 29.3449 86.3435 29.7987C85.8905 30.2525 85.3368 30.6306 84.758 30.8827C83.4997 31.4121 82.0905 31.4121 80.8322 30.8827C79.6242 30.3785 78.6679 29.3953 78.1646 28.2104C77.6361 26.9751 77.6361 25.5633 78.1646 24.3028C78.6679 23.0927 79.6242 22.16 80.8322 21.6305C82.0905 21.1011 83.4997 21.1011 84.758 21.6305C85.362 21.8826 85.8905 22.2608 86.3435 22.7146C86.7964 23.1684 87.1739 23.723 87.4256 24.3028C87.9541 25.5885 87.9541 27.0003 87.4256 28.2104Z" fill="#2496ED"/>
<path d="M121.601 19.7397C121.601 19.538 121.55 19.3363 121.475 19.1598C121.399 18.9834 121.273 18.8321 121.148 18.6808C121.022 18.5548 120.846 18.4287 120.669 18.3531C120.493 18.2775 120.292 18.2271 120.091 18.2271C119.814 18.2271 119.537 18.3027 119.285 18.4539L110.729 24.0254V12.8825C110.729 12.4791 110.578 12.101 110.301 11.8236C110.024 11.5463 109.647 11.3699 109.244 11.3699C108.414 11.3699 107.759 12.0253 107.734 12.8573C107.734 12.8573 107.734 12.8573 107.734 12.8825V32.7986C107.734 33.202 107.885 33.5801 108.162 33.8574C108.439 34.16 108.816 34.3112 109.219 34.3112C109.622 34.3112 109.999 34.16 110.276 33.8574C110.553 33.5801 110.729 33.202 110.704 32.7986V27.6305L112.44 26.496L119.059 33.9331C119.336 34.1852 119.688 34.3364 120.065 34.3112C120.267 34.3112 120.468 34.286 120.644 34.1852C120.82 34.1095 120.971 34.0087 121.122 33.8574C121.248 33.7062 121.374 33.5549 121.45 33.3784C121.525 33.202 121.575 33.0003 121.575 32.7986C121.575 32.4204 121.424 32.0423 121.173 31.765L115.032 24.8321L121.022 20.9246C121.424 20.6724 121.626 20.2187 121.601 19.7397Z" fill="#2496ED"/>
<path d="M96.762 22.7144C97.215 22.2607 97.7687 21.8825 98.3727 21.6304C99.0018 21.3783 99.6561 21.227 100.336 21.227C100.94 21.227 101.518 21.3279 102.072 21.5296C102.626 21.7565 103.154 22.059 103.607 22.4623C103.884 22.6892 104.236 22.7901 104.589 22.7901C104.991 22.8153 105.394 22.664 105.671 22.3615C105.948 22.0842 106.099 21.6808 106.099 21.2775C106.099 20.8489 105.922 20.4203 105.57 20.143C104.136 18.8573 102.273 18.1514 100.336 18.2018C95.9064 18.2018 92.3077 21.8069 92.3077 26.2439C92.3077 30.6809 95.8812 34.2608 100.285 34.286C102.223 34.286 104.085 33.6053 105.545 32.3448C105.847 32.0675 106.023 31.6641 106.023 31.2355C106.048 30.4288 105.419 29.7733 104.639 29.7481C104.614 29.7481 104.563 29.7481 104.538 29.7481C104.186 29.7481 103.859 29.849 103.582 30.0506C103.129 30.454 102.626 30.7565 102.072 30.9834C101.518 31.1851 100.914 31.2859 100.336 31.2859C99.6561 31.2859 99.0018 31.1599 98.3727 30.8826C97.7687 30.6305 97.2402 30.2523 96.762 29.7985C94.7991 27.8321 94.7991 24.6556 96.7369 22.6892C96.762 22.7397 96.762 22.7397 96.762 22.7144Z" fill="#2496ED"/>
<path d="M151.321 19.2608C151.019 18.9835 150.692 18.7818 150.315 18.6557C149.887 18.5045 149.434 18.4036 148.981 18.3532C148.528 18.3028 148.075 18.2776 147.622 18.2776C146.716 18.2776 145.785 18.4288 144.929 18.7566C144.073 19.0591 143.293 19.5129 142.589 20.0675V19.765C142.564 18.933 141.859 18.3028 141.028 18.328C140.248 18.3532 139.619 18.9835 139.594 19.765V32.8491C139.619 33.6811 140.324 34.3113 141.154 34.2861C141.934 34.2609 142.564 33.6306 142.589 32.8491V26.3196C142.589 25.639 142.715 24.9835 142.991 24.3533C143.243 23.7482 143.595 23.2188 144.073 22.765C144.526 22.3112 145.08 21.9331 145.659 21.681C146.288 21.4289 146.942 21.2776 147.622 21.2776C148.301 21.2776 148.956 21.4037 149.585 21.6305C149.786 21.7314 149.987 21.7818 150.214 21.7818C150.415 21.7818 150.617 21.7566 150.793 21.6557C150.969 21.5801 151.12 21.4793 151.271 21.328C151.397 21.202 151.523 21.0255 151.598 20.849C151.674 20.6726 151.724 20.4709 151.724 20.2692C151.749 19.891 151.598 19.5381 151.321 19.2608Z" fill="#2496ED"/>
<path d="M137.43 23.2188C136.146 20.244 133.227 18.3028 130.006 18.2776C125.577 18.2776 122.003 21.8574 121.978 26.2944C121.978 30.7315 125.577 34.3365 130.006 34.3365C131.918 34.3365 133.781 33.6558 135.24 32.3953C135.266 32.3701 135.291 32.3449 135.291 32.3449C135.416 32.2441 135.542 32.118 135.618 31.9668C136.096 31.2609 135.92 30.3281 135.24 29.8491C134.662 29.4709 133.907 29.5466 133.403 30.0256C133.353 30.076 133.202 30.202 133.202 30.2272L133.177 30.2525C132.749 30.6054 132.271 30.9079 131.742 31.0844C131.189 31.2861 130.61 31.3869 130.006 31.3617C129.452 31.3617 128.924 31.2861 128.395 31.1096C127.892 30.9331 127.414 30.7062 126.986 30.3785C126.558 30.076 126.181 29.6978 125.879 29.2693C125.552 28.8407 125.325 28.3365 125.174 27.8323H136.499C136.901 27.8323 137.279 27.681 137.556 27.4037C137.858 27.1264 138.009 26.7482 137.983 26.3449C138.009 25.2608 137.807 24.202 137.43 23.2188ZM125.174 24.8322C125.325 24.3028 125.552 23.8238 125.879 23.3953C126.181 22.9667 126.558 22.5885 126.986 22.286C127.414 21.9835 127.892 21.7314 128.395 21.5549C128.899 21.3784 129.452 21.3028 129.981 21.3028C130.509 21.3028 131.063 21.3784 131.566 21.5549C132.573 21.8826 133.454 22.5381 134.083 23.3953C134.41 23.8238 134.636 24.328 134.813 24.8322H125.174Z" fill="#2496ED"/>
<path d="M146.213 32.1432C145.634 32.1432 145.181 32.6222 145.181 33.2021C145.181 33.7819 145.659 34.2357 146.238 34.2357C146.817 34.2357 147.27 33.7567 147.27 33.2021C147.27 32.597 146.791 32.1432 146.213 32.1432ZM146.213 34.0088C145.76 34.034 145.382 33.6811 145.357 33.2273C145.332 32.7735 145.684 32.3953 146.137 32.3701C146.59 32.3449 146.968 32.6978 146.993 33.1516C146.993 33.1768 146.993 33.1768 146.993 33.2021C147.018 33.6306 146.666 34.0088 146.238 34.0088C146.238 34.0088 146.238 34.0088 146.213 34.0088Z" fill="#2496ED"/>
<path d="M146.464 33.2021C146.59 33.1768 146.666 33.076 146.666 32.95C146.666 32.8491 146.64 32.7735 146.565 32.7231C146.464 32.6726 146.338 32.6474 146.213 32.6474C146.087 32.6474 145.936 32.6474 145.81 32.6726V33.7063H146.036V33.3029H146.137C146.263 33.3029 146.338 33.3533 146.364 33.4542C146.389 33.5298 146.414 33.6306 146.439 33.7063H146.691C146.64 33.6306 146.615 33.5298 146.615 33.4542C146.64 33.3533 146.565 33.2525 146.464 33.2021ZM146.162 33.1264H146.036V32.8239C146.087 32.8239 146.137 32.8239 146.162 32.8239C146.313 32.8239 146.389 32.8995 146.389 32.9752C146.414 33.076 146.288 33.1516 146.162 33.1264Z" fill="#2496ED"/>
<path d="M54.4585 14.7478C54.3076 14.6218 52.9486 13.5882 50.0294 13.5882C49.2744 13.5882 48.4943 13.6638 47.7393 13.7898C47.1857 9.93267 43.9896 8.06711 43.8638 7.96627L43.0837 7.51249L42.5804 8.24359C41.9512 9.22679 41.4731 10.336 41.1962 11.4705C40.6678 13.6638 40.9949 15.731 42.1022 17.4958C40.7684 18.2521 38.6042 18.4285 38.1512 18.4537H2.41595C1.48482 18.4537 0.729847 19.2101 0.729847 20.1428C0.679516 23.2689 1.20799 26.395 2.29012 29.3446C3.52324 32.5715 5.36033 34.9665 7.7259 36.4287C10.3935 38.0673 14.7471 39.0001 19.6544 39.0001C21.869 39.0001 24.0836 38.7984 26.273 38.3951C29.318 37.8405 32.2373 36.7816 34.93 35.2438C37.1446 33.9581 39.1327 32.3194 40.8188 30.4034C43.6625 27.2017 45.3486 23.6219 46.5817 20.4454C46.7579 20.4454 46.9089 20.4454 47.085 20.4454C50.1804 20.4454 52.093 19.2101 53.1499 18.1512C53.8546 17.4958 54.3831 16.689 54.7605 15.7815L54.987 15.126L54.4585 14.7478Z" fill="#2496ED"/>
<path d="M5.73781 17.4202H10.5193C10.7458 17.4202 10.9471 17.2437 10.9471 16.9916V12.7059C10.9471 12.479 10.7709 12.2773 10.5193 12.2773H5.73781C5.51131 12.2773 5.30999 12.4538 5.30999 12.7059V16.9916C5.33515 17.2437 5.51131 17.4202 5.73781 17.4202Z" fill="#2496ED"/>
<path d="M12.3312 17.4202H17.1127C17.3392 17.4202 17.5405 17.2437 17.5405 16.9916V12.7059C17.5405 12.479 17.3644 12.2773 17.1127 12.2773H12.3312C12.1047 12.2773 11.9034 12.4538 11.9034 12.7059V16.9916C11.9286 17.2437 12.1047 17.4202 12.3312 17.4202Z" fill="#2496ED"/>
<path d="M19.0504 17.4202H23.8319C24.0584 17.4202 24.2597 17.2437 24.2597 16.9916V12.7059C24.2597 12.479 24.0836 12.2773 23.8319 12.2773H19.0504C18.824 12.2773 18.6226 12.4538 18.6226 12.7059V16.9916C18.6226 17.2437 18.7988 17.4202 19.0504 17.4202Z" fill="#2496ED"/>
<path d="M25.669 17.4202H30.4505C30.677 17.4202 30.8783 17.2437 30.8783 16.9916V12.7059C30.8783 12.479 30.7022 12.2773 30.4505 12.2773H25.669C25.4425 12.2773 25.2412 12.4538 25.2412 12.7059V16.9916C25.2412 17.2437 25.4425 17.4202 25.669 17.4202Z" fill="#2496ED"/>
<path d="M12.3312 11.2944H17.1127C17.3392 11.2944 17.5405 11.0927 17.5405 10.8659V6.58011C17.5405 6.35321 17.3644 6.15153 17.1127 6.15153H12.3312C12.1047 6.15153 11.9034 6.328 11.9034 6.58011V10.8659C11.9286 11.0927 12.1047 11.2944 12.3312 11.2944Z" fill="#2496ED"/>
<path d="M19.0504 11.2944H23.8319C24.0584 11.2944 24.2597 11.0927 24.2597 10.8659V6.58011C24.2597 6.35321 24.0836 6.15153 23.8319 6.15153H19.0504C18.824 6.15153 18.6226 6.328 18.6226 6.58011V10.8659C18.6226 11.0927 18.7988 11.2944 19.0504 11.2944Z" fill="#2496ED"/>
<path d="M25.669 11.2944H30.4505C30.677 11.2944 30.8783 11.0927 30.8783 10.8659V6.58011C30.8783 6.35321 30.677 6.15153 30.4505 6.15153H25.669C25.4425 6.15153 25.2412 6.328 25.2412 6.58011V10.8659C25.2412 11.0927 25.4425 11.2944 25.669 11.2944Z" fill="#2496ED"/>
<path d="M25.669 5.14302H30.4505C30.677 5.14302 30.8783 4.96655 30.8783 4.71445V0.4287C30.8783 0.201807 30.677 0.00012207 30.4505 0.00012207H25.669C25.4425 0.00012207 25.2412 0.176597 25.2412 0.4287V4.71445C25.2412 4.94134 25.4425 5.14302 25.669 5.14302Z" fill="#2496ED"/>
<path d="M32.3379 17.4202H37.1194C37.3459 17.4202 37.5472 17.2437 37.5472 16.9916V12.7059C37.5472 12.479 37.3711 12.2773 37.1194 12.2773H32.3379C32.1114 12.2773 31.9101 12.4538 31.9101 12.7059V16.9916C31.9353 17.2437 32.1114 17.4202 32.3379 17.4202Z" fill="#2496ED"/>
</g>
</svg>
