<svg width="143" height="43" viewBox="0 0 143 43" fill="none" xmlns="http://www.w3.org/2000/svg">
<g style="mix-blend-mode:luminosity" opacity="0.8" clip-path="url(#clip0_290_1685)">
<path d="M20.4486 1.13169L32.7034 1.1178L12.1432 22.2645L6.78486 27.7477L0.688232 21.4662L20.4486 1.13169ZM20.3346 20.0132C20.4937 19.797 20.7863 19.9035 21.0083 19.8757L32.6929 19.8788L22.0437 30.8266L15.9156 24.559L20.3346 20.0132Z" fill="#44D1FD"/>
<path opacity="0.54" d="M49.9281 9.95166L63.2872 9.95629L63.2857 12.6631C59.791 12.6631 56.2948 12.6523 52.7986 12.6678C52.5315 12.7589 52.6575 13.1032 52.6275 13.3147L52.638 20.5953C52.7265 20.8686 53.0627 20.7373 53.2697 20.7713L62.2369 20.7667V23.4704C59.4489 23.4689 56.6624 23.4689 53.8744 23.4704C53.4603 23.4689 53.0417 23.4426 52.632 23.5152L52.6005 33.7928C51.7017 33.7558 50.8044 33.7897 49.9056 33.7697L49.9041 10.3886L49.9281 9.95166ZM66.5269 9.95629H69.2698L69.2713 26.1325L69.2413 33.7496C68.3485 33.7326 67.4557 33.728 66.5644 33.7527C66.4954 33.3759 66.5239 32.993 66.5239 32.6131L66.5269 9.95629ZM93.3743 11.9621L96.1262 11.9636L96.1307 16.7504C97.4767 16.7844 98.8302 16.6886 100.173 16.7983C100.136 17.6568 100.167 18.5153 100.152 19.3739C98.8137 19.377 97.4767 19.3878 96.1397 19.3677L96.1292 28.9011C96.1577 29.7843 96.3408 30.8513 97.1751 31.3068C98.1279 31.8642 99.2983 31.6017 100.2 31.0644V33.8376C99.2068 34.3009 98.0739 34.3564 97.007 34.2067C95.5035 33.9704 94.063 32.9158 93.6083 31.3825C93.3067 30.5425 93.3758 29.6361 93.3698 28.759L93.3638 19.4742L93.2962 19.3955C92.3464 19.343 91.3936 19.4032 90.4422 19.3692C90.4482 18.4953 90.4092 17.6213 90.4632 16.7489C91.4296 16.7319 92.4004 16.7936 93.3652 16.718L93.3743 11.9621ZM105 11.9528C105.916 11.9853 106.831 11.942 107.745 11.9745L107.808 12.0455C107.842 13.6174 107.761 15.1939 107.844 16.7628C109.148 16.7381 110.452 16.7581 111.754 16.7504L111.763 19.3538C110.452 19.4047 109.136 19.3739 107.824 19.3661L107.809 29.0647C107.808 29.9094 108.045 30.9084 108.839 31.3238C109.813 31.8704 110.993 31.5894 111.898 31.0304L111.895 33.8191C110.93 34.2669 109.843 34.3534 108.801 34.2298C107.449 34.0445 106.126 33.2586 105.491 31.9847C105.185 31.3176 105.014 30.5795 104.985 29.843V19.377C104.035 19.3754 103.087 19.38 102.139 19.377L102.145 16.7411C103.08 16.7674 104.014 16.7334 104.949 16.7659C105.048 15.1661 104.942 13.5556 105 11.9528ZM118.358 16.84C120.258 16.0293 122.45 16.0139 124.39 16.6933C126.612 17.4823 128.332 19.4773 128.962 21.792C129.375 23.0751 129.358 24.4386 129.3 25.7727L116.238 25.7866C116.346 27.218 116.761 28.6772 117.728 29.7519C119.101 31.3995 121.464 32.0109 123.46 31.3639C124.86 30.9393 125.952 29.8306 126.671 28.5567C127.466 28.9227 128.239 29.3396 129.031 29.7148C127.948 31.8395 125.978 33.5273 123.662 33.9843C121.761 34.3503 119.681 34.3595 117.938 33.3929C115.675 32.2364 114.118 29.8816 113.673 27.3492C113.351 25.4036 113.451 23.3453 114.163 21.4986C114.908 19.4711 116.416 17.7155 118.358 16.84ZM119.392 19.2812C117.794 20.0409 116.764 21.7286 116.443 23.4704L126.461 23.438C126.302 22.3 125.909 21.1434 125.098 20.3204C123.679 18.7547 121.253 18.4489 119.392 19.2812ZM135.246 19.5051C136.292 16.8909 139.505 15.5182 142.045 16.613V19.6642C140.978 19.2318 139.782 18.9647 138.656 19.3059C137.116 19.7769 135.977 21.1897 135.54 22.7447C135.24 23.7947 135.353 24.891 135.365 25.9672C135.248 27.36 135.423 28.7544 135.335 30.1472C135.407 31.35 135.272 32.5529 135.371 33.7573C134.438 33.8036 133.504 33.7542 132.572 33.7867C132.518 30.1564 132.565 26.5247 132.55 22.8929L132.571 16.7797C133.446 16.8045 134.322 16.7767 135.198 16.7983C135.278 17.7 135.101 18.6064 135.246 19.5051ZM73.2042 16.7458C74.1345 16.7859 75.0724 16.6886 75.9982 16.7967L75.9847 26.9169C75.9757 28.1537 76.1467 29.5048 76.978 30.4653C78.0509 31.6882 79.868 31.9121 81.3355 31.4288C83.2967 30.7061 84.6652 28.5691 84.5857 26.432L84.6157 16.7458L87.4172 16.752L87.4007 33.745C86.5124 33.7295 85.6255 33.745 84.7387 33.7342L84.7282 31.3161C84.1535 32.0588 83.5503 32.8108 82.7265 33.2786C81.0399 34.3734 78.9002 34.5186 77.011 33.9581C75.7926 33.5797 74.7317 32.7011 74.121 31.5523C73.3963 30.2892 73.2132 28.7961 73.1712 27.357L73.2042 16.7458Z" fill="black"/>
<path d="M9.80688 30.8373L15.9155 24.559L22.0437 30.8265L22.0692 30.8543L15.917 37.1265L9.80688 30.8373Z" fill="#1FBCFD"/>
<path d="M15.917 37.1266L22.0691 30.8544L32.6974 41.8022C28.694 41.8114 24.6921 41.7991 20.6902 41.8083C20.4621 41.8608 20.321 41.6462 20.1755 41.5134L15.917 37.1266Z" fill="#08589C"/>
</g>
<defs>
<clipPath id="clip0_290_1685">
<rect width="143" height="42" fill="white" transform="translate(-0.000488281 0.500122)"/>
</clipPath>
</defs>
</svg>
