<svg width="191" height="50" viewBox="0 0 191 50" fill="none" xmlns="http://www.w3.org/2000/svg">
<g style="mix-blend-mode:luminosity" opacity="0.8">
<path fill-rule="evenodd" clip-rule="evenodd" d="M157.093 47.1012C160.711 47.1012 164.328 47.1012 167.946 47.1012C168.394 45.0472 168.842 42.9934 169.29 40.9395C172.387 40.9395 175.585 40.9596 178.682 40.9596C180.195 40.9596 181.534 40.4863 182.723 39.6764C184.159 38.6988 185.231 37.2009 185.634 35.3528C186.315 32.2268 187 29.1012 187.685 25.9761C188.075 24.1918 188.583 22.177 187.314 20.5655C186.146 19.0827 184.596 18.9675 182.894 18.9675C170.641 18.981 158.387 18.9672 146.134 18.9672C144.897 18.9672 143.861 19.3702 142.78 19.9319C141.766 19.2094 140.851 18.9672 139.607 18.9672C134.001 18.9672 128.394 18.9672 122.788 18.9672C123.247 16.885 123.707 14.8028 124.166 12.7208C120.543 12.7208 116.919 12.7208 113.296 12.7208C112.848 14.7521 112.4 16.7834 111.952 18.8147C108.766 18.8147 105.579 18.8147 102.393 18.8147C101.073 18.8147 99.8044 19.2322 98.6972 19.9489C97.6238 19.2761 96.7961 18.984 95.5245 18.984C85.0069 18.984 74.4895 18.984 63.972 18.984C64.4536 16.8738 64.9353 14.7634 65.4167 12.653C61.7992 12.6474 58.1817 12.6418 54.5641 12.6361C52.4785 22.0354 50.3929 31.4346 48.3074 40.8338C51.9215 40.8348 55.5357 40.8358 59.1496 40.8368C60.2369 36.0265 61.324 31.2161 62.4111 26.4058C63.6339 26.4058 64.8568 26.4058 66.08 26.4058C66.5166 26.4058 66.4307 26.6564 66.3574 26.9875C65.3292 31.6039 64.3008 36.2205 63.2727 40.8368C87.2326 40.8368 111.193 40.8369 135.153 40.8369C136.373 40.8369 137.327 40.5828 138.425 40.0187C139.507 40.7471 140.463 40.9891 141.785 40.9776L158.433 40.8368C157.987 42.925 157.54 45.0131 157.093 47.1012ZM110.147 26.4259C109.08 26.4259 108.014 26.4259 106.947 26.4259C106.386 26.4259 106.235 26.6838 106.123 27.1908C105.722 29.0012 105.322 30.8119 104.921 32.622C104.807 33.1424 105.068 33.2274 105.52 33.2274C106.558 33.2274 107.596 33.2274 108.634 33.2274C109.139 30.9603 109.643 28.6931 110.147 26.4259ZM128.501 26.5571C129.64 26.5571 130.779 26.5571 131.918 26.5571C132.576 26.5571 132.54 26.9047 132.422 27.4415C132.03 29.2147 131.639 30.9883 131.247 32.7617C131.111 33.381 130.728 33.3704 130.2 33.3704C129.041 33.3704 127.882 33.3704 126.722 33.3704C126.211 33.3704 126.207 33.0661 126.298 32.6499C126.688 30.8769 127.078 29.1037 127.467 27.3307C127.611 26.6737 127.868 26.5571 128.501 26.5571ZM150.998 26.5571C152.137 26.5571 153.276 26.5571 154.416 26.5571C155.073 26.5571 155.037 26.9047 154.919 27.4415C154.528 29.2147 154.136 30.9883 153.745 32.7617C153.608 33.381 153.225 33.3704 152.697 33.3704C151.538 33.3704 150.379 33.3704 149.22 33.3704C148.709 33.3704 148.704 33.0661 148.795 32.6499C149.185 30.8769 149.575 29.1037 149.964 27.3307C150.109 26.6737 150.365 26.5571 150.998 26.5571ZM171.061 33.4215C172.127 33.4215 173.194 33.4215 174.26 33.4215C174.822 33.4215 174.973 33.1635 175.085 32.6565C175.485 30.8462 175.886 29.0355 176.286 27.2253C176.4 26.705 176.139 26.6199 175.687 26.6199C174.649 26.6199 173.611 26.6199 172.573 26.6199C172.069 28.887 171.565 31.1542 171.061 33.4215Z" fill="black"/>
<path fill-rule="evenodd" clip-rule="evenodd" d="M125.999 20.5519H139.63C141.757 20.5519 143.112 22.3059 142.641 24.449L140.212 35.4957C139.741 37.6389 137.615 39.3927 135.488 39.3927H121.856C119.729 39.3927 118.374 37.6391 118.846 35.4957L121.274 24.449C121.746 22.3054 123.871 20.5519 125.999 20.5519ZM128.469 24.9869H135.209C136.335 24.9869 137.052 25.915 136.803 27.0489L135.517 32.8959C135.268 34.0297 134.143 34.9578 133.017 34.9578H126.277C125.151 34.9578 124.434 34.0299 124.684 32.8959L125.969 27.0489C126.219 25.9146 127.343 24.9869 128.469 24.9869Z" fill="#1F1917"/>
<path fill-rule="evenodd" clip-rule="evenodd" d="M148.469 20.5519H162.101C164.228 20.5519 165.583 22.3059 165.112 24.449L162.683 35.4957C162.212 37.6389 160.086 39.3927 157.958 39.3927H144.327C142.2 39.3927 140.845 37.6391 141.316 35.4957L143.745 24.449C144.216 22.3054 146.342 20.5519 148.469 20.5519ZM150.94 24.9869H157.68C158.806 24.9869 159.523 25.915 159.273 27.0489L157.988 32.8959C157.739 34.0297 156.613 34.9578 155.488 34.9578H148.748C147.622 34.9578 146.905 34.0299 147.154 32.8959L148.44 27.0489C148.689 25.9146 149.814 24.9869 150.94 24.9869Z" fill="#1F1917"/>
<path fill-rule="evenodd" clip-rule="evenodd" d="M167.084 20.5519H183.445C185.572 20.5519 186.926 22.3063 186.455 24.449L184.027 35.4957C183.556 37.6382 181.429 39.3938 179.302 39.3927L162.942 39.3848L167.084 20.5519ZM171.361 24.9869H179.024C180.15 24.9869 180.866 25.9152 180.617 27.0489L179.332 32.8959C179.083 34.0292 177.957 34.9578 176.832 34.9578H169.162" fill="#1F1917"/>
<path fill-rule="evenodd" clip-rule="evenodd" d="M116.867 39.2445H100.507C98.3794 39.2445 97.0248 37.49 97.4959 35.3473L99.9245 24.3007C100.396 22.1579 102.523 20.4025 104.649 20.4037L121.01 20.4114L116.867 39.2445ZM112.59 34.8094H104.927C103.802 34.8094 103.085 33.8809 103.334 32.7476L104.62 26.9004C104.869 25.767 105.994 24.8384 107.12 24.8384H114.789" fill="#1F1917"/>
<path fill-rule="evenodd" clip-rule="evenodd" d="M60.8397 20.552H73.3447C75.4719 20.552 76.8267 22.3057 76.3556 24.4491L74.5801 32.5248H69.3136L70.5175 27.049C70.7666 25.9147 70.0493 24.987 68.9239 24.987H61.1761C60.0509 24.987 61.0596 25.9153 60.8105 27.049L59.6225 32.4517H54.356L56.1155 24.4491C56.5867 22.3055 58.7123 20.552 60.8397 20.552Z" fill="#1F1917"/>
<path fill-rule="evenodd" clip-rule="evenodd" d="M52.8706 39.2445L56.4654 22.941H61.7176L58.1171 39.2445" fill="#1F1917"/>
<path fill-rule="evenodd" clip-rule="evenodd" d="M95.5234 39.2445H78.0364C75.9094 39.2445 74.5543 37.4903 75.0255 35.3473L75.7301 32.142H75.7333L75.8688 31.5256C76.3396 29.3827 78.4666 27.6276 80.5931 27.6285L92.8288 27.6341L93.0093 26.8156C93.2014 25.7474 92.5331 24.8817 91.4822 24.8384H77.3181L78.2932 20.4054L95.8708 20.4105C97.9541 20.4519 99.2715 22.1885 98.806 24.3063L98.4752 25.8108H98.4781L98.0765 27.6364H98.0804L96.0178 37.0143H96.0139L95.5234 39.2445ZM81.9306 34.8094H91.2464L91.8522 32.0633H82.6958C82.6517 32.0588 82.6064 32.0562 82.5601 32.0562C81.81 32.0562 81.0612 32.6743 80.8958 33.43C80.7322 34.177 81.1973 34.7893 81.9319 34.8039C81.9316 34.8057 81.9313 34.8077 81.9306 34.8094Z" fill="#1F1917"/>
<path fill-rule="evenodd" clip-rule="evenodd" d="M125.999 20.5519H139.63C141.757 20.5519 143.112 22.3059 142.641 24.449L140.212 35.4957C139.741 37.6389 137.615 39.3927 135.488 39.3927H121.856C119.729 39.3927 118.374 37.6391 118.846 35.4957L121.274 24.449C121.746 22.3054 123.871 20.5519 125.999 20.5519ZM128.469 24.9869H135.209C136.335 24.9869 137.052 25.915 136.803 27.0489L135.517 32.8959C135.268 34.0297 134.143 34.9578 133.017 34.9578H126.277C125.151 34.9578 124.434 34.0299 124.684 32.8959L125.969 27.0489C126.219 25.9146 127.343 24.9869 128.469 24.9869Z" fill="#66CCFF"/>
<path fill-rule="evenodd" clip-rule="evenodd" d="M148.469 20.5519H162.101C164.228 20.5519 165.583 22.3059 165.112 24.449L162.683 35.4957C162.212 37.6389 160.086 39.3927 157.958 39.3927H144.327C142.2 39.3927 140.845 37.6391 141.316 35.4957L143.745 24.449C144.216 22.3054 146.342 20.5519 148.469 20.5519ZM150.94 24.9869H157.68C158.806 24.9869 159.523 25.915 159.273 27.0489L157.988 32.8959C157.739 34.0297 156.613 34.9578 155.488 34.9578H148.748C147.622 34.9578 146.905 34.0299 147.154 32.8959L148.44 27.0489C148.689 25.9146 149.814 24.9869 150.94 24.9869Z" fill="#66CCFF"/>
<path fill-rule="evenodd" clip-rule="evenodd" d="M167.087 20.5482L163.671 36.0572L162.943 39.3819L161.558 45.696H166.8L168.193 39.3819L179.305 39.3909C181.431 39.3921 183.554 37.6381 184.025 35.4956L186.453 24.4526C186.924 22.31 185.568 20.5482 183.441 20.5482L167.087 20.5482ZM171.358 24.9871H179.027C180.153 24.9871 180.867 25.9189 180.618 27.0526L179.332 32.8956C179.083 34.0289 177.958 34.9611 176.833 34.9611H169.164L171.358 24.9871Z" fill="#66CCFF"/>
<path fill-rule="evenodd" clip-rule="evenodd" d="M117.154 14.0983L115.761 20.4124L104.648 20.4033C102.522 20.4022 100.399 22.1559 99.9284 24.2987L97.492 35.3507C97.0208 37.4934 98.3764 39.246 100.504 39.246H116.866L121.011 20.4124L122.396 14.0983L117.154 14.0983ZM107.121 24.8422H114.79L112.587 34.8071H104.927C103.801 34.8071 103.087 33.884 103.336 32.7507L104.621 26.8986C104.871 25.7653 105.995 24.8422 107.121 24.8422Z" fill="#66CCFF"/>
<path fill-rule="evenodd" clip-rule="evenodd" d="M58.3922 14.0983L56.2705 23.737H56.2974L56.2075 24.1175C56.1739 24.2277 56.1424 24.3401 56.1176 24.4527L54.3555 32.4518H54.3735L52.8721 39.246H58.1135L59.6149 32.4518H59.6239L60.8106 27.0526C60.8127 27.044 60.8089 27.034 60.8106 27.0255L61.2692 24.9872H68.92C70.0455 24.9872 70.7695 25.9183 70.5204 27.0526L69.3156 32.5243L67.8412 39.246H73.0916L74.5751 32.5243H74.584L76.3552 24.4527C76.8262 22.3093 75.4706 20.5483 73.3433 20.5483H62.2221L63.6426 14.0983L58.3922 14.0983Z" fill="#66CCFF"/>
<path fill-rule="evenodd" clip-rule="evenodd" d="M95.5234 39.2445H78.0364C75.9094 39.2445 74.5543 37.4903 75.0255 35.3473L75.7301 32.142H75.7333L75.8688 31.5256C76.3396 29.3827 78.4666 27.6276 80.5931 27.6285L92.8288 27.6341L93.0093 26.8156C93.2014 25.7474 92.5331 24.8817 91.4822 24.8384H77.3181L78.2932 20.4054L95.8708 20.4105C97.9541 20.4519 99.2715 22.1885 98.806 24.3063L98.4752 25.8108H98.4781L98.0765 27.6364H98.0804L96.0178 37.0143H96.0139L95.5234 39.2445ZM81.9306 34.8094H91.2464L91.8522 32.0633H82.6958C82.6517 32.0588 82.6064 32.0562 82.5601 32.0562C81.81 32.0562 81.0612 32.6743 80.8958 33.43C80.7322 34.177 81.1973 34.7893 81.9319 34.8039C81.9316 34.8057 81.9313 34.8077 81.9306 34.8094Z" fill="#66CCFF"/>
<path fill-rule="evenodd" clip-rule="evenodd" d="M8.69839 27.6798C8.4833 28.2697 8.26793 28.8598 8.05284 29.45C7.52017 29.9811 6.98754 30.5132 6.45473 31.0446C5.87233 31.626 5.74707 31.622 5.88387 32.4444C6.04451 33.4106 6.50558 34.4063 7.35435 35.2638C8.24671 36.1651 10.1204 37.4408 11.4686 36.8395C11.3433 37.296 11.177 37.7746 10.9652 38.2426C10.0611 40.24 12.2644 40.6312 13.8064 41.0515C15.0878 41.4006 18.2328 42.331 18.6866 40.6339C18.8907 39.8703 18.9224 39.46 18.8497 38.7309C19.2485 37.8341 19.3758 37.6911 19.7059 37.1975C20.1588 36.5207 20.1263 36.263 20.0272 35.423C20.008 35.2611 19.9847 35.0846 19.9577 34.8991C21.4837 35.1304 22.9509 35.1276 24.4464 34.9407C23.9923 35.2072 23.537 35.4407 22.9365 35.7518C21.5111 36.49 22.8543 38.668 23.4686 39.6218C24.7578 41.6237 25.9138 43.001 28.0916 41.8135C28.8232 41.4145 28.8797 40.9894 29.3363 40.3025C29.5885 40.1631 30.8883 39.0492 31.6613 38.42C31.9543 38.7741 32.5151 38.8394 33.3656 38.9013C33.7935 38.9326 35.4717 38.9219 35.9166 38.9248C37.2512 38.9332 38.0521 38.7937 38.1565 37.3281C38.2059 36.6331 38.1764 36.4853 37.837 35.8778C37.8165 35.1112 37.7962 34.3444 37.776 33.5779C37.7527 32.7144 37.5891 32.1847 37.2528 31.3779C36.947 30.6453 36.7757 30.02 36.4186 29.3094C36.4677 29.0309 36.5065 28.7435 36.5329 28.4432C36.9866 28.8835 37.4403 29.3242 37.894 29.7646C38.7589 30.6041 39.4736 31.2897 40.7924 31.227C42.1659 31.1618 43.7382 30.0715 44.1409 28.7379C44.2751 28.2928 44.4089 27.8477 44.5432 27.4027C46.6144 27.7972 49.0349 27.7069 50.8384 26.7373C53.4907 25.311 54.7317 22.4434 55.0367 19.41C55.2835 16.9561 54.8085 12.8296 53.6474 10.5906C53.306 9.93216 51.7643 9.09906 51.0884 9.78917C50.5792 10.3092 50.2294 11.1015 49.6797 11.5748C49.2539 11.9414 48.7265 12.1229 48.2643 12.3148C47.9065 11.3414 47.3922 10.5849 46.7625 9.82896C46.2618 9.22817 45.79 8.92875 45.1297 8.51211C43.8248 7.68876 42.8123 6.64936 41.625 5.66309C38.0322 2.67815 34.9469 2.76969 30.4705 4.66816C28.3348 5.57402 27.3048 6.80333 25.9948 8.56893C25.2033 8.61053 24.6594 8.765 23.8227 9.50907C23.2051 10.0583 22.63 10.6234 22.0734 11.2088C17.889 11.8808 15.2903 12.6842 12.541 15.1402C11.4222 16.1396 10.6089 17.2471 9.97457 18.4921C9.38566 19.1479 8.80013 19.82 8.02256 20.1217C7.47515 20.3338 7.48532 20.3333 7.29246 19.8145C7.94334 19.3217 7.93305 18.3939 7.99329 17.5542C8.4039 17.5739 8.55782 18.038 8.83703 18.3931C9.00177 17.6506 9.09728 16.4974 8.32173 16.0927C8.44785 15.753 8.59054 15.4106 8.72123 15.036C7.57728 15.2361 3.65538 17.8998 5.74797 19.9313C5.8857 20.4954 5.99417 20.884 6.17613 21.2654C6.65493 22.2687 7.73152 22.4406 8.66966 22.072C8.41257 23.2597 8.36046 24.552 8.5152 26.366C8.55231 26.8009 8.6146 27.2397 8.69839 27.6798Z" fill="black"/>
<path d="M8.94694 27.7716C8.8606 28.0086 8.77386 28.2461 8.6874 28.4833L8.19034 28.2996C8.27679 28.0625 8.36357 27.825 8.44987 27.5879L8.94694 27.7716ZM8.6874 28.4833C8.55877 28.8359 8.42992 29.189 8.30135 29.5418L7.80432 29.3581C7.93285 29.0054 8.0617 28.6522 8.19034 28.2996L8.6874 28.4833ZM8.30135 29.5418L8.23917 29.6387L8.05286 29.4499L8.30135 29.5418ZM8.23917 29.6387C7.95702 29.9202 7.67454 30.2021 7.39227 30.4838L7.0196 30.1062C7.30186 29.8245 7.58431 29.5426 7.8665 29.2611L8.23917 29.6387ZM7.39227 30.4838C7.14201 30.7336 6.89143 30.9837 6.64106 31.2334L6.26839 30.8558C6.51876 30.6061 6.7693 30.356 7.0196 30.1062L7.39227 30.4838ZM6.64106 31.2334C6.5266 31.3475 6.48776 31.3852 6.45331 31.4187L6.08675 31.0327C6.1632 30.9585 6.24761 30.8766 6.26839 30.8558L6.64106 31.2334ZM6.45331 31.4187C6.11426 31.7476 6.04719 31.8128 6.14483 32.4004L5.62291 32.4882C5.47899 31.6224 5.5794 31.5248 6.08675 31.0327L6.45331 31.4187ZM6.14483 32.4004C6.22355 32.8736 6.37969 33.3563 6.62477 33.8263L6.15464 34.0746C5.88418 33.5561 5.71109 33.0187 5.62291 32.4882L6.14483 32.4004ZM6.62477 33.8263C6.8523 34.2627 7.15518 34.6854 7.54173 35.076L7.16697 35.4515C6.73802 35.0181 6.40386 34.5526 6.15464 34.0746L6.62477 33.8263ZM7.54173 35.076C8.03631 35.5756 8.84369 36.1947 9.68398 36.5164L9.49762 37.0152C8.57934 36.6636 7.70237 35.9922 7.16697 35.4515L7.54173 35.076ZM9.68398 36.5164C10.2685 36.7402 10.8642 36.8172 11.362 36.5953L11.5753 37.0836C10.9331 37.37 10.2008 37.2845 9.49762 37.0152L9.68398 36.5164ZM11.362 36.5953L11.8734 36.3672L11.7244 36.9104L11.4686 36.8394L11.362 36.5953ZM11.7244 36.9104C11.6579 37.1527 11.5801 37.4012 11.4907 37.6504L10.9917 37.4688C11.0765 37.2322 11.1501 36.9972 11.2129 36.7685L11.7244 36.9104ZM11.4907 37.6504C11.4072 37.8828 11.3128 38.1184 11.2065 38.3532L10.724 38.1319C10.8225 37.914 10.9117 37.6914 10.9917 37.4688L11.4907 37.6504ZM11.2065 38.3532C10.7587 39.3425 11.228 39.8635 11.9555 40.1978L11.7359 40.6841C10.7406 40.2267 10.1011 39.5082 10.724 38.1319L11.2065 38.3532ZM11.9555 40.1978C12.4203 40.4114 12.9828 40.559 13.5056 40.6962L13.3731 41.2117C12.8238 41.0675 12.2328 40.9123 11.7359 40.6841L11.9555 40.1978ZM13.5056 40.6962C13.6437 40.7323 13.7776 40.7675 13.8737 40.7937L13.7391 41.3091C13.5975 41.2705 13.4852 41.2409 13.3731 41.2117L13.5056 40.6962ZM13.8737 40.7937C14.5041 40.9654 15.5939 41.2804 16.5735 41.3429L16.5403 41.8771C15.5138 41.8115 14.3899 41.4864 13.7391 41.3091L13.8737 40.7937ZM16.5735 41.3429C17.4589 41.3994 18.2482 41.2492 18.4308 40.5661L18.9424 40.7017C18.6713 41.7154 17.6608 41.9487 16.5403 41.8771L16.5735 41.3429ZM18.4308 40.5661C18.5275 40.2042 18.5836 39.9247 18.6069 39.6476L19.137 39.6913C19.1117 39.9924 19.0496 40.3001 18.9424 40.7017L18.4308 40.5661ZM18.6069 39.6476C18.6304 39.3691 18.6208 39.0988 18.5867 38.7559L19.1127 38.7058C19.1511 39.0918 19.1622 39.3915 19.137 39.6913L18.6069 39.6476ZM18.5867 38.7559L18.6074 38.6224L18.8497 38.7309L18.5867 38.7559ZM18.6074 38.6224C18.964 37.8203 19.111 37.6036 19.3705 37.2206L19.8074 37.5212C19.5675 37.8752 19.4316 38.0757 19.092 38.8393L18.6074 38.6224ZM19.3705 37.2206C19.397 37.1815 19.4197 37.1482 19.4864 37.0484L19.9254 37.3467C19.9086 37.3719 19.8533 37.4534 19.8074 37.5212L19.3705 37.2206ZM19.4864 37.0484C19.6888 36.7459 19.7819 36.5438 19.8116 36.3349L20.3356 36.408C20.293 36.7071 20.1756 36.9724 19.9254 37.3467L19.4864 37.0484ZM19.8116 36.3349C19.8427 36.1155 19.8114 35.8536 19.7642 35.4533L20.2902 35.3927C20.342 35.8322 20.3766 36.1196 20.3356 36.408L19.8116 36.3349ZM19.7642 35.4533C19.7513 35.3439 19.7406 35.2574 19.7331 35.2009L20.2571 35.1342C20.273 35.2542 20.2839 35.339 20.2902 35.3927L19.7642 35.4533ZM19.7331 35.2009C19.7272 35.1556 19.7141 35.0645 19.6957 34.9377L20.2197 34.8604C20.2279 34.9172 20.2402 35.0058 20.2571 35.1342L19.7331 35.2009ZM19.6957 34.9377L19.6441 34.5814L19.9971 34.635L19.9577 34.899L19.6957 34.9377ZM19.9971 34.635C20.7468 34.7486 21.4826 34.8048 22.2145 34.8097L22.2125 35.3438C21.4558 35.3389 20.6945 35.2806 19.9184 35.163L19.9971 34.635ZM22.2145 34.8097C22.9487 34.8144 23.6789 34.7677 24.4153 34.6756L24.4775 35.2057C23.7186 35.3004 22.967 35.3486 22.2125 35.3438L22.2145 34.8097ZM24.4153 34.6756L24.5789 35.1722L24.4464 34.9406L24.4153 34.6756ZM24.5789 35.1722C24.1511 35.4234 23.724 35.6446 23.1792 35.9267L22.937 35.4509C23.4747 35.1726 23.8961 34.9542 24.3139 34.709L24.5789 35.1722ZM23.1792 35.9267C23.1394 35.9473 23.0987 35.9684 23.0576 35.9897L22.8154 35.5139C22.8565 35.4926 22.8972 35.4715 22.937 35.4509L23.1792 35.9267ZM23.0576 35.9897C22.4976 36.2797 22.4925 36.8887 22.6903 37.5266L22.1851 37.6852C21.9141 36.8113 21.9502 35.962 22.8154 35.5139L23.0576 35.9897ZM22.6903 37.5266C22.9146 38.2506 23.3911 39.0124 23.6902 39.4768L23.247 39.7669C22.9319 39.2776 22.4293 38.4732 22.1851 37.6852L22.6903 37.5266ZM23.6902 39.4768C24.3162 40.449 24.9066 41.2675 25.5846 41.6862L25.3092 42.141C24.5425 41.6676 23.9099 40.7964 23.247 39.7669L23.6902 39.4768ZM25.5846 41.6862C26.2252 42.0819 26.9743 42.1185 27.9664 41.5776L28.2169 42.0493C27.0314 42.6958 26.1132 42.6376 25.3092 42.141L25.5846 41.6862ZM27.9664 41.5776C28.4352 41.322 28.5926 41.0443 28.8045 40.6701L29.2663 40.9331C29.0102 41.385 28.8201 41.7203 28.2169 42.0493L27.9664 41.5776ZM28.8045 40.6701C28.8888 40.5213 28.9814 40.3582 29.1168 40.1543L29.5558 40.4505C29.4473 40.6137 29.3526 40.7808 29.2663 40.9331L28.8045 40.6701ZM29.1168 40.1543L29.209 40.0677L29.3363 40.3024L29.1168 40.1543ZM29.209 40.0677C29.3637 39.9821 30.0248 39.4319 30.6677 38.8965L31.0054 39.3076C30.3405 39.8612 29.6566 40.4305 29.4636 40.5371L29.209 40.0677ZM30.6677 38.8965C30.9987 38.621 31.3253 38.3492 31.4947 38.2113L31.828 38.6285C31.5179 38.881 31.2628 39.0933 31.0054 39.3076L30.6677 38.8965ZM31.4947 38.2113L31.6977 38.046L31.8653 38.2488L31.6613 38.4199L31.4947 38.2113ZM31.8653 38.2488C31.971 38.3766 32.1382 38.4556 32.3654 38.5104L32.2433 39.03C31.9045 38.9483 31.6444 38.8171 31.4574 38.5911L31.8653 38.2488ZM32.3654 38.5104C32.6263 38.5733 32.969 38.6041 33.3842 38.6342L33.3469 39.1683C32.9117 39.1367 32.5484 39.1035 32.2433 39.03L32.3654 38.5104ZM33.3842 38.6342C33.7098 38.6579 34.75 38.6574 35.4217 38.6572V39.1913C34.7354 39.1916 33.6728 39.1921 33.3469 39.1683L33.3842 38.6342ZM35.4217 38.6572C35.6347 38.6571 35.8117 38.6571 35.9176 38.6577L35.9154 39.1918C35.8097 39.1912 35.6337 39.1913 35.4217 39.1913V38.6572ZM35.9176 38.6577C36.5435 38.6616 37.0398 38.6336 37.3674 38.4465L37.6283 38.9118C37.1959 39.1587 36.6239 39.1962 35.9154 39.1918L35.9176 38.6577ZM37.3674 38.4465C37.6668 38.2756 37.8467 37.9389 37.8915 37.3093L38.4216 37.3469C38.3621 38.1825 38.0891 38.6488 37.6283 38.9118L37.3674 38.4465ZM37.8915 37.3093C37.9144 36.9858 37.9198 36.7929 37.8837 36.6276L38.4014 36.5127C38.4524 36.7467 38.4478 36.9755 38.4216 37.3469L37.8915 37.3093ZM37.8837 36.6276C37.8476 36.462 37.7626 36.2903 37.6051 36.0082L38.0689 35.7473C38.2506 36.0726 38.3504 36.2789 38.4014 36.5127L37.8837 36.6276ZM37.6051 36.0082L37.572 35.8841L37.837 35.8778L37.6051 36.0082ZM37.572 35.8841C37.5618 35.5008 37.5514 35.1173 37.5414 34.7341L38.0715 34.7215C38.0815 35.1048 38.0919 35.4883 38.1021 35.8716L37.572 35.8841ZM37.5414 34.7341C37.5313 34.3508 37.5209 33.9673 37.5109 33.5842L38.041 33.5716C38.051 33.9548 38.0614 34.3383 38.0715 34.7215L37.5414 34.7341ZM37.5109 33.5842C37.4999 33.1727 37.4558 32.8425 37.375 32.5214L37.8886 32.3919C37.9794 32.753 38.0289 33.1198 38.041 33.5716L37.5109 33.5842ZM37.375 32.5214C37.2936 32.1979 37.1723 31.8743 37.0085 31.4812L37.4972 31.2746C37.6694 31.688 37.7983 32.033 37.8886 32.3919L37.375 32.5214ZM37.0085 31.4812C36.8925 31.2033 36.7931 30.9333 36.6957 30.6685L37.1928 30.4849C37.2856 30.7372 37.3802 30.9946 37.4972 31.2746L37.0085 31.4812ZM37.1928 30.4839V30.4849L36.9442 30.5767L37.1928 30.4839ZM36.6957 30.6696C36.5442 30.2579 36.3972 29.8585 36.1815 29.4294L36.6558 29.1895C36.8822 29.6398 37.0352 30.0554 37.1928 30.4839L36.6957 30.6696ZM36.1815 29.4294L36.1577 29.2635L36.4187 29.3094L36.1815 29.4294ZM36.1577 29.2635C36.1838 29.1146 36.2057 28.9763 36.2223 28.8511L36.7463 28.9179C36.7247 29.0809 36.7023 29.2259 36.6796 29.3553L36.1577 29.2635ZM36.2223 28.8511C36.2373 28.7374 36.2526 28.595 36.2679 28.4212L36.7979 28.465C36.7868 28.5913 36.7693 28.7434 36.7463 28.9179L36.2223 28.8511ZM36.2679 28.4212L36.3172 27.8628L36.7162 28.2501L36.5329 28.4431L36.2679 28.4212ZM36.7162 28.2501C36.9757 28.502 37.2355 28.7542 37.495 29.0062L37.1284 29.3922C36.8689 29.1403 36.6092 28.888 36.3496 28.6361L36.7162 28.2501ZM37.495 29.0062L38.0773 29.5715L37.7107 29.9576L37.1284 29.3922L37.495 29.0062ZM38.0773 29.5715C38.4976 29.9796 38.8815 30.3503 39.3076 30.6035L39.0385 31.0648C38.5614 30.7811 38.1552 30.3891 37.7107 29.9576L38.0773 29.5715ZM39.3076 30.6035C39.7174 30.8472 40.1796 30.9884 40.78 30.9598L40.8049 31.494C40.0866 31.5282 39.5318 31.358 39.0385 31.0648L39.3076 30.6035ZM40.78 30.9598C41.4279 30.9292 42.1278 30.6489 42.7095 30.2165L43.0243 30.6463C42.3617 31.1388 41.5571 31.4582 40.8049 31.494L40.78 30.9598ZM42.7095 30.2165C43.2647 29.8039 43.7073 29.2564 43.8871 28.6607L44.3946 28.8152C44.1798 29.5266 43.6653 30.1698 43.0243 30.6463L42.7095 30.2165ZM43.8871 28.6607C43.9491 28.455 44.0112 28.2492 44.0731 28.0437L44.5805 28.1981C44.5186 28.4037 44.4565 28.6095 44.3946 28.8152L43.8871 28.6607ZM44.0731 28.0437C44.145 27.8043 44.2174 27.5647 44.2895 27.3255L44.7969 27.48C44.7248 27.7192 44.6525 27.9588 44.5805 28.1981L44.0731 28.0437ZM44.2895 27.3255L44.3586 27.0964L44.5918 27.1409L44.5432 27.4027L44.2895 27.3255ZM44.5918 27.1409C45.6651 27.3453 46.834 27.4167 47.9572 27.298L48.009 27.828C46.8346 27.9521 45.6142 27.8777 44.4946 27.6645L44.5918 27.1409ZM47.9572 27.298C48.9441 27.1938 49.8959 26.9413 50.7141 26.5015L50.9626 26.9731C50.0836 27.4458 49.0643 27.7165 48.009 27.828L47.9572 27.298ZM50.7141 26.5015C51.9125 25.857 52.8125 24.9051 53.4605 23.774L53.9203 24.0391C53.2239 25.2544 52.255 26.2782 50.9626 26.9731L50.7141 26.5015ZM53.4605 23.774V23.773L53.6904 23.9065L53.4605 23.774ZM53.4605 23.773C54.201 22.4806 54.6158 20.9556 54.7737 19.3848L55.2997 19.4349C55.1342 21.0817 54.6985 22.6818 53.9203 24.04L53.4605 23.773ZM54.7737 19.3848C54.9023 18.1047 54.8311 16.3588 54.5651 14.6703L55.0871 14.5869C55.3599 16.3185 55.4325 18.1141 55.2997 19.4349L54.7737 19.3848ZM54.5651 14.6703C54.3306 13.1809 53.9448 11.7405 53.4123 10.7136L53.8825 10.4673C54.4412 11.5449 54.8441 13.0433 55.0871 14.5869L54.5651 14.6703ZM53.4123 10.7136C53.3706 10.6331 53.3013 10.5453 53.2123 10.4567L53.583 10.0748C53.7108 10.2021 53.8144 10.3357 53.8825 10.4673L53.4123 10.7136ZM53.2123 10.4567C52.9851 10.2309 52.6475 10.0169 52.2978 9.89571L52.4697 9.39076C52.8944 9.53795 53.3054 9.79885 53.583 10.0748L53.2123 10.4567ZM52.2978 9.89571C51.9734 9.78323 51.6465 9.75221 51.4131 9.87516L51.1686 9.40145C51.5453 9.20309 52.0197 9.23484 52.4697 9.39076L52.2978 9.89571ZM51.4131 9.87516C51.3642 9.90085 51.3185 9.93433 51.2779 9.97582L50.8989 9.60234C50.9801 9.51947 51.0709 9.45279 51.1686 9.40145L51.4131 9.87516ZM51.2779 9.97582C51.0612 10.1972 50.871 10.4771 50.6804 10.7577L50.2435 10.4571C50.4494 10.1539 50.655 9.85153 50.8989 9.60234L51.2779 9.97582ZM50.6804 10.7577C50.4296 11.1267 50.1777 11.4974 49.8516 11.7782L49.5079 11.3712C49.7836 11.1339 50.0141 10.7947 50.2435 10.4571L50.6804 10.7577ZM49.8516 11.7782C49.4524 12.1219 48.9896 12.3089 48.5598 12.4826L48.3631 11.9861C48.7539 11.8282 49.1747 11.658 49.5079 11.3712L49.8516 11.7782ZM48.5598 12.4826C48.4849 12.5128 48.4114 12.5426 48.3647 12.5619L48.1639 12.0674C48.2462 12.0333 48.3049 12.0096 48.3631 11.9861L48.5598 12.4826ZM48.3647 12.5619L48.1116 12.667L48.0158 12.4065L48.2643 12.3147L48.3647 12.5619ZM48.0158 12.4065C47.8444 11.9402 47.6341 11.5236 47.3907 11.1321L47.84 10.8484C48.1005 11.2673 48.3266 11.716 48.5128 12.2228L48.0158 12.4065ZM47.3907 11.1321C47.1447 10.7363 46.8658 10.3677 46.5595 9.99996L46.9655 9.65771C47.2886 10.0458 47.5822 10.4337 47.84 10.8484L47.3907 11.1321ZM46.5595 9.99996C46.323 9.71605 46.0934 9.50341 45.8455 9.31321L46.1664 8.88961C46.4445 9.10304 46.7015 9.34093 46.9655 9.65771L46.5595 9.99996ZM45.8455 9.31321C45.5981 9.12326 45.3169 8.94527 44.9889 8.7384L45.2704 8.28563C45.6026 8.49515 45.8877 8.67564 46.1664 8.88961L45.8455 9.31321ZM44.9889 8.7384C44.0647 8.15529 43.2901 7.47058 42.4998 6.77198L42.8476 6.36937C43.6213 7.05325 44.3796 7.72347 45.2704 8.28563L44.9889 8.7384ZM42.4998 6.77198C42.1671 6.47804 41.8314 6.18127 41.4562 5.86953L41.7938 5.4564C42.1411 5.74495 42.4961 6.05864 42.8476 6.36937L42.4998 6.77198ZM41.4562 5.86953C39.7057 4.4152 38.0845 3.71056 36.3625 3.60127L36.3957 3.06715C38.2335 3.18372 39.9518 3.92605 41.7938 5.4564L41.4562 5.86953ZM36.3625 3.60127C34.6277 3.49126 32.7739 3.9808 30.5731 4.91428L30.3679 4.42187C32.6432 3.45683 34.5707 2.95148 36.3957 3.06715L36.3625 3.60127ZM30.5731 4.91428C29.5358 5.35411 28.7682 5.8716 28.1021 6.49221L27.7439 6.09984C28.4541 5.43803 29.2698 4.88757 30.3679 4.42187L30.5731 4.91428ZM28.1021 6.49221C27.4311 7.11753 26.8541 7.85627 26.2071 8.72844L25.7826 8.4092C26.4453 7.51587 27.0388 6.75691 27.7439 6.09984L28.1021 6.49221ZM26.2071 8.72844L26.1323 8.82939L26.0083 8.83588L25.9949 8.56882L26.2071 8.72844ZM26.0083 8.83588C25.6397 8.85519 25.331 8.90009 25.0241 9.02376L24.8274 8.52722C25.199 8.37746 25.5583 8.32383 25.9814 8.30176L26.0083 8.83588ZM25.0241 9.02376C24.7125 9.14925 24.3912 9.35931 23.9977 9.70927L23.6477 9.30869C24.0906 8.91476 24.4603 8.67514 24.8274 8.52722L25.0241 9.02376ZM23.9977 9.70927C23.6947 9.97869 23.3994 10.2547 23.1094 10.5373L22.7408 10.1533C23.0318 9.86973 23.3331 9.58828 23.6477 9.30869L23.9977 9.70927ZM23.1094 10.5373L23.1084 10.5383L22.9251 10.3454L23.1094 10.5373ZM23.1084 10.5383C22.8213 10.8182 22.5409 11.1033 22.265 11.3935L21.8819 11.0241C22.1624 10.7291 22.4482 10.4385 22.7419 10.1524L23.1084 10.5383ZM22.265 11.3935L22.1149 11.4718L22.0735 11.2088L22.265 11.3935ZM22.1149 11.4718C20.0429 11.8044 18.3639 12.1696 16.8643 12.7549L16.6738 12.2561C18.207 11.6578 19.9198 11.285 22.0321 10.9458L22.1149 11.4718ZM16.8643 12.7549C15.3776 13.3351 14.0655 14.135 12.716 15.3404L12.366 14.9399C13.7656 13.6895 15.1281 12.8593 16.6738 12.2561L16.8643 12.7549ZM12.716 15.3404C12.1692 15.8289 11.6977 16.343 11.2863 16.8857L10.8659 16.5624C11.2993 15.9904 11.7941 15.4506 12.366 14.9399L12.716 15.3404ZM11.2863 16.8857C10.8748 17.4287 10.5212 18.0036 10.2107 18.6131L9.7385 18.3711C10.0622 17.7358 10.4327 17.1341 10.8659 16.5624L11.2863 16.8857ZM10.2107 18.6131L10.1713 18.6705L9.97459 18.4921L10.2107 18.6131ZM10.1713 18.6705C9.8699 19.0061 9.56908 19.3463 9.24643 19.6389L8.89231 19.2404C9.20382 18.9577 9.49051 18.6336 9.77784 18.3137L10.1713 18.6705ZM9.24643 19.6389C8.90821 19.9457 8.54154 20.2066 8.11777 20.3711L7.92735 19.8723C8.28096 19.735 8.59628 19.5089 8.89231 19.2404L9.24643 19.6389ZM8.11777 20.3711H8.11676L8.02258 20.1217L8.11777 20.3711ZM8.11676 20.3711C7.77667 20.5028 7.61042 20.5688 7.42205 20.4884L7.62714 19.9959C7.6357 19.9996 7.72114 19.9525 7.92836 19.8723L8.11676 20.3711ZM7.42205 20.4884L7.42101 20.4873L7.52458 20.2421L7.42205 20.4884ZM7.42101 20.4873C7.22235 20.4024 7.1669 20.2379 7.04394 19.9073L7.54101 19.7216C7.61081 19.9095 7.60941 19.9889 7.62815 19.997L7.42101 20.4873ZM7.04394 19.9073L6.97483 19.7213L7.13407 19.6006L7.29248 19.8144L7.04394 19.9073ZM7.13407 19.6006C7.62113 19.2318 7.66731 18.4974 7.71165 17.7901L8.24173 17.8236C8.18994 18.6506 8.13582 19.5096 7.45089 20.0283L7.13407 19.6006ZM7.71165 17.7901C7.71737 17.6975 7.72326 17.6055 7.72826 17.5353L8.25834 17.5729C8.2514 17.6696 8.24651 17.7468 8.24173 17.8236L7.71165 17.7901ZM7.72826 17.5353L7.74711 17.2748L8.00575 17.2871L7.9933 17.5541L7.72826 17.5353ZM8.00575 17.2871C8.44297 17.308 8.64216 17.6189 8.85704 17.9541L8.41176 18.2422C8.27445 18.0279 8.14704 17.8291 7.98086 17.8212L8.00575 17.2871ZM8.85704 17.9541C8.91698 18.0477 8.97877 18.1441 9.04411 18.2271L8.63001 18.5589C8.54766 18.4541 8.47875 18.3467 8.41176 18.2422L8.85704 17.9541ZM9.09589 18.4504L8.97467 18.997L8.63001 18.5589L8.83704 18.393L9.09589 18.4504ZM8.57822 18.3356C8.66773 17.9323 8.73635 17.4034 8.63939 16.9704L9.15502 16.8535C9.27347 17.3823 9.19752 17.9923 9.09589 18.4504L8.57822 18.3356ZM8.63939 16.9704C8.57783 16.6951 8.44592 16.4585 8.20066 16.3305L8.44286 15.8547C8.84837 16.0664 9.06101 16.4333 9.15502 16.8535L8.63939 16.9704ZM8.20066 16.3305L7.99107 16.2211L8.07321 15.9998L8.32174 16.0926L8.20066 16.3305ZM8.07321 15.9998C8.11237 15.8942 8.16937 15.7478 8.22795 15.5973L8.72074 15.7914C8.67489 15.9092 8.62889 16.0277 8.57028 16.1855L8.07321 15.9998ZM8.22795 15.5973C8.30606 15.3964 8.3863 15.1904 8.4707 14.9483L8.97183 15.1236C8.89638 15.3398 8.8073 15.5687 8.72074 15.7914L8.22795 15.5973ZM8.67672 14.773L9.12136 14.6953L8.97183 15.1236L8.72124 15.036L8.67672 14.773ZM8.7658 15.2989C8.25255 15.3887 7.12223 16.0278 6.30173 16.8859L5.91863 16.5165C6.81375 15.5804 8.08515 14.8764 8.67672 14.773L8.7658 15.2989ZM6.30173 16.8859C6.00436 17.1969 5.75227 17.5328 5.59306 17.8751L5.11272 17.6518C5.30037 17.2483 5.58623 16.8642 5.91863 16.5165L6.30173 16.8859ZM5.59306 17.8751C5.44116 18.2016 5.37183 18.5357 5.42771 18.8601L4.90576 18.9498C4.83002 18.5102 4.91748 18.0714 5.11272 17.6518L5.59306 17.8751ZM5.42771 18.8601C5.47838 19.1548 5.63546 19.451 5.93128 19.7382L5.56469 20.1242C5.18123 19.7519 4.97538 19.3547 4.90576 18.9498L5.42771 18.8601ZM5.93128 19.7382L6.00479 19.8675L5.74799 19.9312L5.93128 19.7382ZM6.00479 19.8675C6.07208 20.1434 6.13242 20.3767 6.19805 20.5875L5.69286 20.7461C5.62446 20.5264 5.56145 20.2829 5.49122 19.9949L6.00479 19.8675ZM6.19805 20.5875C6.26084 20.7891 6.32935 20.9704 6.4153 21.1506L5.937 21.38C5.84106 21.1789 5.7641 20.9747 5.69286 20.7461L6.19805 20.5875ZM6.4153 21.1506C6.60593 21.5501 6.90754 21.7933 7.25515 21.9058L7.09368 22.4149C6.61316 22.2594 6.19755 21.926 5.937 21.38L6.4153 21.1506ZM7.25515 21.9058C7.66069 22.037 8.13255 21.9968 8.57333 21.8236L8.76602 22.3202C8.21494 22.5367 7.61703 22.5842 7.09368 22.4149L7.25515 21.9058ZM8.57333 21.8236L9.03361 21.6428L8.92849 22.1282L8.66967 22.0719L8.57333 21.8236ZM8.92849 22.1282C8.80363 22.7054 8.72829 23.3103 8.70301 23.9934L8.17293 23.9747C8.19933 23.2614 8.27884 22.6259 8.41086 22.0156L8.92849 22.1282ZM8.70301 23.9934C8.67784 24.6768 8.70351 25.4435 8.78029 26.3441L8.25018 26.3878C8.17232 25.4745 8.14661 24.6877 8.17293 23.9747L8.70301 23.9934ZM8.78029 26.3441C8.79986 26.5733 8.8233 26.7845 8.8502 26.9776L8.32624 27.0485C8.2929 26.8089 8.26723 26.588 8.25018 26.3878L8.78029 26.3441ZM8.8502 26.9776C8.87987 27.1904 8.91616 27.4082 8.95827 27.6296L8.43858 27.7298C8.39597 27.506 8.35824 27.2788 8.32624 27.0485L8.8502 26.9776ZM8.95827 27.6296L8.94694 27.7716L8.69841 27.6797" fill="black"/>
<path fill-rule="evenodd" clip-rule="evenodd" d="M22.219 11.6341L18.7293 12.2056L15.5449 13.612L12.8404 15.3263L10.2667 18.491L8.81278 20.0426L7.40692 20.5647L7.03507 19.649L7.68523 18.7034L7.8313 17.3698L8.2668 17.3875L8.74265 17.8248L8.6143 16.4664L8.08685 16.1099L8.10285 15.5922L6.85339 16.3044L5.72196 17.6495L5.48608 18.8517L5.96988 19.8144L6.42117 21.4498L7.33895 21.8877L8.30442 21.8399L9.21983 21.304L8.60919 24.4247L9.21983 27.897L8.54763 29.5003L6.34593 31.8906L6.73738 33.3186L7.78034 34.9735L9.74703 36.3681L10.7902 36.5119L11.9499 36.5515L11.2264 39.5447L13.8873 40.6436L17.2026 41.0831L18.3366 40.3359L18.4239 38.3141L19.689 36.2043L19.7762 34.534L22.8297 34.7538L25.6651 34.49L22.8297 36.2043L23.3096 38.2701L25.098 41.0831L26.8429 41.8303L28.2387 41.2589L28.8058 40.1161L31.7284 37.8745L32.2955 38.358L36.8757 38.5338L37.7918 37.7866L37.879 36.4679L37.5737 35.8966L37.3555 32.3364L35.8288 29.2596L36.0905 27.897L37.0066 28.3805L39.5803 30.798L40.8452 30.8858L42.2411 30.3144L43.637 29.2596L44.3349 26.974L48.4353 27.2377L50.9217 26.2707L52.9283 24.3807L54.3678 21.6556L54.7168 18.447L54.4114 14.7109L53.6263 11.3705L52.841 10.3156L51.7506 9.96388L49.8312 12.0737L48.0864 12.689L46.5596 10.1397L45.0329 8.73323L44.204 8.20578L40.8889 5.43666L38.2279 3.98621L35.567 3.76641L32.47 4.29386L29.7655 5.30481L27.8898 6.84316L26.4067 8.64532L24.8799 9.08483L22.219 11.6341Z" fill="#FFFF00" stroke="#1F1917" stroke-width="0.27" stroke-miterlimit="10"/>
<path fill-rule="evenodd" clip-rule="evenodd" d="M12.0978 19.5669C9.10854 23.0799 9.77258 27.3406 10.601 31.5149C10.1589 30.3893 9.71669 29.2639 9.27461 28.1383C9.1117 27.1065 8.9488 26.0748 8.78589 25.043C8.83239 23.9877 8.87896 22.9326 8.92557 21.8774C9.34441 20.8691 9.7633 19.8608 10.1821 18.8525C10.8105 17.9146 11.4389 16.9766 12.0672 16.0386C13.0446 15.2178 14.022 14.3971 14.9994 13.5765C16.0699 13.131 17.1404 12.6854 18.2109 12.2399C19.4675 12.0758 20.7242 11.9116 21.9809 11.7475C20.8173 13.084 19.6538 14.4207 18.4901 15.7572C15.6873 16.6732 14.0343 17.2901 12.0978 19.5669Z" fill="#FFFFCC"/>
<path fill-rule="evenodd" clip-rule="evenodd" d="M26.1699 8.86326C24.0918 10.9062 22.9567 12.4469 21.6342 14.839C20.6882 16.5501 19.6271 18.1981 18.6326 19.8853C18.1295 20.7393 18.082 21.4554 17.9317 22.4402C17.443 21.854 16.9543 21.2678 16.4656 20.6816C16.6983 19.9781 16.931 19.2746 17.1638 18.5712C17.955 17.1407 18.7463 15.7103 19.5374 14.28C21.213 12.6151 22.8886 10.9502 24.5642 9.28533C25.0993 9.14459 25.6346 9.00396 26.1699 8.86326Z" fill="#FFFFCC"/>
<path fill-rule="evenodd" clip-rule="evenodd" d="M36.4325 3.79836C34.7681 4.42716 32.004 4.63425 31.8123 6.55914C31.6757 7.9261 31.9146 8.61295 32.7323 10.0592C30.7126 7.95332 30.2131 8.27922 26.3093 8.93364C26.8679 8.13634 27.4264 7.33908 27.9849 6.54178C28.9623 5.93218 29.9398 5.32244 30.9172 4.71281C32.1738 4.4314 33.4305 4.15002 34.6872 3.86862C35.2689 3.84517 35.8507 3.82176 36.4325 3.79836Z" fill="#FFFFCC"/>
<path fill-rule="evenodd" clip-rule="evenodd" d="M41.0253 29.8353C41.5794 30.1799 41.5675 30.4296 41.4748 30.6659C41.9119 30.4896 42.349 30.3135 42.7861 30.1374C43.0693 29.7543 43.3524 29.3713 43.6355 28.988C43.8457 28.4422 44.0559 27.8963 44.2661 27.3504C43.9975 27.1469 43.729 26.9434 43.4604 26.7399C42.2866 26.8909 41.1127 27.0419 39.9388 27.1929C39.8514 27.432 39.764 27.6711 39.6765 27.9101C39.7016 28.2499 39.7266 28.5896 39.7515 28.9294C39.8639 29.1307 39.9763 29.3321 40.0887 29.5333C40.2636 29.6215 40.4384 29.7096 40.6131 29.7976C40.7507 29.8103 40.888 29.8229 41.0253 29.8353Z" fill="#CCCC00"/>
<path fill-rule="evenodd" clip-rule="evenodd" d="M40.6975 23.7669C38.9323 24.2804 38.9461 24.4218 38.4248 26.1864C39.113 25.0739 39.6225 24.5124 40.6975 23.7669Z" fill="#CCCC00"/>
<path fill-rule="evenodd" clip-rule="evenodd" d="M52.4348 10.5617C52.1211 10.7077 51.8156 10.7781 51.6194 11.0673C51.1971 11.6899 50.8352 12.2136 50.1368 12.6507C49.7851 12.8709 49.4213 13.0135 49.0483 13.1306C48.7389 13.2276 48.5532 13.141 48.2898 13.3316C48.446 13.3591 48.6022 13.3867 48.7585 13.4143C49.103 13.4143 49.4474 13.4143 49.7918 13.4143C50.2165 13.15 50.6411 12.8857 51.0657 12.6215C51.3156 12.3572 51.5652 12.0931 51.815 11.8288C52.0216 11.4064 52.2282 10.9839 52.4348 10.5617Z" fill="#CCCC00"/>
<path fill-rule="evenodd" clip-rule="evenodd" d="M24.3163 14.5089C23.6217 16.4237 23.015 18.0651 21.9629 19.7987C23.311 18.3352 24.1282 17.0913 24.9003 15.4367C25.2002 14.794 25.2569 14.0397 26.0923 14.3202C26.1298 14.962 26.2644 15.6037 26.3019 16.2454C26.7533 12.9851 28.0261 11.6218 30.9849 10.3565C30.1482 10.4573 29.3115 10.5579 28.4749 10.6585C27.6881 10.8348 26.9014 11.0108 26.1146 11.187C25.7274 11.7533 25.3403 12.3195 24.9532 12.8857C24.7408 13.4268 24.5286 13.9679 24.3163 14.5089Z" fill="#CCCC00"/>
<path fill-rule="evenodd" clip-rule="evenodd" d="M30.0482 14.4335C30.6862 17.4596 31.6049 20.3637 32.004 23.4378C32.2632 25.4353 32.2916 26.395 31.2941 28.1183C30.2041 28.0473 29.5273 28.1712 28.4729 28.5192C24.2754 29.9057 21.8681 31.9442 19.0398 27.8368C19.9427 28.2654 20.8456 28.6942 21.7484 29.123C22.3921 28.9956 23.0357 28.8681 23.6793 28.7406C24.8157 28.0737 25.9522 27.4068 27.0886 26.7399C27.9752 26.5637 28.8619 26.3876 29.7485 26.2115C30.0358 25.0035 30.3229 23.7955 30.6102 22.5875C30.3979 20.9893 30.1855 19.3913 29.9733 17.7932C29.9484 17.0383 29.9234 16.2833 29.8983 15.5283C29.9484 15.1633 29.9984 14.7984 30.0482 14.4335Z" fill="#CCCC00"/>
<path fill-rule="evenodd" clip-rule="evenodd" d="M37.2788 33.1573C36.9262 35.6158 38.0906 36.9375 37.6085 37.6164C37.472 37.8086 37.2869 38.144 37.0804 38.2359C36.3426 38.5643 35.3283 38.1745 35.2557 38.3668C34.444 38.3668 33.6323 38.3668 32.8205 38.3668C32.4959 38.2282 32.1712 38.0899 31.8464 37.9515C32.3459 37.3601 32.8455 36.7686 33.345 36.1773C33.832 35.1077 34.3191 34.038 34.8061 32.9686C35.1184 31.8864 35.4306 30.8043 35.7427 29.7221C35.9051 29.7221 36.0674 29.7221 36.2297 29.7221C36.5795 30.8672 36.9291 32.0122 37.2788 33.1573Z" fill="#CCCC00"/>
<path fill-rule="evenodd" clip-rule="evenodd" d="M33.1858 26.0102C33.3836 27.1265 33.7271 27.3917 34.2483 28.4723C33.9014 30.2351 33.3442 32.3315 32.6736 33.8869C32.3908 34.5428 32.1626 34.9045 31.664 35.4114C30.8223 36.2678 29.9713 37.0139 29.0166 37.7563C28.3296 38.29 27.85 38.0223 27.0021 37.9013C26.6416 38.56 26.542 38.9258 25.8784 39.2602C24.8577 39.7744 23.9444 38.6663 23.1433 38.0145C23.7216 38.9247 24.2999 39.8348 24.8781 40.745C25.2778 41.1225 25.6774 41.5 26.077 41.8776C26.4142 41.9278 26.7514 41.9781 27.0886 42.0286C27.5381 41.7516 27.9877 41.4748 28.4372 41.198C28.6745 40.745 28.9118 40.292 29.1491 39.8391C29.6486 39.4616 30.1482 39.0841 30.6476 38.7065C31.2596 38.1781 31.8715 37.6496 32.4834 37.1211C32.8706 36.5673 33.2576 36.0137 33.6448 35.4601C33.9943 34.8058 34.3441 34.1514 34.6937 33.4971C35.1433 32.1381 35.5928 30.7791 36.0425 29.4202C36.0799 28.9041 36.1174 28.3883 36.1548 27.8724C35.5928 27.6207 35.0309 27.369 34.469 27.1174C34.0568 26.7272 33.598 26.4002 33.1858 26.0102Z" fill="#CCCC00"/>
<path fill-rule="evenodd" clip-rule="evenodd" d="M19.7458 33.8745C21.6366 33.8745 23.6335 33.7689 25.3653 32.9686C25.8555 32.2277 26.3392 31.6227 26.9389 30.9679C26.3931 32.0066 26.222 32.5936 26.0772 33.7613C25.8898 34.038 25.7026 34.315 25.5152 34.5918C24.0915 34.6296 22.668 34.6673 21.2443 34.7051C20.7822 34.6547 20.3201 34.6043 19.8581 34.5541C19.8082 34.5037 19.7582 34.4533 19.7083 34.4031C19.7208 34.2268 19.7333 34.0507 19.7458 33.8745Z" fill="#CCCC00"/>
<path fill-rule="evenodd" clip-rule="evenodd" d="M19.4833 32.5533C19.4344 32.1067 19.3854 31.6599 19.3365 31.2131C19.0134 33.1724 19.0911 34.4854 18.1962 36.2405C17.5277 37.021 16.7046 37.7312 15.7619 38.1113C15.8415 38.5925 15.8653 38.8931 15.8191 39.246C15.653 40.515 13.1335 39.9544 12.0972 39.9039C13.76 40.3353 15.4229 40.7666 17.0855 41.198C17.4602 41.047 17.8348 40.896 18.2095 40.745C18.3344 40.0152 18.4593 39.2853 18.5842 38.5555C18.9338 37.9012 19.2836 37.2468 19.6331 36.5926C19.6955 36.1899 19.758 35.7872 19.8205 35.3846C19.7081 34.4408 19.5957 33.4971 19.4833 32.5533Z" fill="#CCCC00"/>
<path fill-rule="evenodd" clip-rule="evenodd" d="M16.6735 21.4927C16.6212 22.4454 16.5601 22.8426 16.9771 23.684C17.5072 24.7535 18.1581 25.7583 18.7341 26.8153C18.7965 26.1106 18.8589 25.4059 18.9214 24.7013C18.1721 23.6317 17.4228 22.5622 16.6735 21.4927Z" fill="#CCCC00"/>
<path fill-rule="evenodd" clip-rule="evenodd" d="M8.98297 28.6894C8.82078 29.0372 8.65859 29.3851 8.49641 29.7329C8.9428 31.2479 9.33953 32.2075 10.1895 33.531C10.0415 34.0673 9.93071 34.3019 9.59011 34.739C8.84207 34.623 8.17785 34.5895 7.41992 34.5918C8.25675 35.2461 9.09348 35.9004 9.9301 36.5548C10.3421 36.4793 10.7543 36.4038 11.1664 36.3283C11.5784 35.913 11.9906 35.4978 12.4027 35.0826C11.8156 34.164 11.2288 33.2454 10.6419 32.3268C10.0889 31.1143 9.53588 29.9018 8.98297 28.6894Z" fill="#CCCC00"/>
<path fill-rule="evenodd" clip-rule="evenodd" d="M52.4404 10.0605C52.9499 12.3707 53.6071 14.5022 53.5462 16.8682C53.4713 19.7709 52.9099 23.4374 50.2408 25.1878C47.2517 27.148 43.743 26.2209 40.4634 25.381C41.7997 25.9346 43.1359 26.4882 44.4721 27.0419C45.7209 27.1049 46.9697 27.1677 48.2185 27.2307C49.0678 26.9789 49.9169 26.7273 50.7661 26.4757C51.4279 25.922 52.0899 25.3684 52.7516 24.8147C53.2511 23.7578 53.7507 22.7007 54.2502 21.6438C54.4375 20.4231 54.6249 19.2025 54.8121 17.9821C54.6623 16.7865 54.5124 15.5912 54.3626 14.3958C54.0879 13.2129 53.813 12.0301 53.5384 10.8474C53.1725 10.585 52.8065 10.3228 52.4404 10.0605Z" fill="#CCCC00"/>
<path fill-rule="evenodd" clip-rule="evenodd" d="M7.83327 16.9456C6.47625 17.8355 5.94329 18.2262 6.09203 19.8755C6.22721 20.3695 6.36246 20.8636 6.49775 21.3575C6.68928 21.4882 6.88093 21.6187 7.07249 21.7494C7.3092 21.8288 7.5459 21.9083 7.7826 21.9878C8.21083 21.8856 8.6391 21.7834 9.06744 21.6812C9.28721 20.9941 9.50701 20.3071 9.72677 19.62C9.11811 19.9209 8.50953 20.2219 7.90095 20.5228C7.76005 20.5228 7.61919 20.5228 7.47829 20.5228C7.32049 20.2787 7.16269 20.0345 7.00489 19.7904C7.19653 19.5065 7.3881 19.2226 7.57974 18.9386C7.68115 18.3992 7.7826 17.8597 7.88401 17.3204C8.01358 17.3601 8.14326 17.3998 8.27283 17.4395C8.43063 17.5645 8.58843 17.6894 8.74623 17.8143C8.72368 17.5304 8.70117 17.2465 8.67855 16.9626C8.57149 16.7809 8.46447 16.5992 8.35734 16.4175C8.25028 16.3266 8.14326 16.2358 8.03613 16.1449C7.96852 16.4118 7.90095 16.6787 7.83327 16.9456Z" fill="#CCCC00"/>
<path fill-rule="evenodd" clip-rule="evenodd" d="M38.2776 3.94896C39.4818 5.07575 40.96 6.05525 41.9233 7.4324C42.296 7.96557 42.7103 8.23818 41.9169 8.99109C42.7552 8.74983 43.0666 8.77603 43.7376 8.85799C44.9582 9.00681 46.1023 10.7552 46.1753 12.0081C46.1609 12.1253 45.8362 12.3912 44.8924 12.6537C44.8737 12.6903 44.3598 12.5829 44.3726 12.6179C44.4706 12.8883 44.6017 12.9298 44.8018 13.0563C44.8452 13.357 44.8732 13.8208 45.0764 14.1496C45.6703 14.1391 46.2507 14.2042 46.8322 14.3203C47.0279 14.6474 46.9984 14.9744 46.9821 15.3018C47.2069 15.2641 47.4317 15.2263 47.6564 15.1886C47.5939 14.6725 47.5316 14.1567 47.4692 13.6408C47.6689 13.3011 47.8687 12.9613 48.0685 12.6216C47.7812 11.9673 47.494 11.313 47.2069 10.6586C46.6573 10.1301 46.1079 9.60162 45.5584 9.07305C45.5056 9.07051 45.4525 9.06773 45.3997 9.06516C44.7817 8.68294 44.1639 8.30093 43.546 7.91883C42.5381 7.08797 41.5303 6.25701 40.5224 5.42612C39.7741 4.93371 39.0258 4.4413 38.2776 3.94896Z" fill="#CCCC00"/>
<path fill-rule="evenodd" clip-rule="evenodd" d="M40.3063 13.2499C40.2428 13.3619 40.1469 13.5408 40.0239 13.6647C40.5256 14.1428 40.7731 14.463 40.9519 15.1392C40.3848 15.4229 39.8178 15.7066 39.2507 15.9903C38.7709 16.4537 38.2911 16.9173 37.8112 17.3807C37.1797 17.0382 37.0223 16.7751 36.7167 16.1221C36.3608 16.217 36.0236 16.3084 35.7297 16.1997C35.9162 16.2012 36.0308 16.1542 36.217 16.0382C36.5224 15.7185 36.8277 15.3988 37.133 15.0792C37.6724 14.6676 38.2118 14.256 38.751 13.8445C39.1039 13.7286 39.4569 13.6127 39.8099 13.4969C39.9446 13.441 40.1714 13.3059 40.3063 13.2499Z" fill="#CCCC00"/>
<path fill-rule="evenodd" clip-rule="evenodd" d="M41.8716 14.9552C40.0674 15.934 38.3395 16.9184 37.417 18.7773C37.417 16.4178 39.7682 15.3791 41.8716 14.9552Z" fill="#CCCC00"/>
<path fill-rule="evenodd" clip-rule="evenodd" d="M37.0588 10.3137C35.7192 11.234 34.7719 13.0913 34.891 14.9015C34.4546 13.3341 34.6092 11.8531 35.9491 10.7704C36.1752 10.6597 36.4012 10.549 36.6272 10.4383C36.7712 10.3967 36.915 10.3553 37.0588 10.3137Z" fill="#CCCC00"/>
<path fill-rule="evenodd" clip-rule="evenodd" d="M39.6194 24.2867C39.8963 24.1349 40.3989 23.9261 40.6758 23.7743C40.391 23.8228 39.8804 23.9282 39.5955 23.9766C38.8348 24.1061 38.7453 24.2903 38.6272 25.0451C38.5716 25.4005 38.4949 25.8414 38.4393 26.1969C38.5884 25.795 38.7678 25.3279 38.9416 24.9445C39.1255 24.5391 39.2291 24.5009 39.6194 24.2867ZM25.5037 4.84864C26.1016 3.94503 26.4458 3.65108 27.3658 3.07862C26.1166 3.38184 25.8784 3.61492 25.5037 4.84864ZM25.307 6.83937C26.3532 4.72015 27.1453 3.9398 29.3357 2.89896C26.8582 3.51085 26.1299 3.94596 25.307 6.83937ZM2.90284 17.8701C3.13242 16.8089 3.3464 16.4086 3.99572 15.5375C2.9424 16.279 2.8051 16.5835 2.90284 17.8701ZM26.3533 35.6308C26.3217 35.3733 26.2898 35.1156 26.2579 34.8581C26.2005 34.3915 26.2028 34.0124 26.2397 33.5428C26.2753 33.0883 26.3107 32.6338 26.3461 32.1791C26.2147 32.6411 25.9521 33.1032 25.8208 33.5652C25.7683 33.7501 25.7248 33.8996 25.6999 34.0379C23.7395 34.4415 21.7934 34.4667 19.8325 34.1142C19.7074 33.3828 19.5551 32.6205 19.4274 32.0742C19.3887 32.6862 19.4136 34.378 19.4105 35.3252C19.408 36.0592 19.3773 36.3105 19.0018 36.9348C18.6501 37.5193 18.5012 37.6519 18.0089 38.6395C18.0498 39.2625 18.0506 39.6746 17.8863 40.2661C17.613 41.2492 14.8566 40.4874 14.1294 40.2868C13.234 40.0399 11.3827 39.6728 11.8482 38.4699C12.258 37.4113 12.5176 36.2952 12.7178 34.8138C11.0773 32.4324 9.55144 29.1688 9.25875 26.2774C9.03143 24.0321 9.16783 22.6502 9.65001 21.2768C10.414 19.1009 11.4828 17.2173 13.1979 15.7006C15.5113 13.6552 17.6739 12.8336 21.06 12.3143C20.2457 13.2327 19.4401 14.204 18.562 15.2454C17.6731 16.2997 17.1449 17.3646 16.5805 18.5177C15.8008 20.1104 15.8175 20.7164 16.8512 22.1146C17.7419 23.3196 18.2228 23.8621 18.6117 25.041C18.2905 25.7081 18.1737 26.2718 18.0657 27.1828C19.1564 28.384 19.9668 29.2071 21.0257 29.4608C22.0644 29.7095 22.9319 29.6612 23.861 29.1827C25.925 28.1194 27.8346 26.7466 30.1628 26.6898C31.2399 24.0215 31.1311 21.7922 30.6139 19.2106C30.2608 17.4476 30.1192 15.7782 30.0093 13.9808C29.5726 15.8319 29.4907 17.4597 29.8146 19.3035C30.2052 21.5255 30.5088 23.9804 29.4223 25.9333C27.3172 26.0957 25.513 27.3862 23.6155 28.3764C22.8529 28.7745 22.0588 28.8132 21.2146 28.5797C20.431 28.3629 19.9022 27.8406 19.0581 26.8596C19.0449 25.8746 19.2654 25.42 19.7143 24.5281C20.4355 23.0957 21.2316 21.7623 22.1051 20.3527C21.0354 21.6538 20.022 22.7407 19.1801 24.0486C18.8583 23.1247 18.3982 22.6557 17.6359 21.6155C16.8914 20.5995 16.8134 20.1546 17.3701 18.9789C17.9298 17.7973 18.4045 16.7588 19.3573 15.7223C21.0035 13.931 22.5115 11.9374 24.3117 10.1733C25.2891 9.2155 25.686 9.24859 26.9825 9.05056C28.1543 8.87163 29.2986 8.64562 30.4937 8.36584C29.3378 8.47441 28.2206 8.51438 27.0954 8.5425C27.0837 8.54282 27.0721 8.54322 27.0605 8.54322C28.1676 7.11857 28.8101 6.32475 30.6081 5.53756C35.035 3.6002 37.8478 3.39068 41.3253 6.33616C42.2265 7.09954 43.0137 7.84064 43.9276 8.49927C43.5963 8.52782 43.3107 8.58768 42.9331 8.73716C43.3927 8.64892 43.9235 8.73643 44.4004 8.82427C44.5344 8.91178 44.6719 8.99711 44.813 9.08093C45.458 9.46387 45.8241 9.67538 46.2604 10.2879C46.7216 10.9353 47.1059 11.5821 47.4448 12.295C47.2227 12.2151 47.0366 12.1475 46.8707 12.0978C46.7485 12.0414 46.6157 12.0042 46.4748 11.9905C46.1958 11.9635 45.9288 12.0326 45.7064 12.1705C45.6975 12.1748 45.6886 12.1788 45.6795 12.1833C45.3227 12.3583 44.7699 12.5579 44.3999 12.6184C44.5885 12.684 45.0059 12.7086 45.2027 12.6301C45.2291 12.6195 45.2559 12.6115 45.2835 12.6048C45.1947 12.7571 45.1367 12.93 45.1188 13.1168C45.0952 13.3644 45.1451 13.6021 45.2508 13.8084C45.2512 13.8092 45.2516 13.8099 45.2519 13.8106C45.2854 13.8898 45.3318 13.9629 45.3828 14.0155C45.2136 14.0782 45.0411 14.15 44.8632 14.2278C45.6881 14.1012 46.432 14.0794 47.2372 14.1864C47.2903 14.4421 47.3438 14.7131 47.3934 14.9888C47.2936 14.9968 47.1941 15.0044 47.0944 15.0123C47.0863 15.013 47.0782 15.0137 47.0701 15.0145C46.6892 14.7076 46.2647 14.7592 45.6849 14.8926C43.9215 15.2977 44.3359 16.2948 43.5246 17.7971C44.3669 16.7595 44.3045 15.674 45.6771 15.3464C45.997 15.2701 46.2148 15.1747 46.4313 15.2075C46.0416 15.405 45.7044 15.7324 45.5708 16.1125C45.194 17.1846 45.428 18.0878 45.0141 19.0891C45.5268 18.1941 45.5577 17.3204 46.0162 16.3787C46.1808 16.0404 46.7919 15.4989 47.1671 15.4906C47.27 15.4884 47.3728 15.4861 47.4758 15.4839C47.5662 16.0798 47.6212 16.6714 47.5861 17.1622C47.5222 18.0576 47.2913 19.3868 47.1531 19.8953C47.6175 19.2938 47.8291 18.0197 48.033 17.1229C48.2455 16.1889 48.1919 15.0683 48.0059 14.0651C47.7508 12.6885 49.1577 12.9124 49.9746 12.2636C50.575 11.7866 50.9883 11.0251 51.5388 10.4856C52.0849 9.95066 52.9445 10.7368 53.1591 11.2598C54.0906 13.53 54.5148 17.1018 54.2689 19.3903C53.9928 21.9583 52.7617 24.7617 50.5138 26.0261C47.6483 27.6376 44.2696 26.653 41.4226 25.6866C40.8149 25.4803 40.3924 25.1797 39.8582 24.8406C40.0037 25.5005 40.0697 26.1988 39.8763 26.8579C39.5691 27.9034 39.0731 29.6141 40.482 29.9297C41.0182 30.0497 41.2613 30.0324 42.0184 29.6388C41.4057 29.7784 41.0968 29.7442 40.6757 29.6658C40.294 29.5949 40.0917 29.3506 39.9851 29.0626C40.1184 29.1596 40.3358 29.2124 40.7074 29.3026C41.7519 29.5562 42.7472 29.0497 42.9418 28.3198C43.0553 27.8934 43.036 27.6695 43.2765 27.0885C43.4925 27.1556 43.716 27.217 43.9452 27.2728C43.8159 27.6978 43.6865 28.1232 43.5571 28.5481C43.2214 29.6515 41.9136 30.5412 40.7588 30.5208C39.6912 30.5017 39.0145 29.8279 38.2775 29.1673C37.7698 28.7121 37.2812 28.2766 36.7969 27.8452C35.4683 27.4229 34.4034 26.9292 33.1703 26.0094C34.0478 27.0486 34.6431 27.6238 35.8669 28.1409C35.6888 29.9702 35.0579 31.3039 34.52 33.0546C34.2766 33.8464 32.3546 37.0182 31.822 37.3275C31.4421 37.5479 29.0633 39.567 28.6157 39.8333C28.2824 40.2794 27.9899 40.8956 27.4888 41.1624C25.962 41.9759 24.9808 40.4182 24.1591 39.1025C23.7849 38.5032 22.7461 36.7769 23.6517 36.2933C24.508 35.8363 24.9875 35.5098 25.8612 34.9319C25.9895 35.1677 26.2098 35.3953 26.3533 35.6308ZM31.6614 38.4199C30.8884 39.0492 29.5885 40.163 29.3363 40.3026C28.8796 40.9894 28.8232 41.4145 28.0916 41.8135C25.9137 43.001 24.7578 41.6238 23.4686 39.6218C22.8543 38.6679 21.5111 36.49 22.9365 35.7517C23.537 35.4407 23.9921 35.2075 24.4462 34.9411C22.9509 35.128 21.4834 35.1303 19.9575 34.8989C19.9845 35.0845 20.008 35.261 20.0271 35.4229C20.1263 36.263 20.1588 36.5206 19.7059 37.1975C19.3757 37.6912 19.2485 37.834 18.8497 38.7309C18.9223 39.46 18.8908 39.8703 18.6866 40.6339C18.2328 42.3309 15.0878 41.4007 13.8064 41.0514C12.2644 40.6313 10.0611 40.2401 10.9652 38.2426C11.1771 37.7746 11.3434 37.2959 11.4686 36.8394C10.1204 37.4407 8.24671 36.1652 7.35435 35.2638C6.50558 34.4063 6.04451 33.4106 5.88387 32.4443C5.74707 31.622 5.87232 31.626 6.45473 31.0446C6.98754 30.5132 7.52017 29.9811 8.05283 29.45C8.26792 28.86 8.48341 28.2705 8.69839 27.6809C8.6146 27.2404 8.55231 26.8011 8.5152 26.366C8.36045 24.5519 8.41245 23.2601 8.66965 22.0725C7.73152 22.4413 6.65503 22.2686 6.17624 21.2653C5.99416 20.884 5.8857 20.4955 5.74818 19.9315C3.65545 17.8997 7.57717 15.2362 8.72122 15.0359C8.59043 15.4104 8.44712 15.753 8.321 16.0927C9.09688 16.4974 9.00176 17.6506 8.83702 18.393C8.55792 18.0381 8.40368 17.574 7.99318 17.5541C7.93305 18.3937 7.94344 19.3215 7.29267 19.8145C7.48532 20.3334 7.47522 20.3338 8.02274 20.1217C8.80034 19.82 9.38587 19.148 9.97489 18.4922C10.6093 17.2471 11.4224 16.1395 12.5411 15.1402C15.2901 12.6843 17.8885 11.8809 22.0725 11.209C22.6294 10.6234 23.2049 10.0584 23.8227 9.50898C24.6596 8.7648 25.2031 8.61029 25.9946 8.5687C27.3045 6.80331 28.3351 5.5739 30.4706 4.66815C34.9468 2.76967 38.0322 2.67814 41.625 5.66308C42.8123 6.64935 43.8248 7.68874 45.1297 8.5121C45.79 8.92874 46.2619 9.22823 46.7625 9.82895C47.3921 10.5849 47.9063 11.3409 48.2642 12.3139C48.7266 12.1222 49.2539 11.9415 49.6797 11.5748C50.2294 11.1015 50.5792 10.3092 51.0884 9.78916C51.7643 9.09904 53.306 9.93214 53.6474 10.5905C54.8085 12.8296 55.2835 16.9561 55.0367 19.41C54.7317 22.4434 53.4907 25.311 50.8383 26.7373C49.0349 27.7069 46.6145 27.7972 44.5431 27.4026C44.4088 27.8477 44.2751 28.2928 44.1408 28.7378C43.7381 30.0715 42.1659 31.1616 40.7924 31.227C39.4737 31.2897 38.7589 30.604 37.8941 29.7646C37.4404 29.3241 36.9863 28.884 36.5326 28.4435C36.5062 28.7436 36.4673 29.0313 36.4182 29.3098C36.7754 30.0205 36.947 30.6453 37.2527 31.3779C37.5891 32.1848 37.7528 32.7144 37.7759 33.5779C37.7962 34.3445 37.8166 35.1113 37.837 35.8778C38.1763 36.4853 38.206 36.6331 38.1566 37.3283C38.0521 38.7934 37.2513 38.9332 35.9166 38.9248C35.4719 38.9219 33.7935 38.9324 33.3657 38.9013C32.5152 38.8393 31.9545 38.7739 31.6614 38.4199ZM36.1618 30.4274C35.8933 31.3935 35.5325 32.3056 35.203 33.3509C34.8913 34.3405 33.2923 37.214 32.3511 37.9104C32.5343 38.0478 32.8705 38.1016 33.4695 38.1537C33.8933 38.1906 35.564 38.1984 35.9835 38.2057C36.907 38.2219 37.2575 38.152 37.3509 37.0923C37.3965 36.5736 37.3563 36.4767 37.0987 36.0219C37.0759 35.2109 37.0531 34.3996 37.0305 33.5886C37.009 32.8197 36.8625 32.3768 36.5624 31.6602C36.3829 31.2313 36.2854 30.8311 36.1618 30.4274ZM8.03111 17.1548C8.23843 17.1311 8.36668 17.2407 8.52703 17.4022C8.49736 17.0164 8.42662 16.7303 8.15781 16.5726C8.13896 16.6354 8.12124 16.6981 8.10451 16.7618C8.07197 16.8859 8.04874 17.0178 8.03111 17.1548ZM9.3338 19.9424C9.18456 20.3314 9.0461 20.7325 8.91574 21.1468C8.89413 21.2153 8.87341 21.2843 8.85324 21.3528C8.06463 21.6899 7.02771 21.904 6.63076 21.0689C6.438 20.6636 6.32922 20.2659 6.18864 19.7536C4.88995 18.3979 6.83128 16.6082 7.88871 15.9662C7.73569 16.2977 7.62701 16.5486 7.55282 16.8069C7.23129 17.9266 7.69836 18.9258 6.68988 19.7374C7.16382 20.7011 7.14199 21.0854 8.24466 20.6401C8.67005 20.4684 9.02082 20.2273 9.3338 19.9424ZM9.02992 29.0655C9.62768 31.1486 10.6457 33.1954 11.7742 34.9161C11.7741 34.9261 11.774 34.9359 11.7739 34.9461C11.7033 35.2419 11.6214 35.5302 11.4499 35.7616C10.6433 36.849 8.59136 35.2528 7.99745 34.6418C7.3482 33.9739 6.91364 33.1828 6.81017 32.4409C6.73494 31.8997 6.80794 31.8866 7.18267 31.5038C7.68768 30.9886 8.1932 30.4731 8.69799 29.9581C8.8085 29.6604 8.91941 29.3631 9.02992 29.0655ZM47.2268 12.3459C47.3419 12.4605 47.4348 12.597 47.4988 12.748C47.5337 12.7158 47.571 12.6852 47.61 12.6563C47.5627 12.549 47.5146 12.4432 47.4655 12.3389C47.3837 12.3407 47.3043 12.343 47.2268 12.3459ZM37.3461 16.0929C37.2409 15.8706 37.1905 15.6361 37.1887 15.4045C36.8015 15.7161 36.3806 16.0115 35.9438 16.1822C36.5469 15.6396 37.3661 14.3597 37.9596 13.9558C38.6332 13.4971 39.5474 13.5864 40.3328 13.2203C40.0647 13.4658 39.7211 13.6636 39.3712 13.8519C39.7566 13.9941 40.0897 14.2817 40.2797 14.6831C40.3598 14.8524 40.4077 15.0291 40.4271 15.206C40.9547 15.0314 41.4729 14.9487 41.9105 14.9551C40.345 15.3979 38.6798 16.4335 37.5317 17.8048C37.6607 17.4472 37.8409 17.1244 38.058 16.8362C37.7571 16.6777 37.5031 16.4243 37.3461 16.0929ZM30.0866 10.3865C29.2221 10.7264 28.4336 10.9814 27.5909 11.1947C26.822 12.2131 26.3536 12.7406 26.1766 14.1055C25.9684 12.7628 25.9251 12.5135 26.5182 11.5113C26.3463 11.5993 26.1865 11.7204 25.9574 11.9177C25.1289 12.6315 24.0488 15.4369 23.617 16.4399C23.8911 15.2327 24.7485 12.2151 25.6316 11.3356C26.2124 10.7571 26.3441 10.7703 27.1629 10.6923C28.1383 10.5991 29.1117 10.4975 30.0866 10.3865ZM48.1302 13.3137C48.8315 13.3805 49.2324 13.4896 49.8603 13.1766C51.0308 12.593 51.892 11.6402 52.4504 10.5007C52.1088 11.8602 51.4213 13.0155 49.9953 13.5279C49.295 13.7794 48.8434 13.5197 48.1302 13.3137ZM34.6715 13.4465C34.9357 12.2675 35.4048 11.1316 37.222 10.2527C34.8135 10.8604 34.3619 11.8796 34.6715 13.4465ZM3.44058 19.7959C3.64722 17.4381 4.10228 16.4203 5.7648 14.646C3.67951 16.1265 3.15914 16.7993 3.44058 19.7959Z" fill="black"/>
<path fill-rule="evenodd" clip-rule="evenodd" d="M37.6602 16.4724C37.4992 16.1332 37.6431 15.7245 37.9806 15.5627C38.3181 15.4008 38.7245 15.5455 38.8855 15.8849C38.9008 15.917 38.9129 15.9501 38.9228 15.9832C38.6006 16.2241 38.3051 16.5081 38.0574 16.837C37.8905 16.7695 37.7429 16.6466 37.6602 16.4724Z" fill="#FFFFCC"/>
<path fill-rule="evenodd" clip-rule="evenodd" d="M45.2008 13.5331C45.2277 13.2521 45.4655 13.0449 45.7443 13.0721C46.0231 13.0993 46.2289 13.3504 46.2021 13.6315C46.1964 13.6912 46.1803 13.7473 46.1563 13.799C45.901 13.8427 45.6458 13.9182 45.3828 14.0156C45.2728 13.9022 45.1853 13.6952 45.2008 13.5331Z" fill="#FFFFCC"/>
</g>
</svg>
