<svg width="140" height="31" viewBox="0 0 140 31" fill="none" xmlns="http://www.w3.org/2000/svg">
<g style="mix-blend-mode:luminosity" opacity="0.8" clip-path="url(#clip0_290_1674)">
<path d="M38.8452 1.25367H45.3022L45.3022 14.038L57.21 1.25367H65.0088L53.0593 13.662L65.5538 30.499L57.7971 30.499L48.6985 18.0491L45.3022 21.5584L45.3022 30.499H38.8452L38.8452 1.25281V1.25367Z" fill="#231F20"/>
<path d="M62.1208 19.4273V19.3441C62.1209 12.9101 67.3202 7.6875 74.3222 7.6875C81.2824 7.6875 86.4397 12.8263 86.4397 19.2603V19.3439C86.4397 25.7778 81.2404 30.9999 74.2383 30.9999C67.2781 30.9999 62.1208 25.8613 62.1208 19.4273ZM80.1503 19.4273V19.3441C80.1503 16.0434 77.7604 13.1607 74.2383 13.1607C70.5906 13.1607 68.4102 15.9598 68.4102 19.2605V19.3442C68.4102 22.6445 70.8001 25.5272 74.3222 25.5272C77.9699 25.5272 80.1503 22.7281 80.1503 19.4273Z" fill="#231F20"/>
<path d="M88.1996 24.1486V13.5368H85.5161V8.10552H88.1996L88.1996 2.38171H94.5727V8.10552H99.8556V13.5368H94.5727V23.1044C94.5727 24.5663 95.2016 25.2769 96.6272 25.2769C97.8013 25.2769 98.8495 24.9844 99.7717 24.4828V29.58C98.43 30.3738 96.8787 30.8751 94.7404 30.8751C90.8411 30.8751 88.1996 29.3291 88.1996 24.1486Z" fill="#231F20"/>
<path d="M101.687 0.00012207H108.06L108.06 30.4978H101.687L101.687 0.00012207Z" fill="#231F20"/>
<path d="M110.363 0.00012207H117.072V5.6404H110.363V0.00012207ZM110.531 8.10519H116.904L116.904 30.4987L110.531 30.4987L110.531 8.10519Z" fill="#231F20"/>
<path d="M119.328 8.10514H125.701V11.2803C127.169 9.40028 129.056 7.6875 132.284 7.6875C137.106 7.6875 139.915 10.8627 139.915 16.0015V30.4986L133.542 30.4986V18.0068C133.542 14.9989 132.116 13.4529 129.684 13.4529C127.252 13.4529 125.701 14.9989 125.701 18.0068L125.701 30.4986H119.328L119.328 8.10514L119.328 8.10514Z" fill="#231F20"/>
<path d="M14.7808 1.23889L0.0476074 16.6776V30.4777L14.7598 15.7938L29.3938 1.23889H14.7808Z" fill="url(#paint0_linear_290_1674)"/>
<path d="M0.0476074 30.4777L14.7598 15.7937L29.3938 30.4777H0.0476074Z" fill="url(#paint1_linear_290_1674)"/>
<path d="M0.0476074 1.23889H14.7811L0.0476074 16.6776V1.23889Z" fill="url(#paint2_linear_290_1674)"/>
</g>
<defs>
<linearGradient id="paint0_linear_290_1674" x1="-3.27831" y1="26.5135" x2="20.167" y2="2.98384" gradientUnits="userSpaceOnUse">
<stop offset="0.10753" stop-color="#C757BC"/>
<stop offset="0.21383" stop-color="#D0609A"/>
<stop offset="0.42537" stop-color="#E1725C"/>
<stop offset="0.60485" stop-color="#EE7E2F"/>
<stop offset="0.74303" stop-color="#F58613"/>
<stop offset="0.82323" stop-color="#F88909"/>
</linearGradient>
<linearGradient id="paint1_linear_290_1674" x1="10.3976" y1="34.7746" x2="22.7487" y2="22.3781" gradientUnits="userSpaceOnUse">
<stop offset="0.09677" stop-color="#0095D5"/>
<stop offset="0.30073" stop-color="#238AD9"/>
<stop offset="0.62106" stop-color="#557BDE"/>
<stop offset="0.86432" stop-color="#7472E2"/>
<stop offset="1" stop-color="#806EE3"/>
</linearGradient>
<linearGradient id="paint2_linear_290_1674" x1="-1.29833" y1="10.2993" x2="9.49724" y2="-0.534958" gradientUnits="userSpaceOnUse">
<stop offset="0.09677" stop-color="#0095D5"/>
<stop offset="0.30073" stop-color="#238AD9"/>
<stop offset="0.62106" stop-color="#557BDE"/>
<stop offset="0.86432" stop-color="#7472E2"/>
<stop offset="1" stop-color="#806EE3"/>
</linearGradient>
<clipPath id="clip0_290_1674">
<rect width="140" height="31" fill="white" transform="translate(-0.000488281 0.00012207)"/>
</clipPath>
</defs>
</svg>
