<svg width="148" height="44" viewBox="0 0 148 44" fill="none" xmlns="http://www.w3.org/2000/svg">
<g style="mix-blend-mode:luminosity" opacity="0.8" clip-path="url(#clip0_290_1710)">
<path d="M26.0303 41.3357C33.0549 40.0758 38.8568 39.0331 38.9234 39.0188L39.0446 38.9927L32.4127 30.9831C28.7652 26.5778 25.7808 22.9564 25.7808 22.9356C25.7808 22.896 32.6288 3.74854 32.6673 3.68042C32.6802 3.65764 37.3404 11.827 43.9641 23.4836C50.1653 34.3966 55.2779 43.3945 55.3254 43.4788L55.4118 43.6321L34.3351 43.6293L13.2583 43.6266L26.0303 41.3357ZM106.857 39.3986C103.649 39.1898 101.783 37.3349 101.288 33.8629C101.157 32.9392 101.156 32.9153 101.143 26.9192L101.13 21.116H102.55H103.97L103.981 26.7292C103.991 31.7882 103.997 32.3814 104.045 32.7373C104.238 34.1816 104.623 35.1529 105.278 35.85C105.803 36.408 106.417 36.7347 107.267 36.908C107.667 36.9898 108.808 36.99 109.174 36.9084C110.035 36.7159 110.726 36.3352 111.335 35.7169C112.029 35.0122 112.543 34.0124 112.791 32.8818L112.875 32.5008L112.884 26.8401L112.894 21.1794H114.343H115.793V30.0782V38.9769H114.358H112.924V37.5651C112.924 36.6057 112.913 36.1567 112.891 36.1641C112.873 36.1701 112.8 36.2846 112.727 36.4185C112.233 37.334 111.409 38.1712 110.507 38.6756C109.425 39.2802 108.34 39.4952 106.857 39.3986ZM139.422 39.3843C138.289 39.2978 137.097 38.9025 136.122 38.2903C134.068 37.0001 132.852 34.8733 132.496 31.9465C132.373 30.9337 132.358 29.5733 132.461 28.7127C132.691 26.7898 133.435 24.9021 134.495 23.5545C134.766 23.209 135.383 22.5832 135.723 22.3074C136.642 21.5626 137.716 21.0417 138.857 20.7883C139.522 20.6406 140.693 20.5713 141.399 20.6377C143.174 20.8047 144.8 21.653 145.905 22.9881C147.028 24.3445 147.645 26.2399 147.724 28.5739C147.737 28.9396 147.74 29.5809 147.731 29.9989L147.715 30.759L141.501 30.767L135.286 30.775V31.0565C135.286 31.9137 135.491 32.89 135.846 33.7207C136.152 34.437 136.679 35.2192 137.11 35.5977C137.994 36.3739 139.077 36.8385 140.261 36.9503C140.7 36.9917 141.819 36.9481 142.319 36.87C143.747 36.6472 145.104 36.0787 146.2 35.2443C146.329 35.1462 146.453 35.0544 146.475 35.0405C146.507 35.0201 146.514 35.2766 146.513 36.3547L146.512 37.6943L146.219 37.8787C144.979 38.6574 143.558 39.1573 142.054 39.3445C141.605 39.4003 139.958 39.4252 139.422 39.3843ZM144.83 28.0864C144.83 26.6505 144.234 25.0555 143.391 24.2341C142.789 23.648 142.061 23.2898 141.197 23.1538C140.787 23.0894 139.925 23.1142 139.494 23.2027C138.582 23.3898 137.827 23.7969 137.169 24.457C136.477 25.1517 135.958 25.9955 135.631 26.9569C135.514 27.3027 135.376 27.8702 135.334 28.1859L135.314 28.3364H140.072H144.83V28.0864ZM60.5321 38.9373C60.5394 38.9155 62.6497 33.2865 65.2217 26.4285L69.8979 13.9592L71.4005 13.9591L72.903 13.959L73.0276 14.2836C73.4086 15.2756 82.3892 38.9498 82.3892 38.9621C82.3892 38.9702 81.6699 38.9768 80.7908 38.9766L79.1923 38.9763L77.898 35.4773L76.6036 31.9782L71.392 31.9782L66.1803 31.9781L66.135 32.0969C66.1101 32.1622 65.5571 33.7366 64.9061 35.5956L63.7225 38.9757L62.1207 38.9762C60.8528 38.9767 60.5217 38.9686 60.5321 38.9373ZM75.6524 29.308C75.6524 29.3024 74.7813 26.9048 73.7167 23.9798C71.725 18.5077 71.6136 18.1785 71.4562 17.3C71.3824 16.8881 71.3451 16.8766 71.3013 17.2525C71.27 17.5212 71.1342 18.1224 71.0296 18.4559C70.9776 18.6214 70.0807 21.1208 69.0364 24.0103C67.9921 26.8998 67.1377 29.2761 67.1377 29.291C67.1377 29.3059 69.0535 29.3181 71.395 29.3181C73.7366 29.3181 75.6524 29.3135 75.6524 29.308ZM83.3561 38.5211V38.0654L88.5485 30.8179L93.7409 23.5703L89.0397 23.5545L84.3386 23.5386L84.3304 22.3273L84.3222 21.116H91.1219H97.9215V21.5251V21.9343L92.7285 29.2214C89.8723 33.2293 87.5355 36.5152 87.5355 36.5234C87.5355 36.5317 89.8442 36.5384 92.6661 36.5384H97.7967V37.7576V38.9769H90.5764H83.3561V38.5211ZM121.459 38.9557C121.448 38.9441 121.438 34.9254 121.438 30.0253V21.116H122.857H124.276V22.9528C124.276 23.963 124.288 24.7895 124.303 24.7895C124.318 24.7895 124.387 24.6242 124.457 24.4221C124.776 23.4959 125.329 22.6305 126.042 21.9428C126.684 21.3232 127.418 20.9527 128.284 20.8109C128.527 20.771 128.733 20.7634 129.22 20.7763C129.831 20.7925 130.15 20.8378 130.522 20.9612L130.639 21V22.4956V23.9912L130.304 23.8208C129.711 23.5198 129.127 23.4007 128.425 23.4378C127.967 23.4619 127.667 23.5215 127.302 23.6608C126.55 23.9474 125.94 24.4532 125.513 25.1437C124.896 26.1433 124.456 27.4282 124.326 28.6091C124.303 28.821 124.289 30.547 124.284 33.9495L124.276 38.9769H122.878C122.109 38.9769 121.47 38.9674 121.459 38.9557ZM0.73584 38.8932C0.73584 38.8819 3.86077 33.374 7.68012 26.6534L14.6244 14.434L22.7171 7.53828C27.1681 3.74562 30.8219 0.637904 30.8365 0.632236C30.8512 0.626569 30.7926 0.776201 30.7064 0.964752C30.6202 1.1533 26.6658 9.76535 21.9188 20.1026L13.288 38.8977L7.01191 38.9057C3.56007 38.9101 0.73584 38.9044 0.73584 38.8932Z" fill="#0089D6"/>
</g>
<defs>
<clipPath id="clip0_290_1710">
<rect width="147" height="43" fill="white" transform="translate(0.73584 0.63208)"/>
</clipPath>
</defs>
</svg>
