<svg width="81" height="78" viewBox="0 0 81 78" fill="none" xmlns="http://www.w3.org/2000/svg">
<g style="mix-blend-mode:luminosity" opacity="0.8">
<path fill-rule="evenodd" clip-rule="evenodd" d="M46.9434 1.77747C46.3895 1.77747 45.8751 1.89428 45.4003 2.05001C46.4092 2.71192 46.9632 3.58797 47.2401 4.58082C47.26 4.71709 47.2995 4.81443 47.3193 4.9507C47.3391 5.06751 47.3588 5.18432 47.3588 5.30113C47.438 7.01428 46.9038 7.22843 46.5279 8.24075C45.9542 9.54509 46.1125 10.9468 46.8049 12.0759C46.8643 12.2122 46.9434 12.3679 47.0423 12.5042C46.2906 7.57885 50.4647 6.83907 51.2362 5.30113C51.2956 3.95785 50.168 3.06234 49.2778 2.43937C48.4271 1.93321 47.6556 1.77747 46.9434 1.77747ZM53.2343 2.88713C53.1551 3.33488 53.2145 3.21808 53.1948 3.45169C53.175 3.60743 53.175 3.80211 53.1552 3.95785C53.1157 4.11359 53.0761 4.26933 53.0167 4.42508C52.9772 4.58082 52.9178 4.73656 52.8585 4.8923C52.7793 5.04805 52.72 5.18432 52.6409 5.34006C52.5815 5.41796 52.542 5.4958 52.4826 5.57367C52.4431 5.63208 52.4035 5.69048 52.3639 5.74888C52.265 5.88516 52.1661 6.02143 52.0672 6.13824C51.9485 6.25505 51.8496 6.39131 51.7111 6.48866V6.50815C51.5924 6.60549 51.4737 6.7223 51.3352 6.81963C50.9198 7.13111 50.445 7.36473 50.0098 7.65675C49.8713 7.75408 49.7328 7.83196 49.6141 7.94876C49.4756 8.0461 49.3569 8.14344 49.2382 8.26025C49.0998 8.37705 49.0009 8.49386 48.8821 8.63014C48.7832 8.74695 48.6645 8.88321 48.5854 9.01949C48.4865 9.15576 48.3876 9.29204 48.3085 9.42831C48.2293 9.58405 48.17 9.72033 48.0908 9.87606C48.0315 10.0318 47.9721 10.1681 47.9326 10.3238C47.8732 10.499 47.8337 10.6548 47.7941 10.8105C47.7743 10.8884 47.7743 10.9857 47.7546 11.0636C47.7347 11.1415 47.7347 11.2193 47.715 11.2972C47.715 11.453 47.6952 11.6282 47.6952 11.7839C47.6952 11.9007 47.6952 12.0175 47.715 12.1343C47.715 12.2901 47.7348 12.4458 47.7744 12.621C47.7942 12.7768 47.8337 12.9325 47.8733 13.0882C47.9326 13.244 47.9722 13.3997 48.0316 13.5555C48.0711 13.6528 48.1305 13.7501 48.17 13.828L43.62 12.0954C42.8485 11.8812 42.0967 11.6866 41.3252 11.5114C40.9098 11.414 40.4943 11.3167 40.0789 11.2193C38.8919 10.9857 37.6852 10.8105 36.4784 10.6937C36.4389 10.6937 36.4191 10.6742 36.3795 10.6742C35.1926 10.5574 34.0254 10.499 32.8384 10.499C31.968 10.499 31.0975 10.5379 30.2469 10.5963C29.0401 10.6743 27.8334 10.83 26.6266 11.0246C26.3299 11.0635 26.0331 11.122 25.7364 11.1804C25.1231 11.2972 24.5297 11.4335 23.956 11.5697C23.6592 11.6476 23.3625 11.7255 23.0657 11.8033C22.769 11.9202 22.492 12.0564 22.2151 12.1732C21.9975 12.2706 21.7798 12.3679 21.5622 12.4653C21.5227 12.4847 21.4831 12.4847 21.4633 12.5042C21.2655 12.6015 21.0874 12.6794 20.9094 12.7767C20.8501 12.7962 20.8105 12.8156 20.7709 12.8351C20.5533 12.9324 20.3357 13.0493 20.1577 13.1466C20.0192 13.205 19.8807 13.2829 19.762 13.3413C19.7027 13.3802 19.6235 13.4192 19.584 13.4386C19.4059 13.5359 19.2279 13.6333 19.0696 13.7306C18.8916 13.828 18.7333 13.9253 18.5948 14.0226C18.4563 14.12 18.3179 14.1978 18.1992 14.2952C18.1793 14.3147 18.1596 14.3147 18.1398 14.3341C18.0211 14.412 17.8826 14.5093 17.764 14.6066C17.764 14.6066 17.7441 14.6261 17.7244 14.6456C17.6255 14.7235 17.5266 14.8013 17.4277 14.8792C17.3881 14.8987 17.3485 14.9376 17.309 14.9571C17.2101 15.035 17.1112 15.1323 17.0122 15.2101C16.9924 15.2491 16.9529 15.2685 16.9331 15.288C16.8144 15.4049 16.6957 15.5022 16.577 15.619C16.5572 15.619 16.5572 15.6385 16.5375 15.6579C16.4188 15.7552 16.3001 15.872 16.1814 15.9889C16.1615 16.0083 16.1615 16.0278 16.1418 16.0278C16.0429 16.1251 15.944 16.2224 15.8451 16.3392C15.8055 16.3781 15.7462 16.4171 15.7066 16.456C15.6077 16.5729 15.489 16.6897 15.3703 16.8065C15.3505 16.8454 15.311 16.8649 15.2911 16.9038C15.1329 17.0596 14.9944 17.2153 14.8361 17.371C14.8163 17.3905 14.7966 17.4099 14.7768 17.4294C14.4603 17.7604 14.124 18.0913 13.7679 18.3834C13.4118 18.6948 13.0359 18.9868 12.66 19.2399C12.2644 19.5125 11.8885 19.7461 11.4731 19.9797C11.0774 20.1938 10.662 20.3885 10.2268 20.5637C9.81131 20.7389 9.37609 20.8947 8.94088 21.031C8.10999 21.2062 7.25934 21.5371 6.52738 21.5955C6.36912 21.5955 6.19107 21.6344 6.03281 21.6539C5.85476 21.6928 5.6965 21.7318 5.53824 21.7707C5.37998 21.8291 5.22171 21.8875 5.06345 21.9459C4.90519 22.0043 4.74693 22.0822 4.58867 22.1601C4.45019 22.2574 4.29193 22.3353 4.15345 22.4326C4.01497 22.53 3.87649 22.6468 3.75779 22.7636C3.61932 22.8609 3.48083 22.9972 3.36214 23.114C3.24344 23.2503 3.12474 23.3671 3.02583 23.5034C2.92692 23.6591 2.80822 23.7954 2.72909 23.9511C2.63018 24.0874 2.53126 24.2431 2.45213 24.3989C2.37297 24.5741 2.29387 24.7298 2.23452 24.905C2.17517 25.0608 2.11582 25.236 2.05647 25.4112C2.01694 25.5669 1.97731 25.7227 1.95756 25.8784C1.95756 25.8979 1.93775 25.9173 1.93775 25.9368C1.89822 26.112 1.89822 26.3457 1.8784 26.4625C1.85859 26.5987 1.83887 26.7155 1.83887 26.8518C1.83887 26.9297 1.83887 27.027 1.85868 27.1049C1.87849 27.2412 1.89821 27.358 1.93784 27.4748C1.97738 27.5916 2.01701 27.7084 2.07632 27.8252V27.8447C2.13567 27.9615 2.2148 28.0783 2.29393 28.1951C2.37309 28.3119 2.4522 28.4287 2.55111 28.5455C2.65002 28.6429 2.76872 28.7597 2.88741 28.857C3.00611 28.9738 3.12481 29.0712 3.26328 29.1685C3.73807 29.5773 3.85677 29.7136 4.47003 30.0251C4.56894 30.0835 4.66786 30.1224 4.78656 30.1808C4.80638 30.1808 4.8261 30.2003 4.84591 30.2003C4.84591 30.2392 4.84591 30.2587 4.86573 30.2977C4.88554 30.4534 4.92507 30.6091 4.96464 30.7649C5.00417 30.9401 5.06356 31.0958 5.12291 31.2321C5.18226 31.3489 5.22182 31.4657 5.28117 31.5825C5.30098 31.6214 5.3207 31.6604 5.34052 31.6799C5.41968 31.8356 5.49878 31.9719 5.5779 32.1082C5.67682 32.2444 5.77573 32.3807 5.87464 32.517C5.97356 32.6338 6.09225 32.7701 6.21095 32.8869C6.32965 33.0037 6.44835 33.101 6.58683 33.2178C6.58683 33.2178 6.60665 33.2373 6.62636 33.2373C6.74506 33.3347 6.86376 33.432 6.98246 33.5099C7.12093 33.6072 7.25941 33.6851 7.41767 33.763C7.55616 33.8409 7.71442 33.9187 7.87268 33.9771C7.99137 34.0355 8.12985 34.0745 8.26833 34.1134C8.28815 34.1329 8.30787 34.1329 8.34749 34.1523C8.42666 34.1718 8.52553 34.1912 8.60466 34.2107C8.54532 35.262 8.5255 36.2548 8.68383 36.6052C8.86186 36.9946 9.73231 35.8071 10.6028 34.4443C10.4841 35.7876 10.4049 37.3645 10.6028 37.8317C10.8204 38.3184 12.0073 36.7999 13.036 35.1257C27.062 31.933 39.8614 41.4722 41.2067 54.9438C40.9495 52.8413 38.3184 51.6732 37.1116 51.9653C36.5182 53.4059 35.5092 55.2553 33.8871 56.4039C34.0255 55.119 33.9662 53.7952 33.6892 52.5104C33.254 54.3014 32.4033 55.9756 31.2362 57.4162C29.3568 57.5525 27.4774 56.657 26.4883 55.3137C26.4091 55.2553 26.3894 55.1385 26.33 55.0606C26.2707 54.9243 26.2113 54.7881 26.1718 54.6518C26.1124 54.5155 26.0729 54.3793 26.0531 54.243C26.0333 54.1067 26.0333 53.9704 26.0333 53.8147C26.0333 53.7174 26.0333 53.62 26.0333 53.5227C26.0531 53.3864 26.0926 53.2501 26.1322 53.1139C26.1717 52.9776 26.2113 52.8413 26.2707 52.705C26.3498 52.5688 26.4091 52.4325 26.508 52.2962C26.8444 51.3618 26.8444 50.6025 26.2311 50.1548C26.1124 50.0769 25.9937 50.0185 25.8552 49.9601C25.776 49.9406 25.6772 49.9017 25.598 49.8822C25.5387 49.8627 25.4991 49.8433 25.4398 49.8238C25.3013 49.7849 25.1628 49.7459 25.0243 49.7264C24.8859 49.6875 24.7474 49.668 24.6089 49.668C24.4704 49.6485 24.3122 49.6291 24.1737 49.6291C24.0748 49.6291 23.9758 49.6486 23.8769 49.6486C23.7187 49.6486 23.5802 49.6681 23.4417 49.707C23.3032 49.7266 23.1648 49.7459 23.0263 49.7849C22.8878 49.8238 22.7493 49.8628 22.6108 49.9212C22.4724 49.9796 22.3537 50.038 22.2152 50.0964C22.0965 50.1548 21.9778 50.2327 21.8393 50.2911C17.2299 53.2502 19.9797 60.1807 23.1252 62.1859C21.9382 62.4 20.7315 62.6531 20.3952 62.9062C20.3754 62.9257 20.3556 62.9451 20.3556 62.9451C21.2063 63.4512 22.0965 63.8795 23.0263 64.2494C24.2924 64.6582 25.6376 65.0281 26.2311 65.1839V65.2034C27.8731 65.5343 29.5348 65.6511 31.2164 65.5538C39.9801 64.9503 47.1613 58.3897 48.4669 49.746C48.5065 49.9212 48.5461 50.0769 48.5856 50.2522C48.645 50.6026 48.7241 50.9725 48.7637 51.3423V51.3619C48.8032 51.5371 48.823 51.7123 48.8428 51.868V51.9459C48.8627 52.1211 48.8824 52.2963 48.8824 52.4521C48.9022 52.6662 48.9219 52.8804 48.9219 53.0945V53.406C48.9219 53.5033 48.9417 53.6201 48.9417 53.7175C48.9417 53.8343 48.9219 53.9511 48.9219 54.0679V54.3405C48.9219 54.4767 48.9021 54.5935 48.9021 54.7298C48.9021 54.8077 48.9021 54.8856 48.8823 54.9829C48.8823 55.1192 48.8625 55.2554 48.8625 55.4112C48.8426 55.4696 48.8426 55.528 48.8426 55.5864C48.8228 55.7421 48.8031 55.8784 48.7833 56.0342C48.7833 56.0926 48.7833 56.151 48.7635 56.2094C48.7436 56.404 48.7041 56.5793 48.6843 56.7739V56.7934V56.8129C48.6448 56.9881 48.6051 57.1828 48.5656 57.358V57.4164C48.5261 57.5916 48.4864 57.7669 48.4469 57.9421C48.4469 57.9616 48.4271 58.0005 48.4271 58.02C48.3876 58.1952 48.3479 58.3704 48.2886 58.5456V58.604C48.2293 58.7987 48.1699 58.9739 48.1304 59.1491C48.1105 59.1686 48.1105 59.188 48.1105 59.188C48.0512 59.3827 47.9919 59.5773 47.9325 59.772C47.8533 59.9667 47.794 60.1419 47.7149 60.3366C47.6357 60.5313 47.5764 60.7259 47.4973 60.9011C47.4181 61.0958 47.339 61.271 47.2599 61.4657H47.2401C47.1609 61.6409 47.0818 61.8356 46.9829 62.0108C46.9631 62.0692 46.9433 62.1082 46.9235 62.1471C46.9037 62.1666 46.9037 62.186 46.884 62.2055C45.5981 64.7558 43.699 66.9945 41.325 68.7467C41.1668 68.844 41.0085 68.9608 40.8503 69.0776C40.8107 69.1165 40.7513 69.136 40.7118 69.1749C40.5733 69.2723 40.4348 69.3696 40.2766 69.467L40.3359 69.5838H40.3557C40.6327 69.5449 40.9096 69.5059 41.1866 69.467H41.2064C41.7208 69.3891 42.2351 69.2917 42.7495 69.1944C42.8879 69.1749 43.0462 69.136 43.1847 69.0971C43.2836 69.0775 43.3627 69.0582 43.4616 69.0387C43.6001 69.0191 43.7386 68.9802 43.8771 68.9608C43.9958 68.9219 44.1145 68.9024 44.2332 68.8634C46.2114 68.3962 48.1304 67.7537 49.9701 66.9945C46.8247 71.219 42.611 74.6259 37.6851 76.8646C39.9601 76.7089 42.2351 76.339 44.431 75.7161C52.4034 73.3994 59.1098 68.1236 63.1257 61.0179C62.3146 65.515 60.4946 69.7979 57.8041 73.5357C59.723 72.2897 61.4837 70.8491 63.0861 69.2138C67.5174 64.6584 70.4255 58.8765 71.4146 52.6663C72.0873 55.7422 72.2851 58.9154 71.9884 62.0497C86.2715 42.4457 73.1753 22.1214 67.6955 16.7678C67.6757 16.7289 67.656 16.7094 67.656 16.6704C67.6361 16.6899 67.6361 16.6899 67.6361 16.7094C67.6361 16.6899 67.6361 16.6899 67.6163 16.6704C67.6163 16.9041 67.5965 17.1377 67.5768 17.3713C67.5174 17.819 67.4581 18.2473 67.379 18.6756C67.28 19.1039 67.1613 19.5322 67.0426 19.9605C66.9042 20.3693 66.7459 20.7976 66.5679 21.2064C66.3898 21.5958 66.192 22.0046 65.9744 22.394C65.7568 22.7638 65.5194 23.1532 65.2622 23.5036C65.005 23.8735 64.7281 24.2239 64.4511 24.5549C64.1544 24.9053 63.8378 25.2168 63.5213 25.5283C63.3235 25.7035 63.1455 25.8592 62.9476 26.0149C62.7894 26.1512 62.6509 26.268 62.4926 26.4043C62.1365 26.6768 61.7804 26.9299 61.3848 27.1635C61.0089 27.3972 60.6133 27.6308 60.2176 27.8255C59.8022 28.0201 59.3867 28.1953 58.9713 28.3705C58.5559 28.5263 58.1206 28.6626 57.6854 28.7794C57.2502 28.8962 56.7952 28.9935 56.36 29.0714C55.905 29.1493 55.45 29.1882 55.0147 29.2271C54.6982 29.2466 54.3817 29.266 54.0652 29.266C53.6102 29.266 53.1552 29.2271 52.7199 29.1881C52.2649 29.1492 51.8099 29.0908 51.3747 28.9935C50.9197 28.9155 50.4845 28.7988 50.0493 28.6625H50.0295C50.4647 28.6236 50.8999 28.5846 51.3351 28.5068C51.7901 28.4289 52.2253 28.3316 52.6606 28.2147C53.0958 28.0979 53.531 27.9617 53.9464 27.8059C54.3817 27.6502 54.7971 27.4555 55.1928 27.2608C55.6082 27.0661 55.9841 26.852 56.3797 26.6184C56.7556 26.3653 57.1315 26.1122 57.4876 25.8397C57.8436 25.5671 58.1799 25.2751 58.4965 24.9636C58.8328 24.6716 59.1295 24.3407 59.4263 24.0097C59.723 23.6593 60 23.3089 60.2571 22.9585C60.2967 22.9 60.3363 22.8222 60.3758 22.7638C60.5737 22.4523 60.7715 22.1408 60.9495 21.8293C61.1671 21.44 61.365 21.0506 61.543 20.6418C61.7211 20.233 61.8793 19.8241 62.0178 19.3959C62.1563 18.987 62.2552 18.5588 62.3541 18.1305C62.4333 17.6827 62.5124 17.2544 62.5519 16.8261C62.5915 16.3784 62.6311 15.9306 62.6311 15.5023C62.6311 15.1908 62.6113 14.8794 62.5916 14.5679C62.552 14.1201 62.4927 13.6918 62.4333 13.2635C62.3541 12.8158 62.2553 12.3875 62.1366 11.9592C61.9981 11.5504 61.8596 11.1221 61.7013 10.7133C61.5431 10.3044 61.3453 9.89561 61.1474 9.50626C60.9298 9.1169 60.7122 8.72755 60.4748 8.35767C60.2176 7.98778 59.9605 7.63736 59.6835 7.28694C59.3868 6.95599 59.09 6.62504 58.7735 6.29409C58.6152 6.13835 58.4372 5.96314 58.2591 5.8074C57.3689 5.12602 56.4391 4.48358 55.5093 3.89956C55.3709 3.82166 55.2522 3.76328 55.1137 3.70487C54.4609 3.29606 53.8476 3.0818 53.2343 2.88713Z" fill="#E0234E"/>
</g>
</svg>
