<svg width="80" height="80" viewBox="0 0 80 80" fill="none" xmlns="http://www.w3.org/2000/svg">
<g style="mix-blend-mode:luminosity" opacity="0.8" clip-path="url(#clip0_290_1577)">
<path d="M39.9998 80.0001C62.0911 80.0001 79.9998 62.0915 79.9998 40.0001C79.9998 17.9087 62.0911 0.00012207 39.9998 0.00012207C17.9084 0.00012207 -0.000244141 17.9087 -0.000244141 40.0001C-0.000244141 62.0915 17.9084 80.0001 39.9998 80.0001Z" fill="#5C2D91"/>
<path opacity="0.1" d="M12.2746 11.2501C8.20835 14.8736 4.92489 19.2894 2.62554 24.2268C0.326189 29.1642 -0.940618 34.5191 -1.09723 39.9634C-1.25384 45.4076 -0.296955 50.8265 1.71477 55.8879C3.7265 60.9493 6.75069 65.5465 10.602 69.3978C14.4532 73.2491 19.0505 76.2733 24.1118 78.285C29.1732 80.2967 34.5921 81.2536 40.0364 81.097C45.4807 80.9404 50.8356 79.6736 55.773 77.3742C60.7104 75.0749 65.1261 71.7914 68.7496 67.7251L12.2746 11.2501Z" fill="white"/>
<path d="M9.24971 46.5626C9.01638 46.5663 8.78482 46.5215 8.56967 46.4312C8.35452 46.3408 8.16044 46.2068 7.99971 46.0376C7.83457 45.8745 7.70406 45.6797 7.616 45.4649C7.52794 45.2501 7.48413 45.0197 7.48721 44.7876C7.48554 44.5557 7.52999 44.3258 7.61798 44.1112C7.70596 43.8966 7.83572 43.7016 7.99971 43.5376C8.15886 43.3656 8.35236 43.2288 8.56768 43.1362C8.78299 43.0436 9.01535 42.9973 9.24971 43.0001C9.48374 42.9996 9.71539 43.0469 9.93039 43.1394C10.1454 43.2318 10.3391 43.3674 10.4997 43.5376C10.6665 43.7002 10.799 43.8946 10.8892 44.1093C10.9794 44.324 11.0254 44.5547 11.0247 44.7876C11.0269 45.0207 10.9815 45.2518 10.8912 45.4668C10.8009 45.6817 10.6677 45.876 10.4997 46.0376C10.3376 46.205 10.1433 46.3378 9.92845 46.4281C9.71362 46.5183 9.48272 46.5641 9.24971 46.5626Z" fill="white"/>
<path d="M34.0873 46.2501H30.8123L19.0998 28.0751C18.8081 27.6273 18.565 27.1496 18.3748 26.6501H18.2748C18.3861 27.6879 18.4279 28.7319 18.3998 29.7751V46.2501H15.7373V23.4626H19.1998L30.5998 41.3126C31.0748 42.0543 31.3831 42.5626 31.5248 42.8376H31.5873C31.4554 41.7261 31.4011 40.6067 31.4248 39.4876V23.4626H34.0873V46.2501Z" fill="white"/>
<path d="M52.1123 46.2501H39.9998V23.4626H51.5498V25.8751H42.7248V33.4501H50.9498V35.8501H42.7248V43.7501H52.1248L52.1123 46.2501Z" fill="white"/>
<path d="M69.9999 25.8751H63.3749V46.2501H60.7124V25.8751H54.1624V23.4626H69.9999V25.8751Z" fill="white"/>
<path d="M32.6498 61.7501C31.7474 62.1872 30.7519 62.3974 29.7498 62.3626C29.0839 62.3926 28.4193 62.2799 27.8005 62.0319C27.1818 61.784 26.6232 61.4066 26.1623 60.9251C25.2438 59.897 24.7599 58.5527 24.8123 57.1751C24.7787 56.4292 24.8952 55.6841 25.155 54.9841C25.4149 54.2841 25.8126 53.6434 26.3248 53.1001C26.8239 52.5888 27.4239 52.187 28.0867 51.9201C28.7496 51.6533 29.4606 51.5273 30.1748 51.5501C31.0295 51.5209 31.8808 51.6699 32.6748 51.9876V53.2376C31.9104 52.8144 31.0484 52.5989 30.1748 52.6126C29.624 52.5971 29.0764 52.7008 28.5694 52.9165C28.0624 53.1322 27.608 53.455 27.2373 53.8626C26.4577 54.7507 26.0543 55.9073 26.1123 57.0876C26.0539 58.2057 26.4302 59.303 27.1623 60.1501C27.5135 60.5277 27.9422 60.8249 28.419 61.0213C28.8959 61.2176 29.4095 61.3085 29.9248 61.2876C30.8846 61.3127 31.8324 61.0704 32.6623 60.5876L32.6498 61.7501Z" fill="#F2F2F2"/>
<path d="M37.7623 62.3626C37.2647 62.3787 36.7695 62.2877 36.3101 62.0957C35.8508 61.9038 35.438 61.6154 35.0998 61.2501C34.4163 60.4873 34.0614 59.4855 34.1123 58.4626C34.0811 57.9266 34.1568 57.3898 34.3349 56.8834C34.513 56.377 34.79 55.911 35.1498 55.5126C35.517 55.1542 35.9539 54.875 36.4334 54.6922C36.9128 54.5095 37.4247 54.427 37.9373 54.4501C38.4219 54.4243 38.9062 54.5036 39.3572 54.6827C39.8081 54.8618 40.215 55.1364 40.5498 55.4876C41.2142 56.2882 41.5493 57.3115 41.4873 58.3501C41.5398 59.4041 41.1762 60.4365 40.4748 61.2251C40.1302 61.5975 39.7098 61.8917 39.2419 62.088C38.774 62.2842 38.2695 62.3778 37.7623 62.3626ZM37.8498 55.5251C37.506 55.5106 37.1633 55.5739 36.8473 55.7102C36.5313 55.8466 36.2502 56.0525 36.0248 56.3126C35.5438 56.9319 35.304 57.7047 35.3498 58.4876C35.3062 59.2471 35.5468 59.9957 36.0248 60.5876C36.2525 60.844 36.5344 61.0465 36.85 61.1806C37.1657 61.3146 37.5072 61.3768 37.8498 61.3626C38.1853 61.3824 38.5208 61.3251 38.8306 61.1951C39.1405 61.065 39.4164 60.8658 39.6373 60.6126C40.0918 59.9916 40.313 59.2304 40.2623 58.4626C40.3117 57.691 40.0907 56.9263 39.6373 56.3001C39.4195 56.0416 39.1448 55.837 38.8346 55.7026C38.5245 55.5681 38.1874 55.5074 37.8498 55.5251Z" fill="#F2F2F2"/>
<path d="M47.3247 55.9001C47.0547 55.7233 46.7341 55.6398 46.4122 55.6626C46.1603 55.6718 45.9146 55.7427 45.6967 55.8691C45.4787 55.9956 45.2952 56.1736 45.1622 56.3876C44.7901 56.9767 44.611 57.667 44.6497 58.3626V62.1876H43.3997V54.6876H44.6497V56.2501C44.7871 55.7667 45.0604 55.3328 45.4372 55.0001C45.7632 54.7172 46.1805 54.5618 46.6122 54.5626C46.8538 54.5518 47.0953 54.5857 47.3247 54.6626V55.9001Z" fill="#F2F2F2"/>
<path d="M54.6497 58.7502H49.3622C49.3267 59.4489 49.5542 60.1357 49.9997 60.6752C50.2314 60.9062 50.5093 61.0858 50.8152 61.2021C51.121 61.3185 51.448 61.3689 51.7747 61.3502C52.6221 61.3417 53.4416 61.0465 54.0997 60.5127V61.6377C53.3269 62.1471 52.4117 62.3967 51.4872 62.3502C51.0208 62.3737 50.5549 62.294 50.1227 62.1169C49.6906 61.9397 49.3029 61.6694 48.9872 61.3252C48.3365 60.5134 48.0112 59.4886 48.0747 58.4502C48.0298 57.4092 48.3829 56.3902 49.0622 55.6002C49.3714 55.243 49.7561 54.9591 50.1884 54.7688C50.6208 54.5786 51.09 54.4868 51.5622 54.5002C51.9886 54.4763 52.4148 54.5493 52.8088 54.7139C53.2029 54.8784 53.5545 55.1302 53.8372 55.4502C54.4128 56.2091 54.6967 57.1495 54.6372 58.1002L54.6497 58.7502ZM53.3997 57.7377C53.4251 57.1584 53.2483 56.5884 52.8997 56.1252C52.7287 55.9319 52.5161 55.7798 52.278 55.6802C52.0399 55.5807 51.7824 55.5362 51.5247 55.5502C51.2557 55.5469 50.989 55.5996 50.7415 55.7051C50.494 55.8105 50.2712 55.9664 50.0872 56.1627C49.6758 56.5979 49.417 57.155 49.3497 57.7502L53.3997 57.7377Z" fill="#F2F2F2"/>
</g>
<defs>
<clipPath id="clip0_290_1577">
<rect width="80" height="80" fill="white" transform="translate(-0.000244141 0.00012207)"/>
</clipPath>
</defs>
</svg>
