<svg width="104" height="64" viewBox="0 0 104 64" fill="none" xmlns="http://www.w3.org/2000/svg">
<g style="mix-blend-mode:luminosity" opacity="0.8" clip-path="url(#clip0_290_1588)">
<path d="M24.5394 16.9252H44.1547V18.4901H26.3375V30.2679H43.0922V31.8328H26.3375V44.7636H44.3591V46.3285H24.5394V16.9252ZM45.9119 16.9252H47.9961L57.2316 29.8561L66.6715 16.9252L79.5113 0.500122L58.4167 31.215L69.2869 46.3285H67.121L57.2316 32.574L47.3014 46.3285H45.1764L56.1283 31.215L45.9119 16.9252ZM70.0633 18.4901V16.9252H92.4167V18.4901H82.1186V46.3285H80.3205V18.4901H70.0633ZM-0.000244141 16.9252H2.24735L33.2403 63.4765L20.4324 46.3285L1.87956 19.149L1.79783 46.3285H-0.000244141L-0.000244141 16.9252ZM92.2355 44.2913C91.8681 44.2913 91.5926 44.0056 91.5926 43.6364C91.5926 43.2672 91.8681 42.9815 92.2355 42.9815C92.6072 42.9815 92.8784 43.2672 92.8784 43.6364C92.8784 44.0056 92.6072 44.2913 92.2355 44.2913ZM94.0023 42.5683H94.9645C94.9776 43.0914 95.3581 43.443 95.9178 43.443C96.5432 43.443 96.8975 43.065 96.8975 42.3574V37.8741H97.8771V42.3618C97.8771 43.6364 97.1424 44.3705 95.9266 44.3705C94.7852 44.3705 94.0023 43.6584 94.0023 42.5683ZM99.1585 42.5112H100.129C100.212 43.1134 100.798 43.4958 101.643 43.4958C102.43 43.4958 103.007 43.087 103.007 42.5244C103.007 42.0409 102.64 41.7508 101.804 41.553L100.991 41.3552C99.8495 41.0871 99.329 40.5333 99.329 39.6015C99.329 38.4719 100.247 37.7202 101.625 37.7202C102.906 37.7202 103.842 38.4719 103.899 39.5399H102.946C102.854 38.9553 102.347 38.5905 101.612 38.5905C100.838 38.5905 100.322 38.9641 100.322 39.5355C100.322 39.9883 100.654 40.2476 101.476 40.441L102.172 40.6124C103.466 40.9157 104 41.4431 104 42.3969C104 43.6101 103.064 44.3705 101.568 44.3705C100.169 44.3705 99.2285 43.6452 99.1585 42.5112Z" fill="black"/>
</g>
<defs>
<clipPath id="clip0_290_1588">
<rect width="104" height="63" fill="white" transform="translate(-0.000244141 0.500122)"/>
</clipPath>
</defs>
</svg>
