<svg width="123" height="35" viewBox="0 0 123 35" fill="none" xmlns="http://www.w3.org/2000/svg">
<g style="mix-blend-mode:luminosity" opacity="0.8">
<mask id="mask0_290_1690" style="mask-type:luminance" maskUnits="userSpaceOnUse" x="103" y="12" width="20" height="23">
<path d="M103.063 12.4996H122.727V34.7017H103.063V12.4996Z" fill="white"/>
</mask>
<g mask="url(#mask0_290_1690)">
<path d="M112.908 12.5016C112.609 12.5016 112.318 12.5632 112.061 12.7088L103.925 17.4099C103.398 17.7135 103.078 18.2868 103.078 18.8965V28.2822C103.078 28.8916 103.398 29.4643 103.925 29.7685L106.05 30.9936C107.082 31.503 107.463 31.4947 107.933 31.4947C109.461 31.4947 110.334 30.5669 110.334 28.9538V19.6936C110.334 19.5629 110.221 19.4692 110.092 19.4692H109.073C108.942 19.4692 108.831 19.5652 108.831 19.6936V28.9581C108.831 29.6728 108.087 30.3921 106.879 29.7877L104.67 28.4914C104.592 28.449 104.532 28.3713 104.532 28.2842V18.8985C104.532 18.8095 104.591 18.7188 104.67 18.6737L112.79 13.9895C112.866 13.9458 112.956 13.9458 113.032 13.9895L121.151 18.6737C121.229 18.7201 121.289 18.8068 121.289 18.8985V28.2842C121.289 28.3739 121.245 28.4656 121.169 28.509L113.032 33.1932C112.96 33.2349 112.864 33.2349 112.79 33.1932L110.699 31.9489C110.637 31.9125 110.552 31.9151 110.492 31.9489C109.915 32.2759 109.807 32.314 109.266 32.502C109.132 32.5484 108.93 32.6205 109.335 32.8479L112.065 34.4574C112.324 34.6076 112.614 34.6818 112.911 34.6818C113.213 34.6818 113.498 34.61 113.758 34.4574L121.895 29.7728C122.421 29.4663 122.741 28.8959 122.741 28.2865V18.9008C122.741 18.2911 122.421 17.7191 121.895 17.4142L113.758 12.7131C113.503 12.5675 113.21 12.5059 112.911 12.5059L112.908 12.5016ZM115.085 19.208C112.768 19.208 111.388 20.1948 111.388 21.8353C111.388 23.6129 112.757 24.1041 114.981 24.3239C117.642 24.5847 117.849 24.9757 117.849 25.4993C117.849 26.4083 117.125 26.7956 115.413 26.7956C113.263 26.7956 112.79 26.2587 112.632 25.1862C112.613 25.0713 112.525 24.979 112.408 24.979H111.351C111.319 24.9796 111.289 24.9863 111.259 24.9988C111.23 25.0111 111.204 25.0286 111.181 25.0511C111.159 25.074 111.141 25.0998 111.129 25.1289C111.117 25.1584 111.11 25.1888 111.109 25.221C111.109 26.5907 111.854 28.211 115.411 28.211C117.986 28.211 119.471 27.2021 119.471 25.4282C119.471 23.6744 118.271 23.2004 115.774 22.8697C113.253 22.5334 113.01 22.3725 113.01 21.7807C113.01 21.2924 113.214 20.6397 115.083 20.6397C116.752 20.6397 117.369 21.0001 117.622 22.1263C117.645 22.2319 117.738 22.3183 117.847 22.3183H118.903C118.968 22.3183 119.031 22.2785 119.076 22.2319C119.12 22.1822 119.152 22.1263 119.145 22.0591C118.982 20.1193 117.689 19.207 115.085 19.207L115.085 19.208Z" fill="#83CD29"/>
</g>
<mask id="mask1_290_1690" style="mask-type:luminance" maskUnits="userSpaceOnUse" x="-1" y="0" width="98" height="35">
<path d="M-0.000488281 0.128296H96.7058V34.8719H-0.000488281V0.128296Z" fill="white"/>
</mask>
<g mask="url(#mask1_290_1690)">
<path d="M65.0676 0.197894C64.9753 0.198225 64.8889 0.221065 64.8084 0.267077C64.7694 0.290248 64.7336 0.317722 64.7015 0.349831C64.6694 0.382271 64.6423 0.418021 64.6194 0.457412C64.5966 0.496803 64.5794 0.538512 64.5674 0.582537C64.5559 0.626231 64.5496 0.67125 64.5496 0.716599V13.9391C64.5496 14.0689 64.489 14.1851 64.3764 14.2503C64.3205 14.283 64.2599 14.2993 64.195 14.2993C64.1302 14.2993 64.0699 14.283 64.0136 14.2503L61.8541 13.006C61.7756 12.9603 61.6922 12.9259 61.6042 12.902C61.5164 12.8785 61.4271 12.8666 61.336 12.8666C61.245 12.8666 61.1556 12.8785 61.0676 12.902C60.9799 12.9259 60.8964 12.9603 60.8177 13.006L52.198 17.9838C51.8755 18.1695 51.6792 18.5277 51.6792 18.8998V28.8555C51.6789 28.9465 51.6908 29.0362 51.7143 29.1242C51.7378 29.212 51.7723 29.2957 51.8176 29.3745C51.8633 29.4533 51.9182 29.5251 51.9825 29.5893C52.047 29.6539 52.1185 29.7088 52.1976 29.7542L60.8183 34.732C60.8968 34.778 60.9802 34.8125 61.0682 34.8363C61.156 34.8598 61.2453 34.8717 61.3364 34.8717C61.4274 34.8717 61.5168 34.8598 61.6048 34.8363C61.6925 34.8125 61.776 34.778 61.8547 34.732L70.4754 29.7542C70.5542 29.7088 70.6257 29.6539 70.6903 29.5893C70.7548 29.5251 70.8098 29.4533 70.8551 29.3745C70.9008 29.2957 70.9352 29.212 70.9587 29.1242C70.9822 29.0362 70.9938 28.9465 70.9938 28.8555V4.03506C70.9938 3.65736 70.7876 3.30317 70.4582 3.11913L65.3271 0.24854C65.2464 0.203852 65.1573 0.195908 65.0679 0.19657L65.0676 0.197894ZM9.61215 12.6253C9.44764 12.6323 9.29338 12.6607 9.14575 12.7465L0.525374 17.7243C0.446261 17.7697 0.374761 17.8246 0.310213 17.8888C0.245664 17.9534 0.190715 18.0249 0.145366 18.1037C0.0996851 18.1828 0.0652592 18.2662 0.042088 18.3542C0.0185857 18.4423 0.00700012 18.532 0.00733111 18.623L0.0248751 31.9842C0.0248751 32.1703 0.12087 32.3427 0.284062 32.4334C0.444275 32.5294 0.642886 32.5294 0.802105 32.4334L5.91567 29.495C6.24007 29.3027 6.45126 28.9673 6.45126 28.5966V22.3562C6.45126 21.9838 6.64689 21.6426 6.96997 21.4575L9.14674 20.196C9.30695 20.1027 9.47941 20.0567 9.66478 20.0577C9.85015 20.0563 10.0229 20.1027 10.1832 20.196L12.3589 21.4569C12.6817 21.6419 12.8773 21.9835 12.8773 22.3552V28.5949C12.8773 28.9663 13.0935 29.3036 13.4126 29.4937L18.5261 32.4321C18.687 32.5281 18.8853 32.5281 19.0445 32.4321C19.2027 32.3407 19.3037 32.1683 19.3037 31.9829L19.3209 18.622C19.3216 18.5307 19.31 18.4413 19.2868 18.3529C19.2633 18.2649 19.2292 18.1814 19.1835 18.1023C19.1379 18.0235 19.0829 17.9517 19.0184 17.8875C18.9538 17.8233 18.882 17.7683 18.8029 17.7233L10.1825 12.7471C10.0368 12.6617 9.8816 12.6329 9.71609 12.626H9.61281L9.61215 12.6253ZM87.076 12.7465C86.8906 12.7461 86.7178 12.7921 86.5576 12.8848L77.9369 17.863C77.6152 18.049 77.4182 18.3893 77.4182 18.7614V28.7171C77.4182 29.0915 77.6291 29.4304 77.9538 29.6155L86.5053 34.492C86.8208 34.6724 87.2064 34.686 87.5245 34.5089L92.7073 31.6224C92.8715 31.5311 92.9827 31.3606 92.9834 31.1732C92.9837 30.9859 92.8864 30.8171 92.7238 30.724L84.0512 25.7459C83.889 25.6532 83.7751 25.4655 83.7751 25.2791V22.1659C83.7751 21.9799 83.8903 21.8094 84.0512 21.7167L86.7463 20.1609C86.9065 20.0682 87.1035 20.0682 87.265 20.1609L89.9661 21.7167C90.0055 21.7392 90.0413 21.7667 90.0737 21.7988C90.1058 21.8309 90.1333 21.867 90.1561 21.9064C90.179 21.9458 90.1962 21.9875 90.2078 22.0315C90.2194 22.0755 90.2253 22.1202 90.2253 22.1659V24.6201C90.225 24.6658 90.2309 24.7104 90.2425 24.7545C90.2544 24.7985 90.2717 24.8402 90.2942 24.8796C90.317 24.9193 90.3445 24.9551 90.3766 24.9872C90.409 25.0193 90.4448 25.0468 90.4842 25.0696C90.6457 25.1626 90.8417 25.1633 91.0029 25.0696L96.1677 22.062C96.4882 21.8753 96.6861 21.534 96.6861 21.1633V18.7611C96.6861 18.67 96.6745 18.5807 96.651 18.4926C96.6275 18.4045 96.5928 18.3211 96.5474 18.2423C96.5017 18.1632 96.4468 18.0917 96.3826 18.0272C96.3184 17.963 96.2465 17.908 96.1677 17.8623L87.599 12.8845C87.4388 12.7915 87.266 12.7455 87.0806 12.7461L87.076 12.7465ZM61.3003 20.1791C61.3493 20.1788 61.3953 20.1904 61.4387 20.2136L64.3927 21.9246C64.4728 21.9709 64.531 22.0567 64.531 22.1494V25.5714C64.531 25.6644 64.4734 25.7502 64.3927 25.7962L61.4387 27.5072C61.3582 27.5529 61.2599 27.5529 61.1791 27.5072L58.2251 25.7962C58.1447 25.7498 58.0868 25.6641 58.0868 25.5714V22.1503C58.0868 22.0573 58.145 21.9726 58.2251 21.9256L61.1791 20.2146C61.2195 20.1914 61.2553 20.1805 61.3003 20.1805V20.1791Z" fill="#404137"/>
</g>
<path d="M35.511 12.6952C35.3256 12.6949 35.1528 12.7409 34.9923 12.8336L26.3716 17.7942C26.0495 17.9802 25.8535 18.3384 25.8535 18.7101V28.6658C25.8532 28.7568 25.8648 28.8466 25.8883 28.9346C25.9118 29.0227 25.9462 29.1061 25.9916 29.1849C26.0372 29.264 26.0922 29.3355 26.1564 29.3997C26.221 29.4642 26.2928 29.5189 26.3716 29.5642L34.9923 34.5424C35.071 34.5881 35.1541 34.6228 35.2422 34.6463C35.3299 34.6702 35.4196 34.6821 35.5106 34.6821C35.6013 34.6821 35.691 34.6702 35.7788 34.6463C35.8668 34.6228 35.9499 34.5881 36.0287 34.5424L44.6494 29.5642C44.7282 29.5189 44.8 29.4639 44.8642 29.3997C44.9288 29.3351 44.9837 29.2636 45.0291 29.1845C45.0747 29.1057 45.1092 29.0223 45.1327 28.9343C45.1562 28.8462 45.1678 28.7568 45.1678 28.6658V18.7105C45.1678 18.3384 44.9718 17.9802 44.6491 17.7945L36.0284 12.8339C35.8681 12.7409 35.6953 12.6949 35.51 12.6955L35.511 12.6952ZM87.0621 21.5794C87.0276 21.5794 86.9896 21.5794 86.9585 21.5963L85.2997 22.5645C85.2686 22.5817 85.2434 22.6059 85.2249 22.637C85.2064 22.6678 85.1968 22.7012 85.1961 22.737V24.6383C85.1961 24.7102 85.2378 24.7754 85.2997 24.8114L86.9585 25.7621C86.9873 25.78 87.019 25.7889 87.0531 25.7889C87.0872 25.7889 87.119 25.78 87.1481 25.7621L88.8065 24.8114C88.8678 24.776 88.9101 24.7102 88.9101 24.6383V22.737C88.9101 22.6655 88.8681 22.6002 88.8065 22.5642L87.1481 21.5959C87.1173 21.5777 87.0962 21.5791 87.0617 21.5791L87.0621 21.5794Z" fill="#83CD29"/>
</g>
</svg>
