<svg width="140" height="49" viewBox="0 0 140 49" fill="none" xmlns="http://www.w3.org/2000/svg">
<g style="mix-blend-mode:luminosity" opacity="0.8">
<path d="M31.9811 24.4559C31.9811 24.6098 31.9736 24.7638 31.9585 24.917C31.9434 25.0702 31.9209 25.2226 31.8907 25.3736C31.8606 25.5249 31.823 25.674 31.7786 25.8215C31.7338 25.9691 31.6818 26.114 31.6227 26.2563C31.564 26.3986 31.4981 26.5374 31.4255 26.6733C31.3529 26.8092 31.2734 26.9413 31.188 27.0693C31.1022 27.1977 31.0107 27.3211 30.9128 27.4405C30.815 27.5594 30.7114 27.6735 30.6027 27.7822C30.4935 27.8914 30.3794 27.9945 30.2605 28.0924C30.1412 28.1903 30.0177 28.2817 29.8894 28.3676C29.7614 28.453 29.6293 28.5321 29.4934 28.6047C29.3575 28.6774 29.2182 28.7432 29.0759 28.8023C28.9333 28.861 28.7883 28.913 28.6408 28.9578C28.4932 29.0026 28.3442 29.0398 28.1929 29.07C28.0415 29.1001 27.8895 29.1227 27.7359 29.1377C27.5827 29.1528 27.4287 29.1603 27.2748 29.1603C27.1205 29.1603 26.9669 29.1528 26.8133 29.1377C26.6601 29.1227 26.5077 29.1001 26.3563 29.07C26.2054 29.0398 26.056 29.0026 25.9084 28.9578C25.7609 28.913 25.6159 28.861 25.4737 28.8023C25.3314 28.7432 25.1921 28.6774 25.0562 28.6047C24.9203 28.5321 24.7882 28.453 24.6598 28.3676C24.5319 28.2817 24.408 28.1903 24.2891 28.0924C24.1698 27.9945 24.0557 27.8914 23.9469 27.7822C23.8378 27.6735 23.7342 27.5594 23.6368 27.4405C23.5389 27.3211 23.447 27.1977 23.3616 27.0693C23.2758 26.9413 23.1967 26.8092 23.1241 26.6733C23.0514 26.5374 22.9856 26.3986 22.9265 26.2563C22.8677 26.114 22.8158 25.9691 22.771 25.8215C22.7262 25.674 22.6889 25.5249 22.6588 25.3736C22.6287 25.2226 22.6061 25.0702 22.5911 24.917C22.576 24.7638 22.5681 24.6098 22.5681 24.4559C22.5681 24.3019 22.576 24.148 22.5911 23.9948C22.6061 23.8412 22.6287 23.6891 22.6588 23.5382C22.6889 23.3869 22.7262 23.2378 22.771 23.0903C22.8158 22.9427 22.8677 22.7978 22.9265 22.6555C22.9856 22.5132 23.0514 22.3739 23.1241 22.2381C23.1967 22.1022 23.2758 21.9704 23.3616 21.8421C23.447 21.7141 23.5389 21.5902 23.6368 21.4713C23.7342 21.3524 23.8378 21.2383 23.9469 21.1291C24.0557 21.0204 24.1698 20.9168 24.2891 20.8193C24.408 20.7215 24.5319 20.6296 24.6598 20.5442C24.7882 20.4587 24.9203 20.3793 25.0562 20.3067C25.1921 20.234 25.3314 20.1685 25.4737 20.1094C25.6159 20.0503 25.7609 19.9988 25.9084 19.954C26.056 19.9092 26.2054 19.8719 26.3563 19.8418C26.5077 19.8117 26.6601 19.7891 26.8133 19.774C26.9669 19.759 27.1205 19.7515 27.2748 19.7515C27.4287 19.7515 27.5827 19.759 27.7359 19.774C27.8895 19.7891 28.0415 19.8117 28.1929 19.8418C28.3442 19.8719 28.4932 19.9092 28.6408 19.954C28.7883 19.9988 28.9333 20.0503 29.0759 20.1094C29.2182 20.1685 29.3575 20.234 29.4934 20.3067C29.6293 20.3793 29.7614 20.4587 29.8894 20.5442C30.0177 20.6296 30.1412 20.7215 30.2605 20.8193C30.3794 20.9168 30.4935 21.0204 30.6027 21.1291C30.7114 21.2383 30.815 21.3524 30.9128 21.4713C31.0107 21.5902 31.1022 21.7141 31.188 21.8421C31.2734 21.9704 31.3529 22.1022 31.4255 22.2381C31.4981 22.3739 31.564 22.5132 31.6227 22.6555C31.6818 22.7978 31.7338 22.9427 31.7786 23.0903C31.823 23.2378 31.8606 23.3869 31.8907 23.5382C31.9209 23.6891 31.9434 23.8412 31.9585 23.9948C31.9736 24.148 31.9811 24.3019 31.9811 24.4559Z" fill="#00D8FF"/>
<mask id="mask0_290_1656" style="mask-type:luminance" maskUnits="userSpaceOnUse" x="0" y="2" width="66" height="45">
<path d="M0.273193 2.15796H65.2888V46.8699H0.273193V2.15796Z" fill="white"/>
</mask>
<g mask="url(#mask0_290_1656)">
<path d="M27.2745 14.8932C33.5933 14.8932 39.4639 15.7996 43.8897 17.3229C49.2228 19.158 52.5013 21.9396 52.5013 24.4586C52.5013 27.0833 49.0267 30.0386 43.2999 31.9353C38.9704 33.3691 33.273 34.1174 27.2745 34.1174C21.1246 34.1174 15.3008 33.415 10.9227 31.9195C5.3834 30.0269 2.04688 27.0333 2.04688 24.4586C2.04688 21.96 5.17751 19.1997 10.4352 17.3674C14.8777 15.8192 20.8928 14.8932 27.2741 14.8932H27.2745Z" stroke="#00D8FF" stroke-width="1.57296"/>
</g>
<mask id="mask1_290_1656" style="mask-type:luminance" maskUnits="userSpaceOnUse" x="0" y="0" width="56" height="50">
<path d="M0.273193 0.00012207H55.0745V49.0001H0.273193V0.00012207Z" fill="white"/>
</mask>
<g mask="url(#mask1_290_1656)">
<path d="M18.9433 19.7006C22.1002 14.229 25.8181 9.59914 29.3492 6.52685C33.6038 2.82595 37.6518 1.37676 39.835 2.63474C42.1096 3.94616 42.9347 8.4315 41.7174 14.3382C40.7982 18.8036 38.5996 24.1106 35.6029 29.3051C32.5307 34.6302 29.0127 39.3222 25.5294 42.3652C21.1219 46.2166 16.8609 47.6101 14.6299 46.3239C12.4648 45.0768 11.6367 40.986 12.6752 35.5182C13.553 30.8977 15.7554 25.2271 18.9421 19.7017L18.9433 19.7006Z" stroke="#00D8FF" stroke-width="1.57296"/>
</g>
<mask id="mask2_290_1656" style="mask-type:luminance" maskUnits="userSpaceOnUse" x="0" y="0" width="56" height="50">
<path d="M0.273193 0.00012207H55.1708V49.0001H0.273193V0.00012207Z" fill="white"/>
</mask>
<g mask="url(#mask2_290_1656)">
<path d="M18.9521 29.3194C15.7868 23.8542 13.6311 18.3213 12.7315 13.7291C11.6485 8.19619 12.4141 3.96605 14.5947 2.70394C16.8675 1.38875 21.1669 2.91435 25.6782 6.91826C29.0889 9.94538 32.591 14.4989 35.5963 19.6877C38.6773 25.0079 40.9869 30.3978 41.8851 34.934C43.0218 40.6743 42.1019 45.0599 39.8724 46.3502C37.7095 47.6021 33.7511 46.2768 29.5304 42.6463C25.9643 39.5785 22.1489 34.8391 18.9521 29.3186V29.3194Z" stroke="#00D8FF" stroke-width="1.57296"/>
</g>
<path fill-rule="evenodd" clip-rule="evenodd" d="M79.5174 36.4773L73.7485 27.7656C76.6642 27.5085 79.2912 25.3968 79.2912 21.5394C79.2912 17.6137 76.5042 15.1016 72.5948 15.1016H64.0095V36.4611H66.6693V27.9741H70.9306L76.377 36.4611L79.5174 36.4773ZM72.2767 25.6528H66.6704V17.4865H72.2767C74.8088 17.4865 76.5381 19.1514 76.5381 21.554C76.5381 23.9567 74.8077 25.6554 72.2767 25.6554V25.6528ZM89.4174 36.8605C91.9496 36.8605 94.0308 36.0283 95.5692 34.4917L94.4155 32.9217C93.1966 34.171 91.4038 34.8749 89.6422 34.8749C86.3109 34.8749 84.2594 32.441 84.0671 29.5284H96.593V28.9189C96.593 24.2763 93.8373 20.6243 89.1588 20.6243C84.7375 20.6243 81.535 24.2439 81.535 28.727C81.535 33.5631 84.835 36.8485 89.4159 36.8485L89.4174 36.8605ZM94.2246 27.7645H84.0686C84.197 25.3957 85.8287 22.6072 89.1302 22.6072C92.655 22.6072 94.1919 25.4578 94.2246 27.7645ZM112.551 36.4762V25.8436C112.551 22.0968 109.83 20.6228 106.561 20.6228C104.028 20.6228 102.043 21.4554 100.378 23.1854L101.499 24.8503C102.876 23.3774 104.383 22.7047 106.241 22.7047C108.484 22.7047 110.15 23.8889 110.15 25.9709V28.7567C108.901 27.315 107.139 26.6424 105.024 26.6424C102.397 26.6424 99.6073 28.276 99.6073 31.7345C99.6073 35.097 102.394 36.8594 105.024 36.8594C107.106 36.8594 108.869 36.1227 110.15 34.7138V36.4736L112.551 36.4762ZM105.889 35.1305C103.647 35.1305 102.076 33.7231 102.076 31.7684C102.076 29.7828 103.647 28.3735 105.889 28.3735C107.587 28.3735 109.22 29.0138 110.15 30.2955V33.2101C109.222 34.4906 107.587 35.132 105.889 35.132V35.1305ZM124.17 36.8605C126.989 36.8605 128.655 35.7072 129.841 34.171L128.239 32.6981C127.214 34.0751 125.901 34.715 124.312 34.715C121.012 34.715 118.963 32.1527 118.963 28.727C118.963 25.3009 121.013 22.771 124.312 22.771C125.914 22.771 127.227 23.38 128.239 24.7878L129.841 23.3153C128.656 21.7776 126.989 20.6254 124.17 20.6254C119.556 20.6254 116.448 24.149 116.448 28.7281C116.448 33.3399 119.556 36.8496 124.17 36.8496V36.8605ZM137.115 36.8605C138.524 36.8605 139.39 36.4438 140 35.8683L139.296 34.0751C138.975 34.427 138.348 34.715 137.661 34.715C136.605 34.715 136.09 33.8827 136.09 32.7294V23.1218H139.232V21.0086H136.09V16.7815H133.687V21.0086H131.123V23.1229H133.687V33.2439C133.687 35.5502 134.84 36.8632 137.115 36.8632V36.8605Z" fill="#00D8FF"/>
</g>
</svg>
