<svg width="67" height="67" viewBox="0 0 67 67" fill="none" xmlns="http://www.w3.org/2000/svg">
<g style="mix-blend-mode:luminosity" opacity="0.8">
<mask id="mask0_290_1714" style="mask-type:luminance" maskUnits="userSpaceOnUse" x="2" y="1" width="64" height="64">
<path d="M2.26685 1.53186H65.4825V64.7475H2.26685V1.53186Z" fill="white"/>
</mask>
<g mask="url(#mask0_290_1714)">
<path d="M65.4825 33.1397C65.4825 33.657 65.4697 34.1739 65.4444 34.6907C65.419 35.2073 65.3811 35.7229 65.3303 36.2377C65.2796 36.7526 65.2163 37.2658 65.1403 37.7775C65.0644 38.2891 64.976 38.7987 64.8751 39.306C64.7742 39.8134 64.6609 40.3179 64.5353 40.8197C64.4095 41.3215 64.2716 41.8199 64.1215 42.315C63.9714 42.8099 63.809 43.301 63.6349 43.788C63.4606 44.2751 63.2744 44.7576 63.0765 45.2354C62.8786 45.7134 62.6689 46.1861 62.4478 46.6537C62.2266 47.1214 61.9942 47.5833 61.7503 48.0396C61.5065 48.4956 61.2515 48.9457 60.9855 49.3893C60.7196 49.833 60.443 50.2699 60.1555 50.7001C59.8682 51.1301 59.5704 51.5529 59.2623 51.9685C58.9542 52.384 58.6359 52.7916 58.3079 53.1914C57.9797 53.5914 57.642 53.9829 57.2944 54.3662C56.9471 54.7495 56.5906 55.1241 56.2247 55.4898C55.8591 55.8556 55.4844 56.2121 55.1012 56.5595C54.7179 56.907 54.3264 57.2447 53.9264 57.5729C53.5266 57.901 53.119 58.2192 52.7034 58.5274C52.2879 58.8354 51.8651 59.1332 51.4349 59.4205C51.0049 59.708 50.568 59.9846 50.1243 60.2506C49.6807 60.5165 49.2306 60.7715 48.7745 61.0154C48.3183 61.2592 47.8563 61.4916 47.3887 61.7129C46.9211 61.9339 46.4484 62.1436 45.9704 62.3415C45.4926 62.5394 45.0101 62.7256 44.523 62.8999C44.036 63.074 43.5449 63.2364 43.05 63.3865C42.5549 63.5367 42.0565 63.6745 41.5547 63.8003C41.0529 63.926 40.5483 64.0392 40.041 64.1401C39.5337 64.2411 39.0241 64.3294 38.5125 64.4053C38.0008 64.4813 37.4876 64.5446 36.9727 64.5953C36.4579 64.6461 35.9423 64.684 35.4255 64.7094C34.9088 64.7348 34.392 64.7475 33.8747 64.7475C33.3573 64.7475 32.8403 64.7348 32.3237 64.7094C31.807 64.684 31.2914 64.6461 30.7765 64.5953C30.2618 64.5446 29.7486 64.4813 29.2369 64.4053C28.7251 64.3294 28.2157 64.2411 27.7084 64.1401C27.2008 64.0392 26.6964 63.926 26.1946 63.8003C25.6928 63.6745 25.1945 63.5367 24.6994 63.3865C24.2043 63.2364 23.7134 63.074 23.2262 62.8999C22.7393 62.7256 22.2568 62.5394 21.7789 62.3415C21.301 62.1436 20.8281 61.9339 20.3605 61.7129C19.893 61.4916 19.4311 61.2592 18.9748 61.0154C18.5186 60.7715 18.0687 60.5165 17.625 60.2506C17.1814 59.9846 16.7445 59.708 16.3143 59.4205C15.8842 59.1332 15.4615 58.8354 15.0459 58.5274C14.6304 58.2192 14.2228 57.901 13.8228 57.5729C13.423 57.2447 13.0314 56.907 12.6482 56.5595C12.2649 56.2121 11.8903 55.8556 11.5246 55.4898C11.1588 55.1241 10.8021 54.7495 10.4547 54.3662C10.1074 53.9829 9.76967 53.5914 9.44146 53.1914C9.11324 52.7916 8.79521 52.384 8.48702 51.9685C8.17882 51.5529 7.88115 51.1301 7.59366 50.7001C7.30635 50.2699 7.02973 49.833 6.76364 49.3893C6.49772 48.9457 6.24285 48.4956 5.99902 48.0396C5.75519 47.5833 5.52275 47.1214 5.30152 46.6537C5.0803 46.1861 4.87081 45.7134 4.67288 45.2354C4.47495 44.7576 4.28875 44.2751 4.11447 43.788C3.94018 43.301 3.77797 42.8099 3.62784 42.315C3.47771 41.8199 3.33984 41.3215 3.21404 40.8197C3.08841 40.3179 2.97504 39.8134 2.87409 39.306C2.77332 38.7987 2.68479 38.2891 2.60886 37.7775C2.53311 37.2658 2.46978 36.7526 2.41905 36.2377C2.36831 35.7229 2.33035 35.2073 2.30498 34.6907C2.27944 34.1739 2.26685 33.657 2.26685 33.1397C2.26685 32.6224 2.27944 32.1054 2.30498 31.5887C2.33035 31.0721 2.36831 30.5564 2.41905 30.0415C2.46978 29.5268 2.53311 29.0136 2.60886 28.5019C2.68479 27.9901 2.77332 27.4807 2.87409 26.9734C2.97504 26.4659 3.08841 25.9615 3.21404 25.4597C3.33984 24.9578 3.47771 24.4595 3.62784 23.9644C3.77797 23.4693 3.94018 22.9784 4.11447 22.4912C4.28875 22.0043 4.47495 21.5218 4.67288 21.044C4.87081 20.566 5.0803 20.0931 5.30152 19.6255C5.52275 19.158 5.75519 18.6961 5.99902 18.2398C6.24285 17.7836 6.49772 17.3337 6.76364 16.8901C7.02973 16.4464 7.30635 16.0095 7.59366 15.5793C7.88115 15.1492 8.17882 14.7265 8.48702 14.3109C8.79521 13.8954 9.11324 13.4878 9.44146 13.0878C9.76967 12.688 10.1074 12.2965 10.4547 11.9132C10.8021 11.5299 11.1588 11.1553 11.5246 10.7896C11.8903 10.4238 12.2649 10.0671 12.6482 9.71975C13.0314 9.37239 13.423 9.03468 13.8228 8.70647C14.2228 8.37826 14.6304 8.06023 15.0459 7.75203C15.4615 7.44383 15.8842 7.14616 16.3143 6.85868C16.7445 6.57136 17.1814 6.29474 17.625 6.02865C18.0687 5.76274 18.5186 5.50786 18.9748 5.26403C19.4311 5.0202 19.893 4.78776 20.3605 4.56654C20.8281 4.34531 21.301 4.13582 21.7789 3.93789C22.2568 3.73996 22.7393 3.55377 23.2262 3.37948C23.7134 3.20519 24.2043 3.04299 24.6994 2.89286C25.1945 2.74273 25.6928 2.60485 26.1946 2.47905C26.6964 2.35343 27.2008 2.24005 27.7084 2.13911C28.2157 2.03833 28.7251 1.94981 29.2369 1.87388C29.7486 1.79812 30.2618 1.73479 30.7765 1.68406C31.2914 1.63333 31.807 1.59536 32.3237 1.57C32.8403 1.54446 33.3573 1.53186 33.8747 1.53186C34.392 1.53186 34.9088 1.54446 35.4255 1.57C35.9423 1.59536 36.4579 1.63333 36.9727 1.68406C37.4876 1.73479 38.0008 1.79812 38.5125 1.87388C39.0241 1.94981 39.5337 2.03833 40.041 2.13911C40.5483 2.24005 41.0529 2.35343 41.5547 2.47905C42.0565 2.60485 42.5549 2.74273 43.05 2.89286C43.5449 3.04299 44.036 3.20519 44.523 3.37948C45.0101 3.55377 45.4926 3.73996 45.9704 3.93789C46.4484 4.13582 46.9211 4.34531 47.3887 4.56654C47.8563 4.78776 48.3183 5.0202 48.7745 5.26403C49.2306 5.50786 49.6807 5.76274 50.1243 6.02865C50.568 6.29474 51.0049 6.57136 51.4349 6.85868C51.8651 7.14616 52.2879 7.44383 52.7034 7.75203C53.119 8.06023 53.5266 8.37826 53.9264 8.70647C54.3264 9.03468 54.7179 9.37239 55.1012 9.71975C55.4844 10.0671 55.8591 10.4238 56.2247 10.7896C56.5906 11.1553 56.9471 11.5299 57.2944 11.9132C57.642 12.2965 57.9797 12.688 58.3079 13.0878C58.6359 13.4878 58.9542 13.8954 59.2623 14.3109C59.5704 14.7265 59.8682 15.1492 60.1555 15.5793C60.443 16.0095 60.7196 16.4464 60.9855 16.8901C61.2515 17.3337 61.5065 17.7836 61.7503 18.2398C61.9942 18.6961 62.2266 19.158 62.4478 19.6255C62.6689 20.0931 62.8786 20.566 63.0765 21.044C63.2744 21.5218 63.4606 22.0043 63.6349 22.4912C63.809 22.9784 63.9714 23.4693 64.1215 23.9644C64.2716 24.4595 64.4095 24.9578 64.5353 25.4597C64.6609 25.9615 64.7742 26.4659 64.8751 26.9734C64.976 27.4807 65.0644 27.9901 65.1403 28.5019C65.2163 29.0136 65.2796 29.5268 65.3303 30.0415C65.3811 30.5564 65.419 31.0721 65.4444 31.5887C65.4697 32.1054 65.4825 32.6224 65.4825 33.1397Z" fill="white"/>
</g>
<path d="M6.76489 33.1389C6.76489 43.874 12.9999 53.1433 22.0463 57.5385L9.11053 22.1027C7.60492 25.4782 6.76489 29.2012 6.76489 33.1389ZM52.1786 31.7731C52.1786 28.4244 50.9742 26.0987 49.9461 24.2987C48.5703 22.0463 47.2778 20.1714 47.2778 17.9405C47.2778 15.4586 49.1758 13.1278 51.836 13.1278C51.9558 13.1278 52.0638 13.1378 52.1836 13.1411C47.361 8.71105 40.9346 6.02771 33.8744 6.02771C24.4004 6.02771 16.0658 10.8921 11.2182 18.2532C11.857 18.2667 12.4543 18.2765 12.9683 18.2765C15.7963 18.2765 20.1932 17.9405 20.1932 17.9405C21.6504 17.8423 21.8285 19.9951 20.3612 20.1714C20.3612 20.1714 18.8972 20.3478 17.2653 20.4259L27.1402 49.7996L33.0725 32.0093L28.8471 20.4259C27.3898 20.3478 26.004 20.1714 26.004 20.1714C24.5434 20.0749 24.7113 17.8408 26.1704 17.9405C26.1704 17.9405 30.6554 18.2765 33.317 18.2765C36.1551 18.2765 40.5436 17.9405 40.5436 17.9405C42.0026 17.8423 42.1772 19.9951 40.7184 20.1714C40.7184 20.1714 39.2428 20.3478 37.6124 20.4259L47.4058 49.5699L50.1157 40.5401C51.4933 37.0167 52.1786 34.1037 52.1786 31.7731ZM34.3484 35.5046L26.2152 59.1438C28.6475 59.8676 31.2143 60.2501 33.8744 60.2501C37.0285 60.2501 40.0562 59.701 42.8809 58.713C42.816 58.5932 42.7379 58.4702 42.683 58.3387L34.3484 35.5046ZM57.6684 20.1248C57.7882 20.9881 57.8531 21.9165 57.8531 22.9113C57.8531 25.6694 57.3323 28.7621 55.787 32.6349L47.509 56.5835C55.5691 51.8857 60.9856 43.1436 60.9856 33.1406C60.9856 28.4276 59.7794 23.9942 57.6684 20.1248Z" fill="#01579B"/>
<mask id="mask1_290_1714" style="mask-type:luminance" maskUnits="userSpaceOnUse" x="2" y="1" width="64" height="64">
<path d="M2.26685 1.53186H65.4825V64.7475H2.26685V1.53186Z" fill="white"/>
</mask>
<g mask="url(#mask1_290_1714)">
<path d="M2.26685 33.1397C2.26685 50.5622 16.4421 64.7475 33.8747 64.7475C51.3072 64.7475 65.4825 50.5622 65.4825 33.1397C65.4825 15.7171 51.3072 1.53186 33.8747 1.53186C16.4421 1.53186 2.26685 15.7171 2.26685 33.1397ZM3.71585 33.1397C3.71585 16.5189 17.2406 2.99087 33.873 2.99087C50.5071 2.99087 64.0318 16.5189 64.0318 33.1397C64.0318 49.7603 50.5071 63.292 33.8747 63.292C17.244 63.292 3.71585 49.7603 3.71585 33.1397Z" fill="#01579B"/>
</g>
</g>
</svg>
