<svg width="182" height="65" viewBox="0 0 182 65" fill="none" xmlns="http://www.w3.org/2000/svg">
<path d="M16.5999 1.4H21.8799V63H15.7199V8.176L1.90388 12.312L0.319878 7.032L16.5999 1.4ZM73.7861 55.432C69.7381 61.1813 64.0181 64.056 56.6261 64.056C49.2341 64.056 43.4848 61.1813 39.3781 55.432C35.3301 49.624 33.3061 41.88 33.3061 32.2C33.3061 22.52 35.3301 14.8053 39.3781 9.056C43.4848 3.248 49.2341 0.343999 56.6261 0.343999C64.0181 0.343999 69.7381 3.248 73.7861 9.056C77.8928 14.8053 79.9461 22.52 79.9461 32.2C79.9461 41.88 77.8928 49.624 73.7861 55.432ZM43.9541 51.296C47.0048 55.8133 51.2288 58.072 56.6261 58.072C62.0235 58.072 66.2181 55.8133 69.2101 51.296C72.2608 46.7787 73.7861 40.4133 73.7861 32.2C73.7861 23.9867 72.2608 17.6213 69.2101 13.104C66.2181 8.58666 62.0235 6.328 56.6261 6.328C51.2288 6.328 47.0048 8.58666 43.9541 13.104C40.9621 17.6213 39.4661 23.9867 39.4661 32.2C39.4661 40.4133 40.9621 46.7787 43.9541 51.296ZM129.216 55.432C125.168 61.1813 119.448 64.056 112.056 64.056C104.664 64.056 98.9145 61.1813 94.8078 55.432C90.7598 49.624 88.7358 41.88 88.7358 32.2C88.7358 22.52 90.7598 14.8053 94.8078 9.056C98.9145 3.248 104.664 0.343999 112.056 0.343999C119.448 0.343999 125.168 3.248 129.216 9.056C133.322 14.8053 135.376 22.52 135.376 32.2C135.376 41.88 133.322 49.624 129.216 55.432ZM99.3838 51.296C102.434 55.8133 106.658 58.072 112.056 58.072C117.453 58.072 121.648 55.8133 124.64 51.296C127.69 46.7787 129.216 40.4133 129.216 32.2C129.216 23.9867 127.69 17.6213 124.64 13.104C121.648 8.58666 117.453 6.328 112.056 6.328C106.658 6.328 102.434 8.58666 99.3838 13.104C96.3918 17.6213 94.8958 23.9867 94.8958 32.2C94.8958 40.4133 96.3918 46.7787 99.3838 51.296ZM182.006 29.384V35.016H166.342V50.68H160.71V35.016H145.046V29.384H160.71V13.72H166.342V29.384H182.006Z" fill="url(#paint0_linear_385_4436)"/>
<defs>
<linearGradient id="paint0_linear_385_4436" x1="-1.00012" y1="16.0555" x2="119.499" y2="118.801" gradientUnits="userSpaceOnUse">
<stop stop-color="#192EC5"/>
<stop offset="1" stop-color="#20BEBD"/>
</linearGradient>
</defs>
</svg>
