<svg width="173" height="65" viewBox="0 0 173 65" fill="none" xmlns="http://www.w3.org/2000/svg">
<path d="M16.5999 1.4H21.8799V63H15.7199V8.176L1.90388 12.312L0.319878 7.032L16.5999 1.4ZM52.2261 26.216C57.9755 26.216 62.8448 27.9173 66.8341 31.32C70.8821 34.664 72.9061 39.2693 72.9061 45.136C72.9061 51.0027 70.8821 55.6373 66.8341 59.04C62.8448 62.384 57.9755 64.056 52.2261 64.056C47.5915 64.056 43.4555 62.9413 39.8181 60.712C36.1808 58.424 33.7168 55.168 32.4261 50.944L37.6181 47.952C38.4981 51.2373 40.2288 53.76 42.8101 55.52C45.4501 57.2213 48.5888 58.072 52.2261 58.072C56.4501 58.072 59.9115 56.9573 62.6101 54.728C65.3675 52.44 66.7461 49.2427 66.7461 45.136C66.7461 41.0293 65.3675 37.8613 62.6101 35.632C59.9115 33.344 56.4501 32.2 52.2261 32.2H35.5061L37.7061 1.4H70.7061V7.208H43.1621L41.8421 26.216H52.2261ZM119.591 55.432C115.543 61.1813 109.823 64.056 102.431 64.056C95.0388 64.056 89.2895 61.1813 85.1828 55.432C81.1348 49.624 79.1108 41.88 79.1108 32.2C79.1108 22.52 81.1348 14.8053 85.1828 9.056C89.2895 3.248 95.0388 0.343999 102.431 0.343999C109.823 0.343999 115.543 3.248 119.591 9.056C123.697 14.8053 125.751 22.52 125.751 32.2C125.751 41.88 123.697 49.624 119.591 55.432ZM89.7588 51.296C92.8095 55.8133 97.0335 58.072 102.431 58.072C107.828 58.072 112.023 55.8133 115.015 51.296C118.065 46.7787 119.591 40.4133 119.591 32.2C119.591 23.9867 118.065 17.6213 115.015 13.104C112.023 8.58666 107.828 6.328 102.431 6.328C97.0335 6.328 92.8095 8.58666 89.7588 13.104C86.7668 17.6213 85.2708 23.9867 85.2708 32.2C85.2708 40.4133 86.7668 46.7787 89.7588 51.296ZM172.381 29.384V35.016H156.717V50.68H151.085V35.016H135.421V29.384H151.085V13.72H156.717V29.384H172.381Z" fill="url(#paint0_linear_385_4437)"/>
<defs>
<linearGradient id="paint0_linear_385_4437" x1="-1.00012" y1="16.0555" x2="118.297" y2="112.394" gradientUnits="userSpaceOnUse">
<stop stop-color="#192EC5"/>
<stop offset="1" stop-color="#20BEBD"/>
</linearGradient>
</defs>
</svg>
