<svg width="141" height="65" viewBox="0 0 141 65" fill="none" xmlns="http://www.w3.org/2000/svg">
<path d="M20.3199 26.216C26.0692 26.216 30.9385 27.9173 34.9279 31.32C38.9759 34.664 40.9999 39.2693 40.9999 45.136C40.9999 51.0027 38.9759 55.6373 34.9279 59.04C30.9385 62.384 26.0692 64.056 20.3199 64.056C15.6852 64.056 11.5492 62.9413 7.91188 60.712C4.27454 58.424 1.81054 55.168 0.519878 50.944L5.71188 47.952C6.59188 51.2373 8.32255 53.76 10.9039 55.52C13.5439 57.2213 16.6825 58.072 20.3199 58.072C24.5439 58.072 28.0052 56.9573 30.7039 54.728C33.4612 52.44 34.8399 49.2427 34.8399 45.136C34.8399 41.0293 33.4612 37.8613 30.7039 35.632C28.0052 33.344 24.5439 32.2 20.3199 32.2H3.59988L5.79988 1.4H38.7999V7.208H11.2559L9.93588 26.216H20.3199ZM87.6846 55.432C83.6366 61.1813 77.9166 64.056 70.5246 64.056C63.1326 64.056 57.3832 61.1813 53.2766 55.432C49.2286 49.624 47.2046 41.88 47.2046 32.2C47.2046 22.52 49.2286 14.8053 53.2766 9.056C57.3832 3.248 63.1326 0.343999 70.5246 0.343999C77.9166 0.343999 83.6366 3.248 87.6846 9.056C91.7912 14.8053 93.8446 22.52 93.8446 32.2C93.8446 41.88 91.7912 49.624 87.6846 55.432ZM57.8526 51.296C60.9032 55.8133 65.1272 58.072 70.5246 58.072C75.9219 58.072 80.1166 55.8133 83.1086 51.296C86.1592 46.7787 87.6846 40.4133 87.6846 32.2C87.6846 23.9867 86.1592 17.6213 83.1086 13.104C80.1166 8.58666 75.9219 6.328 70.5246 6.328C65.1272 6.328 60.9032 8.58666 57.8526 13.104C54.8606 17.6213 53.3646 23.9867 53.3646 32.2C53.3646 40.4133 54.8606 46.7787 57.8526 51.296ZM140.474 29.384V35.016H124.81V50.68H119.178V35.016H103.514V29.384H119.178V13.72H124.81V29.384H140.474Z" fill="url(#paint0_linear_385_4435)"/>
<defs>
<linearGradient id="paint0_linear_385_4435" x1="-3.00012" y1="16.0555" x2="110.002" y2="92.0158" gradientUnits="userSpaceOnUse">
<stop stop-color="#192EC5"/>
<stop offset="1" stop-color="#20BEBD"/>
</linearGradient>
</defs>
</svg>
