<svg xmlns="http://www.w3.org/2000/svg" width="48" height="48" viewBox="0 0 48 48" fill="none">
  <path d="M39.7499 16.8422H29.4233L38.7093 5.10938C38.9015 4.86094 38.728 4.5 38.414 4.5H20.4374C20.3062 4.5 20.1796 4.57031 20.114 4.6875L7.96866 25.6641C7.82334 25.9125 8.00147 26.2266 8.29209 26.2266H16.4671L12.2765 42.9891C12.1874 43.3547 12.628 43.6125 12.8999 43.35L40.0077 17.4844C40.2515 17.2547 40.0874 16.8422 39.7499 16.8422ZM17.728 34.3359L20.5546 23.0391H13.1765L22.064 7.69219H32.5921L22.828 20.0344H32.7187L17.728 34.3359Z" fill="url(#paint0_linear_1149_4969)"/>
  <defs>
    <linearGradient id="paint0_linear_1149_4969" x1="14.9637" y1="4.5" x2="38.0682" y2="44.6406" gradientUnits="userSpaceOnUse">
      <stop stop-color="#192EC5"/>
      <stop offset="1" stop-color="#20BEBD"/>
    </linearGradient>
  </defs>
</svg>