<svg xmlns="http://www.w3.org/2000/svg" width="48" height="48" viewBox="0 0 48 48" fill="none">
  <path d="M21.7653 29.8668C21.3945 29.8668 21.0421 29.7184 20.7825 29.4588L16.2949 24.9711C15.7572 24.4334 15.7572 23.5432 16.2949 23.0055C16.8327 22.4677 17.7228 22.4677 18.2606 23.0055L21.7653 26.5103L29.7393 18.5364C30.2771 17.9986 31.1672 17.9986 31.705 18.5364C32.2428 19.0742 32.2428 19.9643 31.705 20.502L22.7482 29.4588C22.4886 29.7184 22.1362 29.8668 21.7653 29.8668Z" fill="url(#paint0_linear_1221_938)"/>
  <path d="M23.9864 43.935C22.8181 43.935 21.6498 43.5456 20.7412 42.7667L17.8111 40.2447C17.5144 39.9851 16.7727 39.7255 16.3832 39.7255H13.1937C10.4491 39.7255 8.22384 37.5002 8.22384 34.7557V31.5846C8.22384 31.1952 7.96422 30.472 7.7046 30.1753L5.20115 27.2268C3.68054 25.428 3.68054 22.5907 5.20115 20.792L7.7046 17.8435C7.96422 17.5468 8.22384 16.8235 8.22384 16.4341V13.2445C8.22384 10.5 10.4491 8.27472 13.1937 8.27472H16.4018C16.7912 8.27472 17.533 7.99656 17.8297 7.75548L20.7597 5.23349C22.577 3.67578 25.4143 3.67578 27.2316 5.23349L30.1616 7.75548C30.4583 8.0151 31.2 8.27472 31.5895 8.27472H34.7419C37.4865 8.27472 39.7118 10.5 39.7118 13.2445V16.397C39.7118 16.7865 39.9899 17.5282 40.2495 17.8249L42.7715 20.7549C44.3292 22.5722 44.3292 25.4094 42.7715 27.2268L40.2495 30.1567C39.9899 30.4534 39.7118 31.1952 39.7118 31.5846V34.7371C39.7118 37.4816 37.4865 39.7069 34.7419 39.7069H31.5895C31.2 39.7069 30.4583 39.9851 30.1616 40.2262L27.2316 42.7482C26.3229 43.5456 25.1547 43.935 23.9864 43.935ZM13.1937 11.0563C11.9883 11.0563 11.0054 12.0392 11.0054 13.2445V16.4156C11.0054 17.4726 10.5048 18.8263 9.81863 19.6237L7.31518 22.5722C6.66613 23.3325 6.66613 24.6491 7.31518 25.4094L9.81863 28.358C10.5048 29.1739 11.0054 30.5091 11.0054 31.5661V34.7371C11.0054 35.9425 11.9883 36.9253 13.1937 36.9253H16.4018C17.4773 36.9253 18.831 37.426 19.647 38.1307L22.577 40.6527C23.3373 41.3017 24.6725 41.3017 25.4328 40.6527L28.3628 38.1307C29.1787 37.4446 30.5324 36.9253 31.608 36.9253H34.7605C35.9659 36.9253 36.9487 35.9425 36.9487 34.7371V31.5846C36.9487 30.5091 37.4494 29.1554 38.1541 28.3394L40.6761 25.4094C41.3251 24.6491 41.3251 23.314 40.6761 22.5537L38.1541 19.6237C37.4494 18.8078 36.9487 17.454 36.9487 16.3785V13.2445C36.9487 12.0392 35.9659 11.0563 34.7605 11.0563H31.608C30.5324 11.0563 29.1787 10.5556 28.3628 9.85096L25.4328 7.32897C24.6725 6.67993 23.3373 6.67993 22.577 7.32897L19.647 9.86951C18.831 10.5556 17.4588 11.0563 16.4018 11.0563H13.1937Z" fill="url(#paint1_linear_1221_938)"/>
  <path d="M39.7118 34.7371V31.5846C39.7119 31.2439 39.9249 30.6337 40.1519 30.2877L40.2495 30.1567L42.7715 27.2268C44.3292 25.4094 44.3292 22.5722 42.7715 20.7549L40.2495 17.8249C40.0224 17.5653 39.7813 16.9649 39.7245 16.558L39.7118 16.397V13.2445C39.7118 10.5859 37.6235 8.41436 34.998 8.28109L34.7419 8.27472L34.7417 8.18239C37.5375 8.18239 39.8042 10.4492 39.8042 13.2449V16.3968C39.8042 16.575 39.8694 16.8457 39.9699 17.1131C40.0454 17.3138 40.1374 17.5033 40.2289 17.6428L40.3194 17.7641L42.8421 20.6942C44.4295 22.5462 44.4294 25.4349 42.8421 27.287L40.3194 30.2171C40.2005 30.353 40.0705 30.6009 39.9699 30.8681C39.8694 31.1354 39.8043 31.4062 39.8042 31.5843V34.7372C39.8042 37.5329 37.5374 39.7997 34.7417 39.7997H31.5898C31.4115 39.7997 31.1405 39.8651 30.8726 39.9636C30.6061 40.0616 30.3576 40.1852 30.2207 40.2959L30.2216 40.2968L27.2924 42.8185L27.2915 42.8176C26.3644 43.6309 25.1747 44.0273 23.9865 44.0273C22.7982 44.0273 21.6076 43.632 20.6806 42.8376L17.7505 40.3149C17.6152 40.1965 17.3679 40.0714 17.1004 39.9754C16.8334 39.8795 16.5624 39.8178 16.3833 39.8178H13.1933C10.3977 39.8176 8.13079 37.5509 8.13079 34.7553V31.5843C8.13072 31.4054 8.06988 31.1393 7.97414 30.8772C7.87826 30.6146 7.75329 30.3717 7.63459 30.2361L7.63369 30.2352L5.13005 27.287C3.58029 25.4537 3.58041 22.5656 5.13005 20.7322L7.63369 17.7831L7.63459 17.7822C7.75323 17.6466 7.87828 17.4044 7.97414 17.142C8.06994 16.8798 8.13079 16.6129 8.13079 16.434V13.2449C8.13079 10.4493 10.3977 8.18259 13.1933 8.18239L13.1937 8.27472L12.9379 8.28109C10.3122 8.4142 8.22384 10.5858 8.22384 13.2445V16.4341L8.21228 16.5942C8.15906 16.9976 7.93178 17.5838 7.7046 17.8435L5.20115 20.792L5.06305 20.9631C3.6818 22.7666 3.72798 25.4841 5.20115 27.2268L7.7046 30.1753C7.96422 30.472 8.22384 31.1952 8.22384 31.5846V34.7557L8.23039 35.0116C8.36359 37.6371 10.5351 39.7253 13.1937 39.7255H16.3832C16.7727 39.7255 17.5144 39.9851 17.8111 40.2447L20.7412 42.7667C21.593 43.4968 22.6732 43.8848 23.7674 43.9305L23.9864 43.935C25.1547 43.935 26.3229 43.5456 27.2316 42.7482L30.1616 40.2262C30.4213 40.0152 31.0218 39.7756 31.4286 39.7191L31.5895 39.7069H34.7419L34.998 39.7001C37.5389 39.5711 39.5769 37.5336 39.7055 34.9925L39.7118 34.7371ZM31.608 36.9253L31.4032 36.9312C30.3653 36.9907 29.1277 37.4874 28.3628 38.1307L25.4328 40.6527C24.6725 41.3017 23.3373 41.3017 22.577 40.6527L19.647 38.1307C18.8821 37.4702 17.6447 36.9888 16.6069 36.9312L16.4018 36.9253L16.4014 36.8325C17.4989 36.8325 18.8744 37.3411 19.7073 38.0603L22.6374 40.582L22.7786 40.6907C23.1227 40.9267 23.5618 41.0465 24.0046 41.0465C24.5107 41.0465 25.0116 40.8894 25.3719 40.582L28.302 38.0603L28.3029 38.0594C29.1346 37.36 30.5093 36.8325 31.6079 36.8325L31.608 36.9253ZM34.7607 36.8325L34.7605 36.9253H31.608L31.6079 36.8325H34.7607ZM36.856 34.7372V31.5843C36.8561 30.4867 37.3646 29.1113 38.0838 28.2785L40.6056 25.3493L40.7142 25.208C40.9502 24.8639 41.07 24.4248 41.0701 23.982C41.0701 23.539 40.9503 23.0993 40.7142 22.7551L40.6056 22.6138L38.0838 19.6846C37.3646 18.8518 36.8561 17.4764 36.856 16.3787V13.2449C36.856 12.0908 35.9148 11.1489 34.7607 11.1487H31.6079C30.5102 11.1487 29.1349 10.6402 28.302 9.9209L25.3719 7.39916C25.0117 7.09218 24.5104 6.93465 24.0046 6.93465C23.5617 6.93471 23.1228 7.05531 22.7786 7.29141L22.6374 7.39916L19.7082 9.93992L19.7064 9.94082C18.8737 10.6408 17.4802 11.1487 16.4014 11.1487H13.1933C12.0393 11.1489 11.098 12.0909 11.098 13.2449V16.4159C11.0979 17.4949 10.5898 18.8704 9.88922 19.6846L9.88831 19.6837L7.38559 22.6319C7.07804 22.9924 6.92108 23.4899 6.92108 23.991C6.92112 24.4922 7.07794 24.9888 7.38559 25.3493L9.88922 28.2984C10.5889 29.1304 11.098 30.4866 11.098 31.5662V34.7372C11.0981 35.8912 12.0393 36.8323 13.1933 36.8325L13.1937 36.9253L12.9705 36.914C11.9426 36.8091 11.1213 35.9879 11.0165 34.9599L11.0054 34.7371V31.5661C11.0054 30.5751 10.5657 29.3395 9.94536 28.5166L9.81863 28.358L7.31518 25.4094C6.66613 24.6491 6.66613 23.3325 7.31518 22.5722L9.81863 19.6237C10.4619 18.8761 10.9418 17.6395 10.9993 16.6169L11.0054 16.4156V13.2445C11.0054 12.1145 11.8693 11.1796 12.9705 11.0672L13.1937 11.0563H16.4018L16.6033 11.0509C17.628 10.9935 18.882 10.5127 19.647 9.86951L22.577 7.32897C23.3373 6.67993 24.6725 6.67993 25.4328 7.32897L28.3628 9.85096C29.1277 10.5116 30.3653 10.9933 31.4032 11.0509L31.608 11.0563H34.7605C35.9659 11.0563 36.9487 12.0392 36.9487 13.2445V16.3785L36.9547 16.5834C37.0123 17.6213 37.4935 18.8588 38.1541 19.6237L40.6761 22.5537C41.3251 23.314 41.3251 24.6491 40.6761 25.4094L38.1541 28.3394C37.4494 29.1554 36.9487 30.5091 36.9487 31.5846V34.7371L36.9375 34.9599C36.8328 35.988 36.0115 36.8091 34.9835 36.914L34.7605 36.9253L34.7607 36.8325C35.9148 36.8323 36.856 35.8912 36.856 34.7372ZM16.4014 36.8325L16.4018 36.9253H13.1937L13.1933 36.8325H16.4014ZM34.7417 8.18239L34.7419 8.27472H31.5895L31.5898 8.18239H34.7417ZM20.6997 5.16264C22.5516 3.57564 25.4396 3.57569 27.2915 5.16264L27.2924 5.16355L30.2216 7.68529C30.3568 7.8036 30.6044 7.92884 30.8717 8.02484C31.1388 8.12072 31.4106 8.18239 31.5898 8.18239L31.5895 8.27472L31.4286 8.26298C31.0798 8.21737 30.5889 8.04362 30.2922 7.8519L30.1616 7.75548L27.2316 5.23349C25.4143 3.67578 22.577 3.67578 20.7597 5.23349L17.8297 7.75548C17.5698 7.96637 16.9692 8.20562 16.5626 8.26208L16.4018 8.27472L16.4014 8.18239C16.5797 8.18239 16.8506 8.11696 17.1185 8.0185C17.3861 7.92016 17.6347 7.79451 17.7714 7.68348L20.6997 5.16264ZM16.4014 8.18239L16.4018 8.27472H13.1937L13.1933 8.18239H16.4014Z" fill="url(#paint2_linear_1221_938)"/>
  <defs>
    <linearGradient id="paint0_linear_1221_938" x1="19.4397" y1="18.1331" x2="24.3943" y2="32.5228" gradientUnits="userSpaceOnUse">
      <stop stop-color="#192EC5"/>
      <stop offset="1" stop-color="#20BEBD"/>
    </linearGradient>
    <linearGradient id="paint1_linear_1221_938" x1="12.7337" y1="3.97241" x2="34.049" y2="48.7769" gradientUnits="userSpaceOnUse">
      <stop stop-color="#192EC5"/>
      <stop offset="1" stop-color="#20BEBD"/>
    </linearGradient>
    <linearGradient id="paint2_linear_1221_938" x1="12.7337" y1="3.97241" x2="34.049" y2="48.7769" gradientUnits="userSpaceOnUse">
      <stop stop-color="#192EC5"/>
      <stop offset="1" stop-color="#20BEBD"/>
    </linearGradient>
  </defs>
</svg>