<svg xmlns="http://www.w3.org/2000/svg" width="31" height="38" viewBox="0 0 31 38" fill="none">
  <path d="M16.2514 0.0265316C13.6336 -0.248638 11.2984 1.6478 11.0232 4.26564L10.5398 8.77248L9.25319 5.09859C8.38306 2.62205 5.66111 1.32057 3.18458 2.19071C0.708047 3.06084 -0.60087 5.78279 0.269262 8.25932L4.19601 19.4223C3.06558 20.5007 2.35907 22.0327 2.35907 23.7209V25.5058C2.35907 32.4074 7.95171 38 14.8533 38H18.423C25.3246 38 30.9173 32.4074 30.9173 25.5058V20.1511V18.9612V16.5814C30.9173 13.9561 28.7828 11.8217 26.1576 11.8217C25.57 11.8217 25.0123 11.9258 24.4917 12.1191C23.7182 10.5351 22.0895 9.44181 20.2079 9.44181C20.1559 9.44181 20.0964 9.44181 20.0443 9.44181L20.4831 5.25476C20.7583 2.63693 18.8618 0.301702 16.244 0.0265316H16.2514ZM16.2366 11.5837C15.7383 12.3348 15.4482 13.2347 15.4482 14.2015V17.7713C15.4482 17.8233 15.4482 17.8754 15.4482 17.92C15.0689 17.8233 14.6673 17.7713 14.2583 17.7713H13.708L13.3064 16.6334L14.5707 4.63749C14.6376 3.98303 15.2251 3.50706 15.8796 3.58143C16.534 3.6558 17.01 4.23589 16.9356 4.89035L16.2291 11.5911L16.2366 11.5837ZM5.88422 6.28851L9.92253 17.7713H8.30869C8.01121 17.7713 7.71373 17.7936 7.42368 17.8382L3.63824 7.07683C3.42256 6.45956 3.74979 5.77535 4.36706 5.55968C4.98434 5.34401 5.66854 5.67124 5.88422 6.28851ZM19.018 14.2015C19.018 13.5471 19.5535 13.0116 20.2079 13.0116C20.8624 13.0116 21.3979 13.5471 21.3979 14.2015V16.5814V17.7713C21.3979 18.4257 20.8624 18.9612 20.2079 18.9612C19.5535 18.9612 19.018 18.4257 19.018 17.7713V14.2015ZM21.8738 22.2335C22.6473 23.8176 24.276 24.9108 26.1576 24.9108C26.5666 24.9108 26.9682 24.8588 27.3475 24.7621V25.5058C27.3475 30.4365 23.3538 34.4302 18.423 34.4302H14.8533C9.92253 34.4302 5.92884 30.4365 5.92884 25.5058V23.7209C5.92884 22.4046 6.99234 21.3411 8.30869 21.3411H14.2583C14.9128 21.3411 15.4482 21.8765 15.4482 22.531C15.4482 23.1854 14.9128 23.7209 14.2583 23.7209H11.2835C10.2944 23.7209 9.49861 24.5167 9.49861 25.5058C9.49861 26.4949 10.2944 27.2907 11.2835 27.2907H14.2583C16.8836 27.2907 19.018 25.1563 19.018 22.531C19.018 22.4789 19.018 22.4269 19.018 22.3822C19.3973 22.4789 19.7989 22.531 20.2079 22.531C20.7955 22.531 21.3532 22.4269 21.8738 22.2335ZM27.3475 20.1511C27.3475 20.8056 26.812 21.3411 26.1576 21.3411C25.5031 21.3411 24.9676 20.8056 24.9676 20.1511V17.7713V16.5814C24.9676 15.9269 25.5031 15.3914 26.1576 15.3914C26.812 15.3914 27.3475 15.9269 27.3475 16.5814V18.9612V20.1511Z" fill="url(#paint0_linear_1149_4963)"/>
  <defs>
    <linearGradient id="paint0_linear_1149_4963" x1="6.76451" y1="5.393e-07" x2="29.4809" y2="38.8401" gradientUnits="userSpaceOnUse">
      <stop stop-color="#192EC5"/>
      <stop offset="1" stop-color="#20BEBD"/>
    </linearGradient>
  </defs>
</svg>