<svg xmlns="http://www.w3.org/2000/svg" width="12" height="13" viewBox="0 0 12 13" fill="none">
  <path d="M11.34 0.464355H0.66C0.484957 0.464355 0.317084 0.533891 0.19331 0.657665C0.0695356 0.781439 0 0.949313 0 1.12436V11.8044C0 11.891 0.0170715 11.9769 0.0502396 12.0569C0.0834077 12.137 0.132023 12.2098 0.19331 12.271C0.254596 12.3323 0.327354 12.3809 0.407429 12.4141C0.487504 12.4473 0.573328 12.4644 0.66 12.4644H6.408V7.81436H4.848V6.01436H6.408V4.66436C6.37569 4.34741 6.4131 4.02723 6.51763 3.72628C6.62216 3.42532 6.79126 3.15088 7.01308 2.9222C7.2349 2.69352 7.50406 2.51614 7.8017 2.4025C8.09933 2.28886 8.41822 2.24171 8.736 2.26436C9.203 2.26148 9.66977 2.28552 10.134 2.33636V3.95636H9.18C8.424 3.95636 8.28 4.31636 8.28 4.83836V5.99636H10.08L9.846 7.79636H8.28V12.4644H11.34C11.4267 12.4644 11.5125 12.4473 11.5926 12.4141C11.6726 12.3809 11.7454 12.3323 11.8067 12.271C11.868 12.2098 11.9166 12.137 11.9498 12.0569C11.9829 11.9769 12 11.891 12 11.8044V1.12436C12 1.03768 11.9829 0.951859 11.9498 0.871784C11.9166 0.79171 11.868 0.718952 11.8067 0.657665C11.7454 0.596378 11.6726 0.547763 11.5926 0.514595C11.5125 0.481427 11.4267 0.464355 11.34 0.464355Z" fill="white"/>
</svg>
