<svg width="614" height="697" viewBox="0 0 614 697" fill="none" xmlns="http://www.w3.org/2000/svg">
<g opacity="0.3">
<path d="M689.361 1285.75C1069.12 1285.75 1376.98 971.508 1376.98 583.874C1376.98 196.24 1069.12 -118 689.361 -118C309.6 -118 1.74341 196.24 1.74341 583.874C1.74341 971.508 309.6 1285.75 689.361 1285.75Z" stroke="url(#paint0_linear_715_554)" stroke-width="2.5" stroke-miterlimit="10"/>
<path d="M689.36 1258.62C1054.45 1258.62 1350.41 956.529 1350.41 583.874C1350.41 211.22 1054.45 -90.8765 689.36 -90.8765C324.276 -90.8765 28.316 211.22 28.316 583.874C28.316 956.529 324.276 1258.62 689.36 1258.62Z" stroke="url(#paint1_linear_715_554)" stroke-width="2.5" stroke-miterlimit="10"/>
<path d="M689.36 1231.49C1039.77 1231.49 1323.82 941.544 1323.82 583.874C1323.82 226.204 1039.77 -63.7451 689.36 -63.7451C338.955 -63.7451 54.896 226.204 54.896 583.874C54.896 941.544 338.955 1231.49 689.36 1231.49Z" stroke="url(#paint2_linear_715_554)" stroke-width="2.5" stroke-miterlimit="10"/>
<path d="M689.36 1204.37C1025.09 1204.37 1297.25 926.564 1297.25 583.874C1297.25 241.184 1025.09 -36.6216 689.36 -36.6216C353.631 -36.6216 81.4686 241.184 81.4686 583.874C81.4686 926.564 353.631 1204.37 689.36 1204.37Z" stroke="url(#paint3_linear_715_554)" stroke-width="2.5" stroke-miterlimit="10"/>
<path d="M689.36 1177.25C1010.41 1177.25 1270.68 911.585 1270.68 583.874C1270.68 256.164 1010.41 -9.49805 689.36 -9.49805C368.307 -9.49805 108.041 256.164 108.041 583.874C108.041 911.585 368.307 1177.25 689.36 1177.25Z" stroke="url(#paint4_linear_715_554)" stroke-width="2.5" stroke-miterlimit="10"/>
<path d="M689.36 1150.12C995.739 1150.12 1244.11 896.605 1244.11 583.874C1244.11 271.144 995.739 17.6255 689.36 17.6255C382.982 17.6255 134.614 271.144 134.614 583.874C134.614 896.605 382.982 1150.12 689.36 1150.12Z" stroke="url(#paint5_linear_715_554)" stroke-width="2.5" stroke-miterlimit="10"/>
<path d="M689.361 1122.99C981.059 1122.99 1217.53 881.621 1217.53 583.875C1217.53 286.128 981.059 44.7573 689.361 44.7573C397.663 44.7573 161.194 286.128 161.194 583.875C161.194 881.621 397.663 1122.99 689.361 1122.99Z" stroke="url(#paint6_linear_715_554)" stroke-width="2.5" stroke-miterlimit="10"/>
<path d="M689.361 1095.87C966.384 1095.87 1190.95 866.641 1190.95 583.875C1190.95 301.108 966.384 71.8809 689.361 71.8809C412.338 71.8809 187.767 301.108 187.767 583.875C187.767 866.641 412.338 1095.87 689.361 1095.87Z" stroke="url(#paint7_linear_715_554)" stroke-width="2.5" stroke-miterlimit="10"/>
<path d="M689.36 1068.74C951.707 1068.74 1164.38 851.661 1164.38 583.875C1164.38 316.088 951.707 99.0044 689.36 99.0044C427.013 99.0044 214.339 316.088 214.339 583.875C214.339 851.661 427.013 1068.74 689.36 1068.74Z" stroke="url(#paint8_linear_715_554)" stroke-width="2.5" stroke-miterlimit="10"/>
<path d="M689.36 1041.62C937.032 1041.62 1137.81 836.681 1137.81 583.875C1137.81 331.068 937.032 126.128 689.36 126.128C441.689 126.128 240.912 331.068 240.912 583.875C240.912 836.681 441.689 1041.62 689.36 1041.62Z" stroke="url(#paint9_linear_715_554)" stroke-width="2.5" stroke-miterlimit="10"/>
<path d="M689.361 1014.49C922.352 1014.49 1111.23 821.696 1111.23 583.874C1111.23 346.052 922.352 153.259 689.361 153.259C456.369 153.259 267.492 346.052 267.492 583.874C267.492 821.696 456.369 1014.49 689.361 1014.49Z" stroke="url(#paint10_linear_715_554)" stroke-width="2.5" stroke-miterlimit="10"/>
<path d="M689.361 987.366C907.677 987.366 1084.66 806.717 1084.66 583.874C1084.66 361.032 907.677 180.382 689.361 180.382C471.045 180.382 294.065 361.032 294.065 583.874C294.065 806.717 471.045 987.366 689.361 987.366Z" stroke="url(#paint11_linear_715_554)" stroke-width="2.5" stroke-miterlimit="10"/>
<path d="M689.361 960.242C893.001 960.242 1058.08 791.737 1058.08 583.874C1058.08 376.012 893.001 207.506 689.361 207.506C485.721 207.506 320.638 376.012 320.638 583.874C320.638 791.737 485.721 960.242 689.361 960.242Z" stroke="url(#paint12_linear_715_554)" stroke-width="2.5" stroke-miterlimit="10"/>
<path d="M689.361 933.118C878.325 933.118 1031.51 776.756 1031.51 583.874C1031.51 390.991 878.325 234.629 689.361 234.629C500.396 234.629 347.21 390.991 347.21 583.874C347.21 776.756 500.396 933.118 689.361 933.118Z" stroke="url(#paint13_linear_715_554)" stroke-width="2.5" stroke-miterlimit="10"/>
<path d="M689.361 905.988C863.645 905.988 1004.93 761.772 1004.93 583.874C1004.93 405.976 863.645 261.761 689.361 261.761C515.076 261.761 373.79 405.976 373.79 583.874C373.79 761.772 515.076 905.988 689.361 905.988Z" stroke="url(#paint14_linear_715_554)" stroke-width="2.5" stroke-miterlimit="10"/>
<path d="M689.361 878.864C848.97 878.864 978.358 746.793 978.358 583.874C978.358 420.956 848.97 288.884 689.361 288.884C529.751 288.884 400.363 420.956 400.363 583.874C400.363 746.793 529.751 878.864 689.361 878.864Z" stroke="url(#paint15_linear_715_554)" stroke-width="2.5" stroke-miterlimit="10"/>
<path d="M689.361 851.74C834.294 851.74 951.786 731.812 951.786 583.874C951.786 435.935 834.294 316.007 689.361 316.007C544.427 316.007 426.935 435.935 426.935 583.874C426.935 731.812 544.427 851.74 689.361 851.74Z" stroke="url(#paint16_linear_715_554)" stroke-width="2.5" stroke-miterlimit="10"/>
<path d="M689.361 824.616C819.619 824.616 925.213 716.832 925.213 583.874C925.213 450.915 819.619 343.131 689.361 343.131C559.103 343.131 453.508 450.915 453.508 583.874C453.508 716.832 559.103 824.616 689.361 824.616Z" stroke="url(#paint17_linear_715_554)" stroke-width="2.5" stroke-miterlimit="10"/>
<path d="M689.36 797.486C804.938 797.486 898.633 701.849 898.633 583.875C898.633 465.9 804.938 370.263 689.36 370.263C573.783 370.263 480.088 465.9 480.088 583.875C480.088 701.849 573.783 797.486 689.36 797.486Z" stroke="url(#paint18_linear_715_554)" stroke-width="2.5" stroke-miterlimit="10"/>
<path d="M689.361 770.362C790.263 770.362 872.06 686.868 872.06 583.874C872.06 480.879 790.263 397.386 689.361 397.386C588.458 397.386 506.661 480.879 506.661 583.874C506.661 686.868 588.458 770.362 689.361 770.362Z" stroke="url(#paint19_linear_715_554)" stroke-width="2.5" stroke-miterlimit="10"/>
<path d="M689.361 743.239C775.587 743.239 845.488 671.889 845.488 583.874C845.488 495.86 775.587 424.51 689.361 424.51C603.134 424.51 533.233 495.86 533.233 583.874C533.233 671.889 603.134 743.239 689.361 743.239Z" stroke="url(#paint20_linear_715_554)" stroke-width="2.5" stroke-miterlimit="10"/>
<path d="M689.361 716.115C760.912 716.115 818.915 656.909 818.915 583.874C818.915 510.84 760.912 451.633 689.361 451.633C617.809 451.633 559.806 510.84 559.806 583.874C559.806 656.909 617.809 716.115 689.361 716.115Z" stroke="url(#paint21_linear_715_554)" stroke-width="2.5" stroke-miterlimit="10"/>
<path d="M689.36 688.984C746.232 688.984 792.335 641.925 792.335 583.874C792.335 525.824 746.232 478.765 689.36 478.765C632.489 478.765 586.386 525.824 586.386 583.874C586.386 641.925 632.489 688.984 689.36 688.984Z" stroke="url(#paint22_linear_715_554)" stroke-width="2.5" stroke-miterlimit="10"/>
<path d="M689.361 661.86C731.557 661.86 765.763 626.945 765.763 583.874C765.763 540.804 731.557 505.888 689.361 505.888C647.165 505.888 612.959 540.804 612.959 583.874C612.959 626.945 647.165 661.86 689.361 661.86Z" stroke="url(#paint23_linear_715_554)" stroke-width="2.5" stroke-miterlimit="10"/>
</g>
<defs>
<linearGradient id="paint0_linear_715_554" x1="1.74341" y1="583.874" x2="1376.98" y2="583.874" gradientUnits="userSpaceOnUse">
<stop stop-color="#192EC5"/>
<stop offset="1" stop-color="#20BEBD"/>
</linearGradient>
<linearGradient id="paint1_linear_715_554" x1="28.316" y1="583.874" x2="1350.41" y2="583.874" gradientUnits="userSpaceOnUse">
<stop stop-color="#192EC5"/>
<stop offset="1" stop-color="#20BEBD"/>
</linearGradient>
<linearGradient id="paint2_linear_715_554" x1="54.896" y1="583.874" x2="1323.82" y2="583.874" gradientUnits="userSpaceOnUse">
<stop stop-color="#192EC5"/>
<stop offset="1" stop-color="#20BEBD"/>
</linearGradient>
<linearGradient id="paint3_linear_715_554" x1="81.4686" y1="583.874" x2="1297.25" y2="583.874" gradientUnits="userSpaceOnUse">
<stop stop-color="#192EC5"/>
<stop offset="1" stop-color="#20BEBD"/>
</linearGradient>
<linearGradient id="paint4_linear_715_554" x1="108.041" y1="583.874" x2="1270.68" y2="583.874" gradientUnits="userSpaceOnUse">
<stop stop-color="#192EC5"/>
<stop offset="1" stop-color="#20BEBD"/>
</linearGradient>
<linearGradient id="paint5_linear_715_554" x1="134.614" y1="583.874" x2="1244.11" y2="583.874" gradientUnits="userSpaceOnUse">
<stop stop-color="#192EC5"/>
<stop offset="1" stop-color="#20BEBD"/>
</linearGradient>
<linearGradient id="paint6_linear_715_554" x1="161.194" y1="583.875" x2="1217.53" y2="583.875" gradientUnits="userSpaceOnUse">
<stop stop-color="#192EC5"/>
<stop offset="1" stop-color="#20BEBD"/>
</linearGradient>
<linearGradient id="paint7_linear_715_554" x1="187.767" y1="583.875" x2="1190.95" y2="583.875" gradientUnits="userSpaceOnUse">
<stop stop-color="#192EC5"/>
<stop offset="1" stop-color="#20BEBD"/>
</linearGradient>
<linearGradient id="paint8_linear_715_554" x1="214.339" y1="583.875" x2="1164.38" y2="583.875" gradientUnits="userSpaceOnUse">
<stop stop-color="#192EC5"/>
<stop offset="1" stop-color="#20BEBD"/>
</linearGradient>
<linearGradient id="paint9_linear_715_554" x1="240.912" y1="583.875" x2="1137.81" y2="583.875" gradientUnits="userSpaceOnUse">
<stop stop-color="#192EC5"/>
<stop offset="1" stop-color="#20BEBD"/>
</linearGradient>
<linearGradient id="paint10_linear_715_554" x1="267.492" y1="583.874" x2="1111.23" y2="583.874" gradientUnits="userSpaceOnUse">
<stop stop-color="#192EC5"/>
<stop offset="1" stop-color="#20BEBD"/>
</linearGradient>
<linearGradient id="paint11_linear_715_554" x1="294.065" y1="583.874" x2="1084.66" y2="583.874" gradientUnits="userSpaceOnUse">
<stop stop-color="#192EC5"/>
<stop offset="1" stop-color="#20BEBD"/>
</linearGradient>
<linearGradient id="paint12_linear_715_554" x1="320.638" y1="583.874" x2="1058.08" y2="583.874" gradientUnits="userSpaceOnUse">
<stop stop-color="#192EC5"/>
<stop offset="1" stop-color="#20BEBD"/>
</linearGradient>
<linearGradient id="paint13_linear_715_554" x1="347.21" y1="583.874" x2="1031.51" y2="583.874" gradientUnits="userSpaceOnUse">
<stop stop-color="#192EC5"/>
<stop offset="1" stop-color="#20BEBD"/>
</linearGradient>
<linearGradient id="paint14_linear_715_554" x1="373.79" y1="583.874" x2="1004.93" y2="583.874" gradientUnits="userSpaceOnUse">
<stop stop-color="#192EC5"/>
<stop offset="1" stop-color="#20BEBD"/>
</linearGradient>
<linearGradient id="paint15_linear_715_554" x1="400.363" y1="583.874" x2="978.358" y2="583.874" gradientUnits="userSpaceOnUse">
<stop stop-color="#192EC5"/>
<stop offset="1" stop-color="#20BEBD"/>
</linearGradient>
<linearGradient id="paint16_linear_715_554" x1="426.935" y1="583.874" x2="951.786" y2="583.874" gradientUnits="userSpaceOnUse">
<stop stop-color="#192EC5"/>
<stop offset="1" stop-color="#20BEBD"/>
</linearGradient>
<linearGradient id="paint17_linear_715_554" x1="453.508" y1="583.874" x2="925.213" y2="583.874" gradientUnits="userSpaceOnUse">
<stop stop-color="#192EC5"/>
<stop offset="1" stop-color="#20BEBD"/>
</linearGradient>
<linearGradient id="paint18_linear_715_554" x1="480.088" y1="583.875" x2="898.633" y2="583.875" gradientUnits="userSpaceOnUse">
<stop stop-color="#192EC5"/>
<stop offset="1" stop-color="#20BEBD"/>
</linearGradient>
<linearGradient id="paint19_linear_715_554" x1="506.661" y1="583.874" x2="872.06" y2="583.874" gradientUnits="userSpaceOnUse">
<stop stop-color="#192EC5"/>
<stop offset="1" stop-color="#20BEBD"/>
</linearGradient>
<linearGradient id="paint20_linear_715_554" x1="533.233" y1="583.874" x2="845.488" y2="583.874" gradientUnits="userSpaceOnUse">
<stop stop-color="#192EC5"/>
<stop offset="1" stop-color="#20BEBD"/>
</linearGradient>
<linearGradient id="paint21_linear_715_554" x1="559.806" y1="583.874" x2="818.915" y2="583.874" gradientUnits="userSpaceOnUse">
<stop stop-color="#192EC5"/>
<stop offset="1" stop-color="#20BEBD"/>
</linearGradient>
<linearGradient id="paint22_linear_715_554" x1="586.386" y1="583.874" x2="792.335" y2="583.874" gradientUnits="userSpaceOnUse">
<stop stop-color="#192EC5"/>
<stop offset="1" stop-color="#20BEBD"/>
</linearGradient>
<linearGradient id="paint23_linear_715_554" x1="612.959" y1="583.874" x2="765.763" y2="583.874" gradientUnits="userSpaceOnUse">
<stop stop-color="#192EC5"/>
<stop offset="1" stop-color="#20BEBD"/>
</linearGradient>
</defs>
</svg>
