<svg xmlns="http://www.w3.org/2000/svg" width="12" height="13" viewBox="0 0 12 13" fill="none">
  <g clip-path="url(#clip0_761_620)">
    <path d="M9.5 0.464355H2.5C0.5 0.464355 0 0.964355 0 2.96436V9.96436C0 11.9644 0.5 12.4644 2.5 12.4644H9.5C11.5 12.4644 12 11.9644 12 9.96436V2.96436C12 0.964355 11.5 0.464355 9.5 0.464355ZM4 9.96436H2.5V4.46436H4V9.96436ZM3.25 3.83036C2.767 3.83036 2.375 3.43536 2.375 2.94836C2.375 2.46136 2.767 2.06636 3.25 2.06636C3.733 2.06636 4.125 2.46136 4.125 2.94836C4.125 3.43536 3.7335 3.83036 3.25 3.83036ZM10 9.96436H8.5V7.16236C8.5 5.47836 6.5 5.60586 6.5 7.16236V9.96436H5V4.46436H6.5V5.34686C7.198 4.05386 10 3.95836 10 6.58486V9.96436Z" fill="white"/>
  </g>
  <defs>
    <clipPath id="clip0_761_620">
      <rect width="12" height="12" fill="white" transform="translate(0 0.464355)"/>
    </clipPath>
  </defs>
</svg>