<svg width="474" height="943" viewBox="0 0 474 943" fill="none" xmlns="http://www.w3.org/2000/svg">
<g opacity="0.3">
<path d="M537.906 405.727C571.741 439.561 571.741 494.416 537.906 528.25C504.072 562.084 449.218 562.084 415.383 528.25C381.549 494.416 381.549 439.561 415.383 405.727C449.218 371.892 504.072 371.892 537.906 405.727Z" fill="url(#paint0_radial_385_4469)"/>
<path d="M637.832 629.077C702.777 564.132 718.729 468.008 686.979 386.61L768.047 305.541C840.778 434.457 822.869 598.903 715.264 706.509C585.115 836.657 370.92 833.425 239.408 701.913C107.905 570.41 105.473 357.033 235.63 226.876C343.236 119.27 507.682 101.361 636.598 174.092L555.529 255.16C474.131 223.411 378.007 239.363 313.062 304.308C225.499 391.871 227.54 537.741 316.378 626.58C405.224 715.425 549.469 717.44 637.832 629.077Z" fill="url(#paint1_radial_385_4469)"/>
</g>
<defs>
<radialGradient id="paint0_radial_385_4469" cx="0" cy="0" r="1" gradientTransform="matrix(-11.8426 118.901 -849.297 -111.724 462.982 431.192)" gradientUnits="userSpaceOnUse">
<stop stop-color="#CBCEE6"/>
<stop offset="1" stop-color="white" stop-opacity="0"/>
</radialGradient>
<radialGradient id="paint1_radial_385_4469" cx="0" cy="0" r="1" gradientTransform="matrix(-37.2211 456.317 -3273.13 -488.912 416.037 332.487)" gradientUnits="userSpaceOnUse">
<stop stop-color="#CBCEE6"/>
<stop offset="1" stop-color="white" stop-opacity="0"/>
</radialGradient>
</defs>
</svg>
