<svg xmlns="http://www.w3.org/2000/svg" width="59" height="59" viewBox="0 0 59 59" fill="none">
  <path d="M27.3631 27.3257C25.3845 23.9268 22.5908 18.9151 21.5144 15.9541C19.772 11.1609 19.9291 7.77477 21.0397 5.40509C22.6905 1.88291 26.0952 0.121826 29.4999 0.121826C32.9046 0.121826 36.3093 1.88291 37.9601 5.40509C39.0707 7.77477 39.2279 11.1609 37.4854 15.9541C36.4091 18.9151 33.6154 23.9267 31.6367 27.3256C35.0357 25.347 40.0473 22.5534 43.0082 21.477C47.8015 19.7345 51.1876 19.8917 53.5572 21.0023C57.0794 22.6531 58.8405 26.0578 58.8405 29.4625C58.8405 32.8672 57.0794 36.2719 53.5572 37.9227C51.1876 39.0333 47.8015 39.1905 43.0082 37.448C40.0473 36.3717 35.0358 33.578 31.6368 31.5994C33.6155 34.9984 36.4091 40.0099 37.4854 42.9708C39.2279 47.764 39.0707 51.1501 37.9601 53.5198C36.3093 57.042 32.9046 58.8031 29.4999 58.8031C26.0952 58.8031 22.6905 57.042 21.0397 53.5198C19.9291 51.1501 19.772 47.764 21.5144 42.9708C22.5908 40.0099 25.3844 34.9983 27.3631 31.5993C23.9641 33.578 18.9525 36.3717 15.9916 37.448C11.1983 39.1905 7.81219 39.0333 5.4425 37.9227C1.92033 36.2719 0.15924 32.8672 0.159241 29.4625C0.159241 26.0578 1.92033 22.6531 5.4425 21.0023C7.81219 19.8917 11.1983 19.7345 15.9916 21.477C18.9525 22.5534 23.9642 25.3471 27.3631 27.3257Z" fill="url(#paint0_linear_385_4891)"/>
  <defs>
    <linearGradient id="paint0_linear_385_4891" x1="0.15924" y1="5.50767" x2="58.8405" y2="53.4172" gradientUnits="userSpaceOnUse">
      <stop stop-color="#20BEBD"/>
      <stop offset="1" stop-color="#5B6DEE"/>
    </linearGradient>
  </defs>
</svg>