<svg xmlns="http://www.w3.org/2000/svg" width="40" height="40" viewBox="0 0 40 40" fill="none">
  <g clip-path="url(#clip0_1227_31)">
    <path d="M20 0C31.0456 0 39.9999 8.95442 40 20C40 31.0457 31.0457 40 20 40C8.9543 40 0 31.0457 0 20C0.000131942 8.95442 8.95439 0 20 0ZM20 1.34668C9.69815 1.34668 1.34678 9.69817 1.34668 20C1.34668 30.3019 9.69809 38.6533 20 38.6533C30.3019 38.6533 38.6533 30.3019 38.6533 20C38.6532 9.69819 30.3018 1.34671 20 1.34668Z" fill="url(#paint0_linear_1227_31)"/>
    <circle cx="19.9999" cy="20" r="11.08" fill="url(#paint1_linear_1227_31)"/>
  </g>
  <defs>
    <linearGradient id="paint0_linear_1227_31" x1="19.4466" y1="-3.54189" x2="18.6136" y2="42.0662" gradientUnits="userSpaceOnUse">
      <stop stop-color="#20BEBD"/>
      <stop offset="1" stop-color="#5B6DEE"/>
    </linearGradient>
    <linearGradient id="paint1_linear_1227_31" x1="19.6934" y1="6.95778" x2="19.2319" y2="32.2247" gradientUnits="userSpaceOnUse">
      <stop stop-color="#20BEBD"/>
      <stop offset="1" stop-color="#5B6DEE"/>
    </linearGradient>
    <clipPath id="clip0_1227_31">
      <rect width="40" height="40" fill="white"/>
    </clipPath>
  </defs>
</svg>