<svg xmlns="http://www.w3.org/2000/svg" width="59" height="59" viewBox="0 0 59 59" fill="none">
  <path d="M40.9427 11.5647C40.9427 17.8844 35.8196 23.0075 29.4999 23.0075C23.1802 23.0075 18.057 17.8844 18.057 11.5647C18.057 5.24496 23.1802 0.121826 29.4999 0.121826C35.8196 0.121826 40.9427 5.24496 40.9427 11.5647Z" fill="url(#paint0_radial_385_4870)"/>
  <path d="M40.9427 47.3602C40.9427 53.68 35.8196 58.8031 29.4999 58.8031C23.1802 58.8031 18.057 53.68 18.057 47.3602C18.057 41.0405 23.1802 35.9174 29.4999 35.9174C35.8196 35.9174 40.9427 41.0405 40.9427 47.3602Z" fill="url(#paint1_radial_385_4870)"/>
  <path d="M47.3977 40.9053C41.0779 40.9053 35.9548 35.7822 35.9548 29.4625C35.9548 23.1427 41.0779 18.0196 47.3977 18.0196C53.7174 18.0196 58.8405 23.1427 58.8405 29.4625C58.8405 35.7822 53.7174 40.9053 47.3977 40.9053Z" fill="url(#paint2_radial_385_4870)"/>
  <path d="M11.6021 40.9053C5.28238 40.9053 0.15924 35.7822 0.159241 29.4625C0.159241 23.1427 5.28238 18.0196 11.6021 18.0196C17.9218 18.0196 23.0449 23.1427 23.0449 29.4625C23.0449 35.7822 17.9218 40.9053 11.6021 40.9053Z" fill="url(#paint3_radial_385_4870)"/>
  <defs>
    <radialGradient id="paint0_radial_385_4870" cx="0" cy="0" r="1" gradientUnits="userSpaceOnUse" gradientTransform="translate(29.4999 29.4625) scale(29.3406)">
      <stop stop-color="#5B6DEE"/>
      <stop offset="1" stop-color="#20BEBD"/>
    </radialGradient>
    <radialGradient id="paint1_radial_385_4870" cx="0" cy="0" r="1" gradientUnits="userSpaceOnUse" gradientTransform="translate(29.4999 29.4625) scale(29.3406)">
      <stop stop-color="#5B6DEE"/>
      <stop offset="1" stop-color="#20BEBD"/>
    </radialGradient>
    <radialGradient id="paint2_radial_385_4870" cx="0" cy="0" r="1" gradientUnits="userSpaceOnUse" gradientTransform="translate(29.4999 29.4625) scale(29.3406)">
      <stop stop-color="#5B6DEE"/>
      <stop offset="1" stop-color="#20BEBD"/>
    </radialGradient>
    <radialGradient id="paint3_radial_385_4870" cx="0" cy="0" r="1" gradientUnits="userSpaceOnUse" gradientTransform="translate(29.4999 29.4625) scale(29.3406)">
      <stop stop-color="#5B6DEE"/>
      <stop offset="1" stop-color="#20BEBD"/>
    </radialGradient>
  </defs>
</svg>