<svg width="20" height="20" viewBox="0 0 20 20" fill="none" xmlns="http://www.w3.org/2000/svg">
<path d="M10.1596 12.6305C11.5356 12.6305 12.651 11.4603 12.651 10.0168C12.651 8.57335 11.5356 7.40317 10.1596 7.40317C8.78364 7.40317 7.66817 8.57335 7.66817 10.0168C7.66817 11.4603 8.78364 12.6305 10.1596 12.6305Z" fill="white"/>
<path d="M15.877 12.5969C14.9188 14.909 12.7149 16.5509 10.1596 16.5509C6.70997 16.5509 3.93107 13.6021 3.93107 10.0167C3.93107 6.43136 6.74189 3.44911 10.1596 3.44911C12.7149 3.44911 14.9188 5.09101 15.877 7.4031H19.2628C18.1768 3.18104 14.5036 0.0982666 10.1596 0.0982666C4.95318 0.0982666 0.737 4.55488 0.737 9.98323C0.737 15.4116 4.95318 19.9017 10.1596 19.9017C14.5036 19.9017 18.1768 16.8189 19.2628 12.5969H15.877Z" fill="white"/>
</svg>
