<svg xmlns="http://www.w3.org/2000/svg" width="139" height="38" viewBox="0 0 139 38" fill="none">
  <path d="M29.6376 8.80896L23.6105 29.2557H18.3368L15.3233 18.3251L12.3097 29.2557H7.09875L1.07166 8.80896H7.09875L9.7984 19.8038L12.7492 8.80896H18.0229L20.9736 19.8038L23.6733 8.80896H29.6376Z" fill="white"/>
  <path d="M40.7504 24.3689C42.3828 24.3689 43.764 23.7259 44.5801 22.8257L49.3516 25.6549C47.4053 28.4196 44.4546 29.8985 40.6248 29.8985C33.7816 29.8985 29.5752 25.2047 29.5752 19.0965C29.5752 12.9882 33.9072 8.29443 40.1853 8.29443C46.0241 8.29443 50.3561 12.9239 50.3561 19.0965C50.3561 19.9324 50.2933 20.7682 50.105 21.5398H35.9789C36.7323 23.5973 38.5531 24.3689 40.7504 24.3689ZM44.4546 16.9103C43.8267 14.5313 42.006 13.6954 40.2482 13.6954C37.988 13.6954 36.4812 14.8528 35.9162 16.9103H44.4546Z" fill="white"/>
  <path d="M137.57 16.7173V29.2553H131.607V17.6175C131.607 15.1098 130.037 13.8881 128.153 13.8881C125.956 13.8881 124.449 15.1741 124.449 18.1318V29.3196H118.485V8.80863H124.449V10.7375C125.517 9.19442 127.526 8.22995 130.163 8.22995C134.118 8.22995 137.57 11.1877 137.57 16.7173Z" fill="white"/>
  <path d="M71.5719 24.0476C74.2765 24.0476 76.4689 21.8022 76.4689 19.0323C76.4689 16.2625 74.2765 14.0171 71.5719 14.0171C68.8673 14.0171 66.6748 16.2625 66.6748 19.0323C66.6748 21.8022 68.8673 24.0476 71.5719 24.0476Z" fill="white"/>
  <path d="M82.8098 23.9831C80.9263 28.4196 76.5943 31.5702 71.5718 31.5702C64.7913 31.5702 59.3292 25.912 59.3292 19.0322C59.3292 12.1523 64.8541 6.42979 71.5718 6.42979C76.5943 6.42979 80.9263 9.58038 82.8098 14.0169H89.4648C87.3302 5.9154 80.1102 0 71.5718 0C61.3382 0 53.051 8.55161 53.051 18.9678C53.051 29.3841 61.3382 38 71.5718 38C80.1102 38 87.3302 32.0846 89.4648 23.9831H82.8098Z" fill="white"/>
  <path d="M108.087 8.80863V10.7375C106.768 9.19442 104.822 8.22995 102.122 8.22995C96.9118 8.22995 92.5798 12.9237 92.5798 19.032C92.5798 25.1403 96.9118 29.834 102.122 29.834C104.822 29.834 106.768 28.8696 108.087 27.3264V29.2553H114.051V8.80863H108.087ZM102.814 24.0472C100.114 24.0472 97.9167 21.7968 97.9167 19.032C97.9167 16.2672 100.114 14.0167 102.814 14.0167C105.513 14.0167 107.71 16.2672 107.71 19.032C107.71 21.7968 105.513 24.0472 102.814 24.0472Z" fill="white"/>
</svg>