<svg width="658" height="181" viewBox="0 0 658 181" fill="none" xmlns="http://www.w3.org/2000/svg">
<path d="M177.146 101.568C180.307 109.28 187.387 113.136 198.386 113.136C205.213 113.136 210.965 110.923 215.643 106.498L238.399 122.428C229.044 134.186 215.453 140.064 197.627 140.064C181.571 140.064 168.676 135.387 158.941 126.031C149.332 116.549 144.528 104.602 144.528 90.1895C144.528 75.9035 149.269 63.9563 158.751 54.3479C168.233 44.7396 180.307 39.9354 194.972 39.9354C209.132 39.9354 220.826 44.6764 230.055 54.1583C239.284 63.6402 243.899 75.5242 243.899 89.8102C243.899 93.9823 243.456 97.9015 242.571 101.568H177.146ZM176.767 79.7594H213.177C210.649 70.9097 204.707 66.4848 195.351 66.4848C185.617 66.4848 179.422 70.9097 176.767 79.7594Z" fill="#182EC4"/>
<path d="M113.404 41.8372H146.78L117.765 136.656H87.0439L73.39 88.4881L59.736 136.656H29.0146L0 41.8372H33.3763L45.8924 93.4187L60.1153 41.8372H86.6646L100.888 93.4187L113.404 41.8372Z" fill="#182EC4"/>
<path d="M622.641 39.9354C632.882 39.9354 641.226 43.4753 647.673 50.5551C654.248 57.5085 657.535 67.5594 657.535 80.7076V137.409H626.055V84.69C626.055 79.7594 624.727 76.0299 622.072 73.5014C619.544 70.9729 616.13 69.7086 611.832 69.7086C606.901 69.7086 603.045 71.2257 600.264 74.2599C597.609 77.1677 596.281 81.403 596.281 86.9657V137.409H564.802V42.5904H596.281V52.0723C601.971 43.981 610.757 39.9354 622.641 39.9354Z" fill="#182EC4"/>
<path d="M516.489 42.5904H547.969V137.409H516.489V128.686C510.041 136.272 501.065 140.064 489.56 140.064C476.918 140.064 466.298 135.323 457.701 125.841C449.23 116.233 444.995 104.286 444.995 89.9999C444.995 75.7138 449.23 63.8298 457.701 54.3479C466.298 44.7396 476.918 39.9354 489.56 39.9354C501.065 39.9354 510.041 43.7282 516.489 51.3137V42.5904ZM482.164 104.981C485.831 108.774 490.635 110.67 496.577 110.67C502.519 110.67 507.323 108.774 510.989 104.981C514.656 101.189 516.489 96.1947 516.489 89.9999C516.489 83.805 514.656 78.8112 510.989 75.0185C507.323 71.2257 502.519 69.3293 496.577 69.3293C490.635 69.3293 485.831 71.2257 482.164 75.0185C478.498 78.8112 476.665 83.805 476.665 89.9999C476.665 96.1947 478.498 101.189 482.164 104.981Z" fill="#182EC4"/>
<path d="M434.723 112.2C424.946 151.521 389.405 180.66 347.058 180.66C297.17 180.66 256.728 140.218 256.728 90.3302C256.728 40.4422 297.17 0 347.058 0C388.719 0 423.793 28.2036 434.228 66.5591H399.981C390.902 46.3792 370.621 32.3287 347.058 32.3287C315.025 32.3287 289.057 58.2968 289.057 90.3302C289.057 122.364 315.025 148.332 347.058 148.332C371.354 148.332 392.161 133.393 400.795 112.2H434.723Z" fill="#182EC4"/>
<circle cx="346.481" cy="89.3794" r="24.7219" fill="#182EC4"/>
</svg>
