<svg width="364" height="16" viewBox="0 0 364 16" fill="none" xmlns="http://www.w3.org/2000/svg">
<path d="M10.496 10.496C9.36533 11.6267 8 12.192 6.4 12.192C4.8 12.192 3.43467 11.6267 2.304 10.496C1.17333 9.36533 0.608 8 0.608 6.4C0.608 4.8 1.17333 3.43467 2.304 2.304C3.43467 1.17333 4.8 0.608 6.4 0.608C8 0.608 9.36533 1.17333 10.496 2.304C11.6267 3.43467 12.192 4.8 12.192 6.4C12.192 8 11.6267 9.36533 10.496 10.496ZM6.4 11.712C7.85067 11.712 9.088 11.1947 10.112 10.16C11.1467 9.12533 11.664 7.872 11.664 6.4C11.664 4.928 11.1467 3.67467 10.112 2.64C9.088 1.60533 7.85067 1.088 6.4 1.088C4.93867 1.088 3.69067 1.60533 2.656 2.64C1.632 3.67467 1.12 4.928 1.12 6.4C1.12 7.872 1.632 9.12533 2.656 10.16C3.69067 11.1947 4.93867 11.712 6.4 11.712ZM6.448 9.488C5.57333 9.488 4.832 9.18933 4.224 8.592C3.616 7.984 3.312 7.25333 3.312 6.4C3.312 5.54667 3.616 4.82133 4.224 4.224C4.832 3.616 5.57333 3.312 6.448 3.312C7.01333 3.312 7.53067 3.44533 8 3.712C8.46933 3.97867 8.832 4.34667 9.088 4.816L7.984 5.456C7.70667 4.85867 7.18933 4.56 6.432 4.56C5.888 4.56 5.44533 4.74133 5.104 5.104C4.77333 5.46667 4.608 5.89867 4.608 6.4C4.608 6.90133 4.77333 7.33333 5.104 7.696C5.44533 8.05867 5.888 8.24 6.432 8.24C6.77333 8.24 7.088 8.16 7.376 8C7.664 7.84 7.872 7.616 8 7.328L9.104 7.984C8.848 8.44267 8.48 8.81067 8 9.088C7.53067 9.35467 7.01333 9.488 6.448 9.488ZM20.3973 12L17.1813 0.799999H18.7493L21.3093 10.016L24.0293 0.799999H25.5333L28.2533 10.016L30.8133 0.799999H32.3813L29.1653 12H27.4373L24.7812 3.056L22.1253 12H20.3973ZM33.8601 8.64C33.9988 9.35467 34.3241 9.90933 34.8361 10.304C35.3588 10.6987 35.9988 10.896 36.7561 10.896C37.8121 10.896 38.5801 10.5067 39.0601 9.728L40.2441 10.4C39.4655 11.6053 38.2921 12.208 36.7241 12.208C35.4548 12.208 34.4201 11.8133 33.6201 11.024C32.8308 10.224 32.4361 9.216 32.4361 8C32.4361 6.79467 32.8255 5.792 33.6041 4.992C34.3828 4.192 35.3908 3.792 36.6281 3.792C37.8015 3.792 38.7561 4.208 39.4921 5.04C40.2388 5.86133 40.6121 6.85333 40.6121 8.016C40.6121 8.21867 40.5961 8.42667 40.5641 8.64H33.8601ZM36.6281 5.104C35.8815 5.104 35.2628 5.31733 34.7721 5.744C34.2815 6.16 33.9775 6.72 33.8601 7.424H39.2041C39.0868 6.66667 38.7881 6.09067 38.3081 5.696C37.8281 5.30133 37.2681 5.104 36.6281 5.104ZM47.6203 12.208C45.9243 12.208 44.5216 11.648 43.4123 10.528C42.3136 9.408 41.7643 8.032 41.7643 6.4C41.7643 4.768 42.3136 3.392 43.4123 2.272C44.5216 1.152 45.9243 0.591999 47.6203 0.591999C48.6443 0.591999 49.5829 0.837332 50.4363 1.328C51.3003 1.81867 51.9723 2.48 52.4523 3.312L51.1562 4.064C50.8363 3.44533 50.3563 2.95467 49.7163 2.592C49.0869 2.21867 48.3883 2.032 47.6203 2.032C46.3296 2.032 45.2736 2.448 44.4523 3.28C43.6416 4.112 43.2363 5.152 43.2363 6.4C43.2363 7.63733 43.6416 8.672 44.4523 9.504C45.2736 10.336 46.3296 10.752 47.6203 10.752C48.3883 10.752 49.0869 10.5707 49.7163 10.208C50.3563 9.83467 50.8363 9.344 51.1562 8.736L52.4523 9.472C51.9829 10.304 51.3163 10.9707 50.4523 11.472C49.5883 11.9627 48.6443 12.208 47.6203 12.208ZM60.5863 4H61.9783V12H60.5863V10.624C59.8929 11.68 58.8849 12.208 57.5623 12.208C56.4423 12.208 55.4876 11.8027 54.6983 10.992C53.9089 10.1707 53.5143 9.17333 53.5143 8C53.5143 6.82667 53.9089 5.83467 54.6983 5.024C55.4876 4.20267 56.4423 3.792 57.5623 3.792C58.8849 3.792 59.8929 4.32 60.5863 5.376V4ZM57.7383 10.864C58.5489 10.864 59.2263 10.592 59.7703 10.048C60.3143 9.49333 60.5863 8.81067 60.5863 8C60.5863 7.18933 60.3143 6.512 59.7703 5.968C59.2263 5.41333 58.5489 5.136 57.7383 5.136C56.9383 5.136 56.2663 5.41333 55.7223 5.968C55.1783 6.512 54.9062 7.18933 54.9062 8C54.9062 8.81067 55.1783 9.49333 55.7223 10.048C56.2663 10.592 56.9383 10.864 57.7383 10.864ZM68.0713 3.792C69.0099 3.792 69.7619 4.09067 70.3273 4.688C70.8926 5.27467 71.1753 6.07467 71.1753 7.088V12H69.7833V7.168C69.7833 6.51733 69.6073 6.016 69.2553 5.664C68.9033 5.30133 68.4179 5.12 67.7993 5.12C67.1059 5.12 66.5459 5.33867 66.1193 5.776C65.6926 6.20267 65.4793 6.864 65.4793 7.76V12H64.0872V4H65.4793V5.152C66.0446 4.24533 66.9086 3.792 68.0713 3.792ZM84.4305 0.799999V2.208H81.1185V12H79.6465V2.208H76.3505V0.799999H84.4305ZM85.282 8.64C85.4207 9.35467 85.746 9.90933 86.258 10.304C86.7807 10.6987 87.4207 10.896 88.178 10.896C89.234 10.896 90.002 10.5067 90.482 9.728L91.666 10.4C90.8873 11.6053 89.714 12.208 88.146 12.208C86.8767 12.208 85.842 11.8133 85.042 11.024C84.2527 10.224 83.858 9.216 83.858 8C83.858 6.79467 84.2473 5.792 85.026 4.992C85.8047 4.192 86.8127 3.792 88.05 3.792C89.2233 3.792 90.178 4.208 90.914 5.04C91.6607 5.86133 92.034 6.85333 92.034 8.016C92.034 8.21867 92.018 8.42667 91.986 8.64H85.282ZM88.05 5.104C87.3033 5.104 86.6847 5.31733 86.194 5.744C85.7033 6.16 85.3993 6.72 85.282 7.424H90.626C90.5087 6.66667 90.21 6.09067 89.73 5.696C89.25 5.30133 88.69 5.104 88.05 5.104ZM97.3785 12.208C96.1732 12.208 95.1705 11.808 94.3705 11.008C93.5705 10.1973 93.1705 9.19467 93.1705 8C93.1705 6.80533 93.5705 5.808 94.3705 5.008C95.1705 4.19733 96.1732 3.792 97.3785 3.792C98.1678 3.792 98.8772 3.984 99.5065 4.368C100.136 4.74133 100.605 5.248 100.915 5.888L99.7465 6.56C99.5438 6.13333 99.2292 5.792 98.8025 5.536C98.3865 5.28 97.9118 5.152 97.3785 5.152C96.5785 5.152 95.9065 5.424 95.3625 5.968C94.8292 6.512 94.5625 7.18933 94.5625 8C94.5625 8.8 94.8292 9.472 95.3625 10.016C95.9065 10.56 96.5785 10.832 97.3785 10.832C97.9118 10.832 98.3918 10.7093 98.8185 10.464C99.2452 10.208 99.5705 9.86667 99.7945 9.44L100.979 10.128C100.637 10.7573 100.147 11.264 99.5065 11.648C98.8665 12.0213 98.1572 12.208 97.3785 12.208ZM106.337 3.792C107.276 3.792 108.028 4.09067 108.593 4.688C109.158 5.27467 109.441 6.07467 109.441 7.088V12H108.049V7.168C108.049 6.51733 107.873 6.016 107.521 5.664C107.169 5.30133 106.684 5.12 106.065 5.12C105.372 5.12 104.812 5.33867 104.385 5.776C103.958 6.20267 103.745 6.864 103.745 7.76V12H102.353V0.799999H103.745V5.152C104.31 4.24533 105.174 3.792 106.337 3.792ZM115.368 3.792C116.307 3.792 117.059 4.09067 117.624 4.688C118.189 5.27467 118.472 6.07467 118.472 7.088V12H117.08V7.168C117.08 6.51733 116.904 6.016 116.552 5.664C116.2 5.30133 115.715 5.12 115.096 5.12C114.403 5.12 113.843 5.33867 113.416 5.776C112.989 6.20267 112.776 6.864 112.776 7.76V12H111.384V4H112.776V5.152C113.341 4.24533 114.205 3.792 115.368 3.792ZM127.167 10.992C126.346 11.8027 125.349 12.208 124.175 12.208C123.002 12.208 122.005 11.8027 121.183 10.992C120.373 10.1813 119.967 9.184 119.967 8C119.967 6.816 120.373 5.81867 121.183 5.008C122.005 4.19733 123.002 3.792 124.175 3.792C125.349 3.792 126.346 4.19733 127.167 5.008C127.989 5.81867 128.399 6.816 128.399 8C128.399 9.184 127.989 10.1813 127.167 10.992ZM124.175 10.848C124.975 10.848 125.647 10.576 126.191 10.032C126.735 9.488 127.007 8.81067 127.007 8C127.007 7.18933 126.735 6.512 126.191 5.968C125.647 5.424 124.975 5.152 124.175 5.152C123.386 5.152 122.719 5.424 122.175 5.968C121.631 6.512 121.359 7.18933 121.359 8C121.359 8.81067 121.631 9.488 122.175 10.032C122.719 10.576 123.386 10.848 124.175 10.848ZM130.04 12V0.32H131.432V12H130.04ZM140.308 10.992C139.487 11.8027 138.489 12.208 137.316 12.208C136.143 12.208 135.145 11.8027 134.324 10.992C133.513 10.1813 133.108 9.184 133.108 8C133.108 6.816 133.513 5.81867 134.324 5.008C135.145 4.19733 136.143 3.792 137.316 3.792C138.489 3.792 139.487 4.19733 140.308 5.008C141.129 5.81867 141.54 6.816 141.54 8C141.54 9.184 141.129 10.1813 140.308 10.992ZM137.316 10.848C138.116 10.848 138.788 10.576 139.332 10.032C139.876 9.488 140.148 8.81067 140.148 8C140.148 7.18933 139.876 6.512 139.332 5.968C138.788 5.424 138.116 5.152 137.316 5.152C136.527 5.152 135.86 5.424 135.316 5.968C134.772 6.512 134.5 7.18933 134.5 8C134.5 8.81067 134.772 9.488 135.316 10.032C135.86 10.576 136.527 10.848 137.316 10.848ZM149.821 4H151.197V11.664C151.197 12.848 150.797 13.7653 149.997 14.416C149.197 15.0773 148.237 15.408 147.117 15.408C146.221 15.408 145.448 15.2373 144.797 14.896C144.146 14.5653 143.656 14.0853 143.325 13.456L144.541 12.768C144.978 13.664 145.848 14.112 147.149 14.112C147.981 14.112 148.632 13.8933 149.101 13.456C149.581 13.0187 149.821 12.4213 149.821 11.664V10.528C149.117 11.5947 148.114 12.128 146.813 12.128C145.672 12.128 144.706 11.7227 143.917 10.912C143.128 10.1013 142.733 9.11467 142.733 7.952C142.733 6.78933 143.128 5.808 143.917 5.008C144.706 4.19733 145.672 3.792 146.813 3.792C148.125 3.792 149.128 4.32 149.821 5.376V4ZM144.941 9.984C145.485 10.528 146.162 10.8 146.973 10.8C147.784 10.8 148.461 10.528 149.005 9.984C149.549 9.44 149.821 8.76267 149.821 7.952C149.821 7.152 149.549 6.48 149.005 5.936C148.461 5.392 147.784 5.12 146.973 5.12C146.162 5.12 145.485 5.392 144.941 5.936C144.397 6.48 144.125 7.152 144.125 7.952C144.125 8.76267 144.397 9.44 144.941 9.984ZM158.89 4H160.378L157.114 12.496C156.773 13.4027 156.293 14.0907 155.674 14.56C155.066 15.04 154.362 15.2533 153.562 15.2V13.904C154.543 13.9787 155.263 13.4347 155.722 12.272L155.866 11.968L152.378 4H153.866L156.586 10.272L158.89 4ZM165.06 12V10.784L169.012 6.752C170.068 5.696 170.596 4.78933 170.596 4.032C170.596 3.40267 170.404 2.912 170.02 2.56C169.636 2.208 169.167 2.032 168.612 2.032C167.556 2.032 166.788 2.53333 166.308 3.536L165.06 2.8C165.412 2.07467 165.898 1.52533 166.516 1.152C167.146 0.778666 167.839 0.591999 168.596 0.591999C169.535 0.591999 170.351 0.901333 171.044 1.52C171.738 2.13867 172.084 2.97067 172.084 4.016C172.084 5.14667 171.418 6.37867 170.084 7.712L167.22 10.56H172.292V12H165.06ZM180.99 10.624C180.232 11.68 179.171 12.208 177.806 12.208C176.44 12.208 175.379 11.68 174.622 10.624C173.864 9.568 173.486 8.16 173.486 6.4C173.486 4.64 173.864 3.232 174.622 2.176C175.379 1.12 176.44 0.591999 177.806 0.591999C179.171 0.591999 180.232 1.12 180.99 2.176C181.747 3.232 182.126 4.64 182.126 6.4C182.126 8.16 181.747 9.568 180.99 10.624ZM175.71 9.616C176.2 10.3733 176.899 10.752 177.806 10.752C178.712 10.752 179.411 10.3733 179.902 9.616C180.403 8.85867 180.654 7.78667 180.654 6.4C180.654 5.01333 180.403 3.94133 179.902 3.184C179.411 2.416 178.712 2.032 177.806 2.032C176.899 2.032 176.2 2.41067 175.71 3.168C175.219 3.92533 174.974 5.00267 174.974 6.4C174.974 7.78667 175.219 8.85867 175.71 9.616ZM183.217 12V10.784L187.169 6.752C188.225 5.696 188.753 4.78933 188.753 4.032C188.753 3.40267 188.561 2.912 188.177 2.56C187.793 2.208 187.323 2.032 186.769 2.032C185.713 2.032 184.945 2.53333 184.465 3.536L183.217 2.8C183.569 2.07467 184.054 1.52533 184.673 1.152C185.302 0.778666 185.995 0.591999 186.753 0.591999C187.691 0.591999 188.507 0.901333 189.201 1.52C189.894 2.13867 190.241 2.97067 190.241 4.016C190.241 5.14667 189.574 6.37867 188.241 7.712L185.377 10.56H190.449V12H183.217ZM195.273 5.168C196.329 5.168 197.22 5.48267 197.945 6.112C198.681 6.73067 199.049 7.58933 199.049 8.688C199.049 9.776 198.676 10.6347 197.929 11.264C197.182 11.8933 196.276 12.208 195.209 12.208C194.356 12.208 193.593 12.0053 192.921 11.6C192.249 11.184 191.78 10.5867 191.513 9.808L192.777 9.088C192.926 9.632 193.214 10.048 193.641 10.336C194.068 10.6133 194.59 10.752 195.209 10.752C195.913 10.752 196.484 10.5707 196.921 10.208C197.358 9.84533 197.577 9.33867 197.577 8.688C197.577 8.03733 197.358 7.53067 196.921 7.168C196.484 6.79467 195.924 6.608 195.241 6.608H192.073L192.489 0.799999H198.617V2.192H193.833L193.641 5.168H195.273ZM244.217 12L243.305 9.488H238.265L237.353 12H235.769L239.945 0.799999H241.625L245.801 12H244.217ZM238.777 8.096H242.793L240.777 2.576L238.777 8.096ZM246.978 12V0.32H248.37V12H246.978ZM250.493 12V0.32H251.886V12H250.493ZM259.401 5.344C259.86 4.352 260.692 3.856 261.897 3.856V5.312C261.214 5.28 260.628 5.46133 260.137 5.856C259.646 6.25067 259.401 6.88533 259.401 7.76V12H258.009V4H259.401V5.344ZM263.963 2.544C263.696 2.544 263.472 2.45333 263.291 2.272C263.11 2.09067 263.019 1.872 263.019 1.616C263.019 1.36 263.11 1.14133 263.291 0.959999C263.472 0.768 263.696 0.672 263.963 0.672C264.219 0.672 264.438 0.768 264.619 0.959999C264.8 1.14133 264.891 1.36 264.891 1.616C264.891 1.872 264.8 2.09067 264.619 2.272C264.438 2.45333 264.219 2.544 263.963 2.544ZM263.259 12V4H264.651V12H263.259ZM273.415 4H274.791V11.664C274.791 12.848 274.391 13.7653 273.591 14.416C272.791 15.0773 271.831 15.408 270.711 15.408C269.815 15.408 269.041 15.2373 268.391 14.896C267.74 14.5653 267.249 14.0853 266.919 13.456L268.135 12.768C268.572 13.664 269.441 14.112 270.743 14.112C271.575 14.112 272.225 13.8933 272.695 13.456C273.175 13.0187 273.415 12.4213 273.415 11.664V10.528C272.711 11.5947 271.708 12.128 270.407 12.128C269.265 12.128 268.3 11.7227 267.511 10.912C266.721 10.1013 266.327 9.11467 266.327 7.952C266.327 6.78933 266.721 5.808 267.511 5.008C268.3 4.19733 269.265 3.792 270.407 3.792C271.719 3.792 272.721 4.32 273.415 5.376V4ZM268.535 9.984C269.079 10.528 269.756 10.8 270.567 10.8C271.377 10.8 272.055 10.528 272.599 9.984C273.143 9.44 273.415 8.76267 273.415 7.952C273.415 7.152 273.143 6.48 272.599 5.936C272.055 5.392 271.377 5.12 270.567 5.12C269.756 5.12 269.079 5.392 268.535 5.936C267.991 6.48 267.719 7.152 267.719 7.952C267.719 8.76267 267.991 9.44 268.535 9.984ZM280.884 3.792C281.822 3.792 282.574 4.09067 283.14 4.688C283.705 5.27467 283.988 6.07467 283.988 7.088V12H282.596V7.168C282.596 6.51733 282.42 6.016 282.068 5.664C281.716 5.30133 281.23 5.12 280.612 5.12C279.918 5.12 279.358 5.33867 278.932 5.776C278.505 6.20267 278.292 6.864 278.292 7.76V12H276.9V0.799999H278.292V5.152C278.857 4.24533 279.721 3.792 280.884 3.792ZM290.283 5.344H288.155V9.68C288.155 10.0747 288.23 10.3573 288.379 10.528C288.539 10.688 288.779 10.7733 289.099 10.784C289.419 10.784 289.814 10.7733 290.283 10.752V12C289.067 12.16 288.176 12.064 287.611 11.712C287.046 11.3493 286.763 10.672 286.763 9.68V5.344H285.179V4H286.763V2.176L288.155 1.76V4H290.283V5.344ZM292.74 6.16C292.74 6.46933 292.895 6.72 293.204 6.912C293.514 7.09333 293.887 7.24267 294.324 7.36C294.762 7.46667 295.199 7.59467 295.636 7.744C296.074 7.88267 296.447 8.128 296.756 8.48C297.066 8.82133 297.22 9.264 297.22 9.808C297.22 10.5333 296.938 11.1147 296.372 11.552C295.818 11.9893 295.103 12.208 294.228 12.208C293.45 12.208 292.783 12.0373 292.228 11.696C291.674 11.3547 291.279 10.9013 291.044 10.336L292.244 9.648C292.372 10.032 292.612 10.336 292.964 10.56C293.316 10.784 293.738 10.896 294.228 10.896C294.687 10.896 295.066 10.8107 295.364 10.64C295.663 10.4587 295.812 10.1813 295.812 9.808C295.812 9.49867 295.658 9.25333 295.348 9.072C295.039 8.88 294.666 8.73067 294.228 8.624C293.791 8.50667 293.354 8.37333 292.916 8.224C292.479 8.07467 292.106 7.82933 291.796 7.488C291.487 7.14667 291.332 6.70933 291.332 6.176C291.332 5.48267 291.599 4.912 292.132 4.464C292.676 4.016 293.354 3.792 294.164 3.792C294.815 3.792 295.391 3.94133 295.892 4.24C296.404 4.528 296.788 4.93333 297.044 5.456L295.876 6.112C295.588 5.42933 295.018 5.088 294.164 5.088C293.77 5.088 293.434 5.184 293.156 5.376C292.879 5.55733 292.74 5.81867 292.74 6.16ZM304.261 5.344C304.719 4.352 305.551 3.856 306.757 3.856V5.312C306.074 5.28 305.487 5.46133 304.997 5.856C304.506 6.25067 304.261 6.88533 304.261 7.76V12H302.868V4H304.261V5.344ZM308.657 8.64C308.796 9.35467 309.121 9.90933 309.633 10.304C310.156 10.6987 310.796 10.896 311.553 10.896C312.609 10.896 313.377 10.5067 313.857 9.728L315.041 10.4C314.262 11.6053 313.089 12.208 311.521 12.208C310.252 12.208 309.217 11.8133 308.417 11.024C307.628 10.224 307.233 9.216 307.233 8C307.233 6.79467 307.622 5.792 308.401 4.992C309.18 4.192 310.188 3.792 311.425 3.792C312.598 3.792 313.553 4.208 314.289 5.04C315.036 5.86133 315.409 6.85333 315.409 8.016C315.409 8.21867 315.393 8.42667 315.361 8.64H308.657ZM311.425 5.104C310.678 5.104 310.06 5.31733 309.569 5.744C309.078 6.16 308.774 6.72 308.657 7.424H314.001C313.884 6.66667 313.585 6.09067 313.105 5.696C312.625 5.30133 312.065 5.104 311.425 5.104ZM317.897 6.16C317.897 6.46933 318.051 6.72 318.361 6.912C318.67 7.09333 319.043 7.24267 319.481 7.36C319.918 7.46667 320.355 7.59467 320.793 7.744C321.23 7.88267 321.603 8.128 321.913 8.48C322.222 8.82133 322.377 9.264 322.377 9.808C322.377 10.5333 322.094 11.1147 321.529 11.552C320.974 11.9893 320.259 12.208 319.385 12.208C318.606 12.208 317.939 12.0373 317.385 11.696C316.83 11.3547 316.435 10.9013 316.201 10.336L317.401 9.648C317.529 10.032 317.769 10.336 318.121 10.56C318.473 10.784 318.894 10.896 319.385 10.896C319.843 10.896 320.222 10.8107 320.521 10.64C320.819 10.4587 320.969 10.1813 320.969 9.808C320.969 9.49867 320.814 9.25333 320.505 9.072C320.195 8.88 319.822 8.73067 319.385 8.624C318.947 8.50667 318.51 8.37333 318.073 8.224C317.635 8.07467 317.262 7.82933 316.953 7.488C316.643 7.14667 316.489 6.70933 316.489 6.176C316.489 5.48267 316.755 4.912 317.289 4.464C317.833 4.016 318.51 3.792 319.321 3.792C319.971 3.792 320.547 3.94133 321.049 4.24C321.561 4.528 321.945 4.93333 322.201 5.456L321.033 6.112C320.745 5.42933 320.174 5.088 319.321 5.088C318.926 5.088 318.59 5.184 318.313 5.376C318.035 5.55733 317.897 5.81867 317.897 6.16ZM324.782 8.64C324.921 9.35467 325.246 9.90933 325.758 10.304C326.281 10.6987 326.921 10.896 327.678 10.896C328.734 10.896 329.502 10.5067 329.982 9.728L331.166 10.4C330.387 11.6053 329.214 12.208 327.646 12.208C326.377 12.208 325.342 11.8133 324.542 11.024C323.753 10.224 323.358 9.216 323.358 8C323.358 6.79467 323.747 5.792 324.526 4.992C325.305 4.192 326.313 3.792 327.55 3.792C328.723 3.792 329.678 4.208 330.414 5.04C331.161 5.86133 331.534 6.85333 331.534 8.016C331.534 8.21867 331.518 8.42667 331.486 8.64H324.782ZM327.55 5.104C326.803 5.104 326.185 5.31733 325.694 5.744C325.203 6.16 324.899 6.72 324.782 7.424H330.126C330.009 6.66667 329.71 6.09067 329.23 5.696C328.75 5.30133 328.19 5.104 327.55 5.104ZM334.526 5.344C334.985 4.352 335.817 3.856 337.022 3.856V5.312C336.339 5.28 335.753 5.46133 335.262 5.856C334.771 6.25067 334.526 6.88533 334.526 7.76V12H333.134V4H334.526V5.344ZM343.984 4H345.488L342.288 12H340.656L337.456 4H338.96L341.472 10.512L343.984 4ZM347.329 8.64C347.468 9.35467 347.793 9.90933 348.305 10.304C348.828 10.6987 349.468 10.896 350.225 10.896C351.281 10.896 352.049 10.5067 352.529 9.728L353.713 10.4C352.934 11.6053 351.761 12.208 350.193 12.208C348.924 12.208 347.889 11.8133 347.089 11.024C346.3 10.224 345.905 9.216 345.905 8C345.905 6.79467 346.294 5.792 347.073 4.992C347.852 4.192 348.86 3.792 350.097 3.792C351.27 3.792 352.225 4.208 352.961 5.04C353.708 5.86133 354.081 6.85333 354.081 8.016C354.081 8.21867 354.065 8.42667 354.033 8.64H347.329ZM350.097 5.104C349.35 5.104 348.732 5.31733 348.241 5.744C347.75 6.16 347.446 6.72 347.329 7.424H352.673C352.556 6.66667 352.257 6.09067 351.777 5.696C351.297 5.30133 350.737 5.104 350.097 5.104ZM362.289 0.799999H363.681V12H362.289V10.624C361.596 11.68 360.588 12.208 359.265 12.208C358.145 12.208 357.191 11.8027 356.401 10.992C355.612 10.1707 355.217 9.17333 355.217 8C355.217 6.82667 355.612 5.83467 356.401 5.024C357.191 4.20267 358.145 3.792 359.265 3.792C360.588 3.792 361.596 4.32 362.289 5.376V0.799999ZM359.441 10.864C360.252 10.864 360.929 10.592 361.473 10.048C362.017 9.49333 362.289 8.81067 362.289 8C362.289 7.18933 362.017 6.512 361.473 5.968C360.929 5.41333 360.252 5.136 359.441 5.136C358.641 5.136 357.969 5.41333 357.425 5.968C356.881 6.512 356.609 7.18933 356.609 8C356.609 8.81067 356.881 9.49333 357.425 10.048C357.969 10.592 358.641 10.864 359.441 10.864Z" fill="white"/>
</svg>
